<svg width="24" height="22" viewBox="0 0 24 22" fill="none" xmlns="http://www.w3.org/2000/svg">
<g id="&#237;&#153;&#136; &#235;&#132;&#164;&#235;&#185;&#132;&#234;&#178;&#140;&#236;&#157;&#180;&#236;&#133;&#152; &#236;&#149;&#132;&#236;&#157;&#180;&#236;&#189;&#152;">
<path id="Vector" d="M18.7021 7.70877L18.7021 19.8721C16.846 20.3658 14.5221 20.6595 12.001 20.6595C9.47982 20.6595 7.15591 20.3658 5.29982 19.8721L5.2998 7.70877C5.2998 4.00249 8.29889 1 12.001 1C13.852 1 15.526 1.74936 16.7398 2.96453C17.9536 4.1797 18.7021 5.85563 18.7021 7.70877Z" stroke="#C0C0C0" stroke-miterlimit="10"/>
<path id="Vector_2" d="M5.29885 13.8525C2.68414 14.5462 1 15.6373 1 16.8626C1 18.0879 2.68414 19.179 5.29885 19.8727C7.15494 20.3664 9.47885 20.66 12 20.66C14.5211 20.66 16.8451 20.3664 18.7011 19.8727C21.3159 19.179 23 18.0879 23 16.8626C23 15.6373 21.3159 14.5462 18.7011 13.8525" stroke="#C0C0C0" stroke-miterlimit="10"/>
<path id="Vector_3" d="M12 11.8906C12.5478 11.8906 13.09 11.8783 13.5018 11.8046C13.7039 11.7685 13.9244 11.7096 14.1061 11.597C14.3053 11.4735 14.5 11.2528 14.5 10.9262C14.5 10.642 14.3488 10.4152 14.2041 10.2638C14.052 10.1047 13.8532 9.97049 13.6369 9.8626C13.2022 9.64586 12.6253 9.5 12 9.5C11.3751 9.5 10.7984 9.645 10.3635 9.86143C10.147 9.96916 9.948 10.1034 9.79573 10.2629C9.65042 10.415 9.5 10.642 9.5 10.9262C9.5 11.2528 9.69469 11.4735 9.89391 11.597C10.0756 11.7096 10.2961 11.7685 10.4982 11.8046C10.91 11.8783 11.4522 11.8906 12 11.8906Z" stroke="#C0C0C0"/>
</g>
</svg>
