<svg width="21" height="22" viewBox="0 0 21 22" fill="none" xmlns="http://www.w3.org/2000/svg">
<g id="Property 1=&#237;&#148;&#188;&#235;&#147;&#156;">
<path id="Vector" d="M10.0768 14.4559L7.35228 19.8763C6.84835 20.8832 5.62452 21.2878 4.61979 20.7828C3.61819 20.2778 3.21129 19.0514 3.71835 18.0445L6.44286 12.624" stroke="white" stroke-miterlimit="10"/>
<path id="Vector_2" d="M4.47363 11.6328H4.47676L6.4424 12.624L10.0763 14.4558L11.4817 15.1647" stroke="white" stroke-miterlimit="10"/>
<path id="Vector_3" d="M15.4102 7.31353L8.4209 3.79102" stroke="white" stroke-miterlimit="10"/>
<path id="Vector_4" d="M8.48661 3.65365C8.99148 2.64768 8.587 1.42204 7.58319 0.916096C6.57938 0.41015 5.35635 0.815493 4.85149 1.82145L0.913652 9.66772C0.408786 10.6737 0.813263 11.8993 1.81708 12.4053C2.82089 12.9112 4.04392 12.5059 4.54878 11.4999L8.48661 3.65365Z" stroke="white" stroke-miterlimit="10"/>
<path id="Vector_5" d="M19.1136 9.00619C19.6184 8.00022 19.214 6.77458 18.2101 6.26863C17.2063 5.76269 15.9833 6.16803 15.4784 7.17399L11.5406 15.0203C11.0357 16.0262 11.4402 17.2519 12.444 17.7578C13.4478 18.2638 14.6709 17.8584 15.1757 16.8524L19.1136 9.00619Z" stroke="white" stroke-miterlimit="10"/>
</g>
</svg>
