<svg width="22" height="22" viewBox="0 0 22 22" fill="none" xmlns="http://www.w3.org/2000/svg">
<g id="&#237;&#153;&#136; &#235;&#132;&#164;&#235;&#185;&#132;&#234;&#178;&#140;&#236;&#157;&#180;&#236;&#133;&#152; &#236;&#149;&#132;&#236;&#157;&#180;&#236;&#189;&#152;">
<path id="Vector" d="M19.0304 5.81717L13.2754 1.78829C11.7094 0.688925 9.30104 0.746617 7.79263 1.9165L2.78703 5.82679C1.78783 6.60564 1 8.20822 1 9.46785V16.3685C1 18.9199 3.06886 21 5.61489 21H16.3851C18.9343 21 21 18.9295 21 16.3814V9.60246C21 8.25309 20.1321 6.59282 19.0304 5.82358V5.81717Z" stroke="#C0C0C0" stroke-miterlimit="10"/>
<path id="Vector_2" d="M11.5842 12.5381H10.7195C9.73966 12.5381 8.94531 13.3331 8.94531 14.3137V17.4933C8.94531 18.4739 9.73966 19.2689 10.7195 19.2689H11.5842C12.5641 19.2689 13.3584 18.4739 13.3584 17.4933V14.3137C13.3584 13.3331 12.5641 12.5381 11.5842 12.5381Z" stroke="#C0C0C0" stroke-miterlimit="10"/>
</g>
</svg>
