<svg width="74" height="56" viewBox="0 0 74 56" fill="none" xmlns="http://www.w3.org/2000/svg">
<path d="M45.7869 0.726562H27.4722C12.2997 0.726562 0 13.0263 0 28.1987C0 43.3712 12.2997 55.6709 27.4722 55.6709H45.7869C60.9594 55.6709 73.2591 43.3712 73.2591 28.1987C73.2591 13.0263 60.9594 0.726562 45.7869 0.726562Z" fill="#E9E9E9"/>
<path d="M42.2122 28.5725C43.1782 27.6649 44.4342 26.948 45.6982 26.5626C46.0462 26.4549 46.3982 26.3678 46.7542 26.2974C47.1692 26.2145 47.2182 26.2104 47.6372 26.1772C47.9972 26.1482 48.3622 26.1399 48.7272 26.1524C48.9092 26.1565 49.0912 26.1689 49.2702 26.1855C49.3612 26.1938 49.4522 26.2021 49.5392 26.2145C49.7882 26.2435 49.2492 26.1689 49.6802 26.2352C50.3432 26.343 51.0182 26.0653 51.2092 25.365C51.3712 24.7724 51.0062 23.9436 50.3392 23.8359C46.7582 23.264 43.1082 24.3248 40.4512 26.8113C39.9622 27.2712 39.9872 28.1042 40.4512 28.5683C40.9402 29.0573 41.7192 29.0283 42.2082 28.5683L42.2122 28.5725Z" fill="#FF6D2D"/>
<path d="M38.7362 25.2193C40.8542 20.9344 41.1112 15.9616 38.9682 11.6352C38.6702 11.0343 37.8162 10.8686 37.2692 11.1876C36.6562 11.5482 36.5232 12.2858 36.8222 12.8867C38.5412 16.3677 38.2892 20.5241 36.5892 23.9595C36.2912 24.5604 36.4282 25.3063 37.0372 25.6585C37.5842 25.9776 38.4382 25.816 38.7362 25.211V25.2193Z" fill="#FF6D2D"/>
<path d="M42.7967 22.4053C44.3957 22.4053 44.3997 19.9189 42.7967 19.9189C41.1927 19.9189 41.1927 22.4053 42.7967 22.4053Z" fill="#FF6D2D"/>
<path d="M44.6249 31.6593C46.2239 31.6593 46.2279 29.1729 44.6249 29.1729C43.0209 29.1729 43.0209 31.6593 44.6249 31.6593Z" fill="#FF6D2D"/>
<path d="M43.8562 36.8605L43.4162 37.0511L38.4142 39.1397L35.3852 40.3995L30.3752 42.4963L23.7902 45.248C22.5802 45.7618 21.3622 44.5518 21.8672 43.3376L23.9932 38.1658L25.7542 33.8851L26.8242 31.2909L28.5852 27.0102L30.1392 23.2267C30.5412 22.2528 31.7882 22.0001 32.5342 22.7418L44.3282 34.4652C45.0662 35.1946 44.8292 36.4544 43.8562 36.8605Z" fill="#FFBF84"/>
<path d="M43.4093 37.0473L38.4073 39.1359L26.8203 31.2912L28.5813 27.0146L43.4093 37.0473Z" fill="#FF6D2D"/>
<path d="M35.3842 40.3951L30.3742 42.492L23.9922 38.1656L25.7532 33.8848L35.3842 40.3951Z" fill="#FF6D2D"/>
</svg>
