<svg width="55" height="41" viewBox="0 0 55 41" fill="none" xmlns="http://www.w3.org/2000/svg">
<g id="Group 2391">
<path id="Vector" d="M34.0387 0H20.4233C9.14382 0 0 9.1438 0 20.4232C0 31.7027 9.14382 40.8465 20.4233 40.8465H34.0387C45.3182 40.8465 54.462 31.7027 54.462 20.4232C54.462 9.1438 45.3182 0 34.0387 0Z" fill="#E9E9E9"/>
<g id="Clip path group">
<mask id="mask0_2340_132111" style="mask-type:luminance" maskUnits="userSpaceOnUse" x="13" y="6" width="28" height="29">
<g id="clip1_2235_151396">
<path id="Vector_2" d="M40.8443 6.80762H13.6133V34.0386H40.8443V6.80762Z" fill="white"/>
</g>
</mask>
<g mask="url(#mask0_2340_132111)">
<g id="Group">
<path id="Vector_3" d="M34.2408 18.8965C28.6836 20.7435 26.6984 22.7245 24.8511 28.2855C24.6327 28.9415 23.709 28.9415 23.4944 28.2855C21.6471 22.7285 19.6657 20.7435 14.1048 18.8965C13.4494 18.6775 13.4494 17.7545 14.1048 17.5395C19.6657 15.6925 21.651 13.7065 23.4944 8.14945C23.7129 7.49445 24.6365 7.49445 24.8511 8.14945C26.6984 13.7065 28.6798 15.6925 34.2408 17.5395C34.8961 17.7575 34.8961 18.6815 34.2408 18.8965Z" fill="#FF6D2D"/>
<path id="Vector_4" d="M40.5694 28.1904C37.4382 29.2284 36.3191 30.3474 35.2805 33.4784C35.1579 33.8464 34.6366 33.8464 34.514 33.4784C33.4754 30.3474 32.3563 29.2284 29.2251 28.1904C28.8572 28.0674 28.8572 27.5464 29.2251 27.4234C32.3563 26.3844 33.4754 25.2654 34.514 22.1344C34.6366 21.7664 35.1579 21.7664 35.2805 22.1344C36.3191 25.2654 37.4382 26.3844 40.5694 27.4234C40.9373 27.5464 40.9373 28.0674 40.5694 28.1904Z" fill="#FF6D2D"/>
</g>
</g>
</g>
</g>
</svg>
