<svg width="91" height="68" viewBox="0 0 91 68" fill="none" xmlns="http://www.w3.org/2000/svg">
<path d="M56.5143 0H33.9086C15.1814 0 0 15.1814 0 33.9086C0 52.6358 15.1814 67.8172 33.9086 67.8172H56.5143C75.2415 67.8172 90.4229 52.6358 90.4229 33.9086C90.4229 15.1814 75.2415 0 56.5143 0Z" fill="#E9E9E9"/>
<mask id="mask0_2341_123392" style="mask-type:luminance" maskUnits="userSpaceOnUse" x="22" y="11" width="46" height="46">
<path d="M67.817 11.3027H22.6055V56.5142H67.817V11.3027Z" fill="white"/>
</mask>
<g mask="url(#mask0_2341_123392)">
<path d="M60.4213 32.2598C59.7254 31.5059 58.6107 32.3113 58.7976 33.2005C59.0811 34.5343 58.6172 35.9776 57.5798 36.8861C57.0837 37.3178 56.3234 37.7237 55.6468 37.5047C54.9831 37.2856 54.6481 36.5124 54.5514 35.8809C54.313 34.3603 54.996 32.7495 55.1442 31.2353C55.2602 30.0497 55.2215 28.8512 55.0733 27.6721C54.4612 22.7623 52.0836 17.8009 48.3272 14.4954C46.3684 12.7622 44.0423 11.5573 41.407 11.306C40.8078 11.248 40.2665 11.9761 40.4727 12.5302C41.1493 14.3601 42.0449 16.2029 42.2897 18.1617C42.4057 19.1089 42.3348 20.0947 41.9353 20.9775C41.4972 21.9311 40.7111 22.7172 40.0668 23.5355C37.7149 26.5187 35.4791 29.9853 36.233 33.877C35.2665 34.1541 34.2935 32.8461 33.8167 32.0858C33.385 31.4028 33.0371 30.6747 32.7858 29.9144C32.6698 29.5536 32.5538 29.1798 32.5087 28.8061C32.4829 28.6193 32.4894 28.2778 32.4894 28.2584C32.6827 27.2597 31.2136 26.4607 30.711 27.511C28.2561 32.6786 26.1878 38.3938 27.0383 44.1929C27.7922 49.3024 31.0719 53.2587 35.8721 55.1272C40.2214 56.8218 45.4727 56.9056 49.9638 55.6942C54.4226 54.4893 58.3917 51.6414 60.6533 47.5949C63.192 43.0653 64.2165 36.4093 60.4213 32.2598Z" fill="#FF6D2D"/>
<path d="M48.765 52.6399C46.6966 53.5484 44.1644 53.6257 42.0252 53.1811C38.0046 52.3435 34.944 49.0767 34.9375 44.8885C34.9375 43.5676 35.0922 41.2673 36.0458 40.2042C36.4453 39.7596 37.0767 40.2428 36.9801 40.7454C36.8641 41.3511 36.9801 41.9825 37.3409 42.4916C37.7017 42.9942 38.52 43.5676 39.0806 43.0264C39.9053 42.2338 39.1901 40.6617 39.0806 39.708C38.8937 37.9748 39.2417 36.1706 39.886 34.5598C41.0909 31.5508 43.5265 28.5095 46.9737 28.1551C47.3216 28.1229 47.6309 28.5417 47.515 28.8574C46.5613 31.4348 46.3229 33.11 47.9918 35.4683C49.2289 37.208 50.975 38.6256 51.9415 40.5521C53.256 43.1681 53.3333 46.7055 52.1542 49.3795C51.4583 50.9517 50.2276 52.002 48.765 52.6463V52.6399Z" fill="#FFBF84"/>
</g>
</svg>
