<svg width="159" height="107" viewBox="0 0 159 107" fill="none" xmlns="http://www.w3.org/2000/svg">
<g id="&#235;&#154;&#156;&#235;&#145;&#144;" clip-path="url(#clip0_2340_132051)">
<path id="Vector" d="M37.8711 92.2484C37.8711 96.3393 46.1628 99.9133 58.5187 101.85V82.6436C46.1628 84.5835 37.8711 88.1575 37.8711 92.2484Z" fill="#0040BF"/>
<path id="Vector_2" d="M121.652 92.2484C121.652 88.1575 113.36 84.5835 101.004 82.6465V101.853C113.36 99.9162 121.652 96.3393 121.652 92.2513V92.2484Z" fill="#0040BF"/>
<path id="Vector_3" d="M101.003 81.107V101.85C94.7731 102.827 87.5153 103.389 79.7613 103.389C72.0073 103.389 64.7465 102.827 58.5195 101.85V81.107C58.5195 69.375 68.0293 59.8652 79.7613 59.8652C91.4933 59.8652 101.003 69.375 101.003 81.107Z" fill="#1B1B1B"/>
<path id="Vector_4" d="M81.3306 82.4141H78.645C78.3168 82.4141 78.0508 82.6801 78.0508 83.0082V86.7515C78.0508 87.0797 78.3168 87.3457 78.645 87.3457H81.3306C81.6588 87.3457 81.9248 87.0797 81.9248 86.7515V83.0082C81.9248 82.6801 81.6588 82.4141 81.3306 82.4141Z" fill="white"/>
<path id="Vector_5" d="M86.5907 84.4105C86.5907 85.7592 83.6435 85.9375 80.0102 85.9375C76.3768 85.9375 73.4297 85.7592 73.4297 84.4105C73.4297 83.0617 76.3768 81.3594 80.0102 81.3594C83.6435 81.3594 86.5907 83.0617 86.5907 84.4105Z" fill="#FF7336"/>
<path id="Vector_6" d="M93.1611 83.7452C91.9192 83.8344 90.6833 84.0215 89.4682 84.3008C89.189 84.3661 89.0256 84.684 89.0999 84.9514C89.1771 85.2366 89.4712 85.3852 89.7505 85.3198C90.8794 85.0584 92.0084 84.886 93.1611 84.7999C93.4463 84.7791 93.6899 84.5711 93.6899 84.2711C93.6899 84.0007 93.4463 83.7215 93.1611 83.7423V83.7452Z" fill="white"/>
<path id="Vector_7" d="M93.2976 86.781C92.0855 86.4898 90.8526 86.2938 89.6108 86.1928C89.3256 86.169 89.082 86.4512 89.082 86.7216C89.082 87.0276 89.3256 87.2266 89.6108 87.2504C90.7605 87.3455 91.8894 87.5296 93.0184 87.8C93.2947 87.8654 93.5917 87.7109 93.669 87.4316C93.7462 87.1523 93.5799 86.8493 93.3006 86.781H93.2976Z" fill="white"/>
<path id="Vector_8" d="M66.3647 84.7999C67.5174 84.8831 68.6463 85.0554 69.7753 85.3198C70.0516 85.3852 70.3486 85.2336 70.4259 84.9514C70.5002 84.684 70.3368 84.3661 70.0575 84.3008C68.8424 84.0186 67.6065 83.8344 66.3647 83.7452C66.0795 83.7244 65.8359 84.0037 65.8359 84.2741C65.8359 84.5771 66.0795 84.7821 66.3647 84.8029V84.7999Z" fill="white"/>
<path id="Vector_9" d="M66.5052 87.8001C67.6312 87.5297 68.7601 87.3426 69.9128 87.2505C70.198 87.2267 70.4416 87.0247 70.4416 86.7217C70.4416 86.4543 70.198 86.1691 69.9128 86.1928C68.671 86.2939 67.4381 86.4899 66.2259 86.7811C65.9496 86.8494 65.7833 87.1613 65.8575 87.4317C65.9348 87.7139 66.2289 87.8684 66.5082 87.8001H66.5052Z" fill="white"/>
<path id="Vector_10" d="M72.6423 81.9985C73.448 81.9985 74.101 81.3453 74.101 80.5397C74.101 79.7341 73.448 79.0811 72.6423 79.0811C71.8367 79.0811 71.1836 79.7341 71.1836 80.5397C71.1836 81.3453 71.8367 81.9985 72.6423 81.9985Z" fill="white"/>
<path id="Vector_11" d="M86.9626 81.9985C87.7682 81.9985 88.4213 81.3453 88.4213 80.5397C88.4213 79.7341 87.7682 79.0811 86.9626 79.0811C86.157 79.0811 85.5039 79.7341 85.5039 80.5397C85.5039 81.3453 86.157 81.9985 86.9626 81.9985Z" fill="white"/>
<path id="Vector_12" d="M70.5188 103.73C70.4029 106.662 66.5349 106.704 61.8736 106.523C57.2152 106.339 53.5313 106.003 53.6472 103.068C53.7631 100.135 57.6311 97.9046 62.2924 98.0888C66.9508 98.273 70.6347 100.798 70.5188 103.73Z" fill="#1B1B1B"/>
<path id="Vector_13" d="M59.2617 105.914C59.2617 106.324 59.5943 106.656 60.0045 106.656C60.4146 106.656 60.7472 106.324 60.7472 105.914V105.023C60.7472 104.612 60.4146 104.28 60.0045 104.28C59.5943 104.28 59.2617 104.612 59.2617 105.023V105.914Z" fill="#FF7336"/>
<path id="Vector_14" d="M62.8292 105.023C62.8292 104.612 62.4966 104.28 62.0864 104.28C61.6762 104.28 61.3438 104.612 61.3438 105.023V105.914C61.3438 106.324 61.6762 106.656 62.0864 106.656C62.4966 106.656 62.8292 106.324 62.8292 105.914V105.023Z" fill="#FF7336"/>
<path id="Vector_15" d="M64.9073 105.023C64.9073 104.612 64.5748 104.28 64.1646 104.28C63.7544 104.28 63.4219 104.612 63.4219 105.023V105.914C63.4219 106.324 63.7544 106.656 64.1646 106.656C64.5748 106.656 64.9073 106.324 64.9073 105.914V105.023Z" fill="#FF7336"/>
<path id="Vector_16" d="M89.0027 103.73C89.1186 106.662 92.9867 106.704 97.648 106.523C102.306 106.338 105.99 106.003 105.874 103.067C105.758 100.135 101.89 97.9046 97.2291 98.0888C92.5707 98.273 88.8868 100.798 89.0027 103.73Z" fill="#1B1B1B"/>
<path id="Vector_17" d="M94.6172 105.914C94.6172 106.324 94.9498 106.656 95.3599 106.656C95.7701 106.656 96.1027 106.324 96.1027 105.914V105.022C96.1027 104.612 95.7701 104.28 95.3599 104.28C94.9498 104.28 94.6172 104.612 94.6172 105.022V105.914Z" fill="#FF7336"/>
<path id="Vector_18" d="M98.1807 105.022C98.1807 104.612 97.8482 104.28 97.438 104.28C97.0278 104.28 96.6953 104.612 96.6953 105.022V105.914C96.6953 106.324 97.0278 106.656 97.438 106.656C97.8482 106.656 98.1807 106.324 98.1807 105.914V105.022Z" fill="#FF7336"/>
<path id="Vector_19" d="M100.263 105.022C100.263 104.612 99.9302 104.28 99.52 104.28C99.1098 104.28 98.7773 104.612 98.7773 105.022V105.914C98.7773 106.324 99.1098 106.656 99.52 106.656C99.9302 106.656 100.263 106.324 100.263 105.914V105.022Z" fill="#FF7336"/>
<path id="Vector_20" d="M134.687 0.1875H23.6888C10.6058 0.1875 0 10.7933 0 23.8762C0 36.9592 10.6058 47.565 23.6888 47.565H134.687C147.77 47.565 158.376 36.9592 158.376 23.8762C158.376 10.7933 147.77 0.1875 134.687 0.1875Z" fill="#3F73F7"/>
<path id="Vector_21" d="M27.914 30.999C27.1595 31.1876 26.3753 31.3316 25.5613 31.4309C24.7573 31.54 23.978 31.5946 23.2236 31.5946C22.3302 31.5946 21.546 31.5103 20.871 31.3415C20.2059 31.1827 19.7145 30.9296 19.3968 30.5821C19.109 30.2645 18.9055 29.9021 18.7863 29.4951C18.6672 29.0881 18.6077 28.6266 18.6077 28.1104C18.6077 27.7034 18.6424 27.1773 18.7119 26.532L20.4987 26.7107C20.4391 27.2765 20.4094 27.753 20.4094 28.1401C20.4094 28.8152 20.5086 29.2519 20.7072 29.4505C20.8561 29.6093 21.1489 29.7284 21.5857 29.8078C22.0225 29.8972 22.5535 29.9418 23.1789 29.9418C23.9036 29.9418 24.6828 29.8872 25.5167 29.7781C26.3604 29.6689 27.1595 29.51 27.914 29.3016V30.999ZM27.5417 18.0596V21.1269H28.9712V22.9137H27.5417V27.3212H25.7549V18.0596H27.5417ZM18.9352 22.2883C18.9352 22.7251 19.0742 23.0726 19.3522 23.3307C19.64 23.5887 20.0272 23.7178 20.5136 23.7178H20.6625C21.1489 23.7178 21.5311 23.5887 21.809 23.3307C22.0969 23.0726 22.2408 22.7251 22.2408 22.2883V21.5141C22.2408 21.0674 22.0969 20.7199 21.809 20.4718C21.5311 20.2137 21.1489 20.0846 20.6625 20.0846H20.5136C20.0272 20.0846 19.64 20.2137 19.3522 20.4718C19.0742 20.7199 18.9352 21.0674 18.9352 21.5141V22.2883ZM17.1484 21.5141C17.1484 20.9085 17.2924 20.3775 17.5803 19.9208C17.8781 19.4543 18.2801 19.0919 18.7863 18.8338C19.3025 18.5758 19.8783 18.4467 20.5136 18.4467H20.6625C21.2978 18.4467 21.8686 18.5758 22.3749 18.8338C22.891 19.0919 23.2931 19.4543 23.581 19.9208C23.8788 20.3775 24.0277 20.9085 24.0277 21.5141V22.2883C24.0277 22.8839 23.8788 23.415 23.581 23.8816C23.2931 24.3481 22.891 24.7105 22.3749 24.9686C21.8686 25.2267 21.2978 25.3557 20.6625 25.3557H20.5136C19.8783 25.3557 19.3025 25.2267 18.7863 24.9686C18.2801 24.7105 17.8781 24.3481 17.5803 23.8816C17.2924 23.415 17.1484 22.8839 17.1484 22.2883V21.5141ZM32.6394 28.8549C32.6394 29.103 32.7585 29.3165 32.9967 29.4951C33.235 29.6738 33.5923 29.8029 34.0688 29.8823C34.724 29.9716 35.2699 30.0163 35.7067 30.0163C36.1633 30.0163 36.7093 29.9716 37.3446 29.8823C37.8211 29.8029 38.1785 29.6738 38.4167 29.4951C38.6549 29.3165 38.7741 29.103 38.7741 28.8549V28.7357C38.7741 28.4578 38.6549 28.2245 38.4167 28.0359C38.1884 27.8374 37.8807 27.7381 37.4935 27.7381H33.9199C33.5328 27.7381 33.2201 27.8374 32.9818 28.0359C32.7535 28.2245 32.6394 28.4578 32.6394 28.7357V28.8549ZM30.8525 28.7357C30.8525 28.2593 30.9816 27.8225 31.2397 27.4254C31.5077 27.0184 31.875 26.6958 32.3415 26.4576C32.8081 26.2193 33.3342 26.1002 33.9199 26.1002H37.4935C38.0792 26.1002 38.6053 26.2193 39.0719 26.4576C39.5384 26.6958 39.9007 27.0184 40.1588 27.4254C40.4269 27.8225 40.5609 28.2593 40.5609 28.7357V28.8549C40.5609 29.5597 40.2879 30.1404 39.7419 30.597C39.1959 31.0636 38.4961 31.3614 37.6424 31.4904C36.9475 31.5897 36.3023 31.6393 35.7067 31.6393C35.121 31.6393 34.4758 31.5897 33.771 31.4904C32.9173 31.3614 32.2175 31.0636 31.6715 30.597C31.1255 30.1404 30.8525 29.5597 30.8525 28.8549V28.7357ZM40.3524 18.0596V25.8322H38.5656V23.1371H35.126V21.4843H38.5656V20.5015H35.126V18.8487H38.5656V18.0596H40.3524ZM37.2255 25.1175C36.5406 25.2465 35.94 25.3507 35.4238 25.4302C34.9076 25.4996 34.3964 25.5344 33.8901 25.5344C32.143 25.5344 31.0064 24.9735 30.4803 23.8518C30.1626 23.2165 30.0038 22.4273 30.0038 21.4843C30.0038 20.6802 30.1279 19.6677 30.3761 18.4467H32.1926C31.9346 19.6478 31.8055 20.6703 31.8055 21.5141C31.8055 22.2189 31.8998 22.7599 32.0884 23.1371C32.3267 23.6533 32.9223 23.9114 33.8752 23.9114C34.2425 23.9114 34.6197 23.8816 35.0069 23.822C35.4039 23.7625 35.9797 23.6682 36.7341 23.5391L37.2255 23.4498V25.1175ZM46.187 30.1354C45.8892 30.1354 45.6311 30.0262 45.4127 29.8078C45.2042 29.5994 45.1 29.3462 45.1 29.0484C45.1 28.7506 45.2042 28.4975 45.4127 28.289C45.6311 28.0707 45.8892 27.9615 46.187 27.9615C46.4848 27.9615 46.7379 28.0707 46.9464 28.289C47.1648 28.4975 47.274 28.7506 47.274 29.0484C47.274 29.3462 47.1648 29.5994 46.9464 29.8078C46.7379 30.0262 46.4848 30.1354 46.187 30.1354ZM45.4276 27.217L44.2662 25.445C44.0478 25.0778 43.9386 24.7502 43.9386 24.4623C43.9386 24.1049 44.0825 23.8171 44.3704 23.5987C44.6682 23.3803 45.0454 23.2661 45.502 23.2562C46.3855 23.2264 47.0705 23.1172 47.5569 22.9286C48.0433 22.7301 48.2865 22.3628 48.2865 21.8268C48.2865 21.4098 48.1475 21.0723 47.8696 20.8142C47.5916 20.5561 47.1946 20.4271 46.6784 20.4271C46.2515 20.4271 45.8892 20.5164 45.5914 20.6951C45.3035 20.8738 45.0553 21.122 44.8469 21.4396C44.6484 21.7473 44.42 22.1692 44.1619 22.7053L42.5538 22.0203C42.8318 21.4049 43.1296 20.8688 43.4472 20.4122C43.7649 19.9556 44.1868 19.5734 44.7129 19.2657C45.2489 18.948 45.9041 18.7892 46.6784 18.7892C47.3732 18.7892 47.9788 18.9282 48.495 19.2061C49.0111 19.484 49.4032 19.8563 49.6713 20.3229C49.9393 20.7894 50.0733 21.2907 50.0733 21.8268C50.0733 22.8988 49.6713 23.6582 48.8672 24.1049C48.0731 24.5417 47.1151 24.7998 45.9934 24.8792L46.9166 26.3236L45.4276 27.217ZM66.3431 18.0596V31.0437H64.5563V24.8494H63.6629V30.2992H61.8761V18.2085H63.6629V23.0626H64.5563V18.0596H66.3431ZM61.489 28.3337C60.1787 29.0187 59.0718 29.3611 58.1685 29.3611C56.7291 29.3611 55.8109 28.4925 55.4138 26.7554C55.1954 25.8223 55.0863 24.6856 55.0863 23.3455C55.0863 22.0948 55.1855 20.4618 55.3841 18.4467H57.1709C56.9624 20.4718 56.8582 22.1146 56.8582 23.3753C56.8582 24.5864 56.9525 25.584 57.1411 26.3682C57.2602 26.8546 57.424 27.207 57.6325 27.4254C57.8409 27.6339 58.099 27.7381 58.4067 27.7381C58.7145 27.7381 59.0718 27.6488 59.4788 27.4701C59.8858 27.2914 60.4566 27.0035 61.1912 26.6065L61.489 26.4427V28.3337ZM81.5397 18.0596V31.0437H79.7529V18.0596H81.5397ZM72.9333 25.2366C72.9333 26.1697 73.0623 26.8546 73.3204 27.2914C73.5785 27.7183 73.9756 27.9317 74.5116 27.9317H74.6605C75.1966 27.9317 75.5936 27.7183 75.8517 27.2914C76.1098 26.8546 76.2389 26.1697 76.2389 25.2366V22.7797C76.2389 21.8466 76.1098 21.1666 75.8517 20.7398C75.5936 20.303 75.1966 20.0846 74.6605 20.0846H74.5116C73.9756 20.0846 73.5785 20.303 73.3204 20.7398C73.0623 21.1666 72.9333 21.8466 72.9333 22.7797V25.2366ZM71.1465 22.7797C71.1465 21.4595 71.4195 20.4072 71.9654 19.623C72.5213 18.8388 73.3701 18.4467 74.5116 18.4467H74.6605C75.8021 18.4467 76.6459 18.8388 77.1918 19.623C77.7477 20.4072 78.0257 21.4595 78.0257 22.7797V25.2366C78.0257 26.5568 77.7477 27.6091 77.1918 28.3933C76.6459 29.1775 75.8021 29.5696 74.6605 29.5696H74.5116C73.3701 29.5696 72.5213 29.1775 71.9654 28.3933C71.4195 27.6091 71.1465 26.5568 71.1465 25.2366V22.7797ZM84.2623 20.3973H91.8116C91.9505 20.3973 92.0548 20.3725 92.1243 20.3229C92.2037 20.2633 92.2434 20.1988 92.2434 20.1293C92.2434 20.0102 92.164 19.9208 92.0051 19.8613C91.7868 19.7818 91.4095 19.7173 90.8735 19.6677C90.3375 19.6181 89.7319 19.5932 89.0569 19.5932C87.3892 19.5932 85.9945 19.7322 84.8728 20.0102L84.4261 18.4318C85.0713 18.2631 85.796 18.139 86.6 18.0596C87.414 17.9802 88.233 17.9404 89.0569 17.9404C89.8312 17.9404 90.536 17.9752 91.1713 18.0447C91.8165 18.1142 92.293 18.2035 92.6007 18.3127C93.0673 18.4814 93.4197 18.7346 93.6579 19.0721C93.8962 19.3997 94.0153 19.757 94.0153 20.1442C94.0153 20.4718 93.926 20.7795 93.7473 21.0674C93.5785 21.3552 93.3254 21.5885 92.9879 21.7672C92.6603 21.9459 92.2682 22.0352 91.8116 22.0352H86.5703C86.5008 22.1345 86.466 22.2288 86.466 22.3181C86.466 22.4968 86.5752 22.6407 86.7936 22.7499C87.0815 22.879 87.6126 22.9435 88.3869 22.9435C89.1314 22.9435 90.0049 22.8889 91.0075 22.7797C92.0101 22.6705 92.9581 22.5315 93.8515 22.3628L94.1791 23.9709C93.2658 24.1397 92.298 24.2836 91.2755 24.4027C90.263 24.5219 89.3398 24.5814 88.506 24.5814C87.3048 24.5814 86.4611 24.4524 85.9747 24.1943C85.5478 23.9759 85.2252 23.7079 85.0068 23.3902C84.7983 23.0626 84.6941 22.7202 84.6941 22.3628C84.6941 22.2834 84.704 22.1742 84.7239 22.0352H84.2623V20.3973ZM95.147 26.666H83.0562V25.0281H95.147V26.666ZM84.4559 27.1425H93.7473V31.6095H87.0616C86.3568 31.6095 85.8059 31.4408 85.4088 31.1033C85.0217 30.7658 84.8281 30.2992 84.8281 29.7036C84.8281 29.4455 84.8629 29.1824 84.9324 28.9144L84.9919 28.7804H84.4559V27.1425ZM86.6298 29.4058C86.6 29.5448 86.5852 29.649 86.5852 29.7185C86.5852 29.8277 86.6199 29.8972 86.6894 29.927C86.7589 29.9567 86.883 29.9716 87.0616 29.9716H91.9605V28.7804H87.017C86.8383 29.0087 86.7092 29.2172 86.6298 29.4058ZM106.707 30.999C105.953 31.1876 105.154 31.3316 104.31 31.4309C103.476 31.54 102.667 31.5946 101.883 31.5946C100.94 31.5946 100.116 31.5103 99.4107 31.3415C98.7159 31.1827 98.2096 30.9296 97.892 30.5821C97.6041 30.2744 97.4006 29.922 97.2815 29.5249C97.1623 29.1378 97.1028 28.696 97.1028 28.1997C97.1028 27.8126 97.1375 27.3063 97.207 26.6809L98.9938 26.8596C98.9343 27.4254 98.9045 27.887 98.9045 28.2444C98.9045 28.84 99.0038 29.242 99.2023 29.4505C99.3512 29.6093 99.654 29.7284 100.111 29.8078C100.577 29.8972 101.143 29.9418 101.808 29.9418C102.583 29.9418 103.402 29.8872 104.265 29.7781C105.139 29.6689 105.953 29.51 106.707 29.3016V30.999ZM107.958 25.6684H95.8669V24.0305H107.958V25.6684ZM98.8449 20.6058C98.8449 20.8539 98.9194 21.0475 99.0683 21.1865C99.2271 21.3155 99.4802 21.3801 99.8277 21.3801H103.997C104.345 21.3801 104.593 21.3155 104.742 21.1865C104.901 21.0475 104.98 20.8539 104.98 20.6058V20.5164C104.98 20.2881 104.901 20.1144 104.742 19.9953C104.583 19.8762 104.295 19.7918 103.878 19.7421C103.253 19.6429 102.598 19.5932 101.913 19.5932C101.238 19.5932 100.582 19.6429 99.9468 19.7421C99.5299 19.7918 99.242 19.8762 99.0832 19.9953C98.9243 20.1144 98.8449 20.2881 98.8449 20.5164V20.6058ZM97.0581 20.5164C97.0581 19.8613 97.2864 19.3252 97.7431 18.9083C98.1997 18.4814 98.8549 18.2134 99.7085 18.1042C100.404 18.005 101.138 17.9553 101.913 17.9553C102.697 17.9553 103.431 18.005 104.116 18.1042C104.97 18.2134 105.625 18.4814 106.082 18.9083C106.538 19.3252 106.767 19.8613 106.767 20.5164V20.6058C106.767 21.0326 106.663 21.4297 106.454 21.797C106.246 22.1643 105.933 22.4621 105.516 22.6904C105.099 22.9088 104.593 23.018 103.997 23.018H99.8277C99.2321 23.018 98.7258 22.9088 98.3089 22.6904C97.892 22.4621 97.5793 22.1643 97.3708 21.797C97.1623 21.4297 97.0581 21.0326 97.0581 20.6058V20.5164ZM117.585 24.6112C117.089 24.6906 116.617 24.7303 116.171 24.7303C114.642 24.7303 113.654 24.1496 113.207 22.9882C113.029 22.5216 112.939 22.0551 112.939 21.5885C112.939 21.251 112.989 20.7497 113.088 20.0846H112.612V18.4467H117.377V20.0846H114.905C114.786 20.8093 114.726 21.3155 114.726 21.6034C114.726 21.8714 114.776 22.1345 114.875 22.3926C114.984 22.6606 115.138 22.8492 115.337 22.9584C115.545 23.0676 115.803 23.1222 116.111 23.1222C116.319 23.1222 116.682 23.0825 117.198 23.0031L117.585 22.9435V24.6112ZM122.633 24.6112C122.196 24.6906 121.759 24.7303 121.322 24.7303C119.824 24.7303 118.851 24.1496 118.404 22.9882C118.225 22.5216 118.136 22.0551 118.136 21.5885C118.136 21.251 118.186 20.7497 118.285 20.0846H117.808V18.4467H122.573V20.0846H120.102C119.982 20.8093 119.923 21.3155 119.923 21.6034C119.923 21.8714 119.972 22.1345 120.072 22.3926C120.25 22.879 120.647 23.1222 121.263 23.1222C121.541 23.1222 121.893 23.0775 122.32 22.9882L122.633 22.9435V24.6112ZM123.75 27.3063H118.598V31.4904H116.811V27.3063H111.659V25.6684H123.75V27.3063ZM135.31 23.9263C134.644 24.1744 133.89 24.3779 133.046 24.5367C132.202 24.6856 131.374 24.7601 130.56 24.7601C129.626 24.7601 128.803 24.6509 128.088 24.4325C127.373 24.2141 126.862 23.8766 126.554 23.42C126.137 22.7946 125.929 22.0799 125.929 21.2758C125.929 20.8986 125.978 20.4221 126.078 19.8464H125.422V18.2085H135.31V19.8464H127.879C127.77 20.4519 127.716 20.9284 127.716 21.2758C127.716 21.7722 127.825 22.1792 128.043 22.4968C128.182 22.7053 128.465 22.8641 128.892 22.9733C129.329 23.0726 129.85 23.1222 130.455 23.1222C131.309 23.1222 132.188 23.0328 133.091 22.8542C134.004 22.6656 134.744 22.4174 135.31 22.1097V23.9263ZM136.56 27.3063H131.408V31.4904H129.621V27.3063H124.47V25.6684H136.56V27.3063ZM138.754 30.1354C138.457 30.1354 138.198 30.0262 137.98 29.8078C137.772 29.5994 137.667 29.3462 137.667 29.0484C137.667 28.7506 137.772 28.4975 137.98 28.289C138.198 28.0707 138.457 27.9615 138.754 27.9615C139.052 27.9615 139.305 28.0707 139.514 28.289C139.732 28.4975 139.841 28.7506 139.841 29.0484C139.841 29.3462 139.732 29.5994 139.514 29.8078C139.305 30.0262 139.052 30.1354 138.754 30.1354ZM138.159 26.6958L139.052 18.953H141.137L139.648 26.6958H138.159Z" fill="white"/>
<path id="Vector_22" d="M81.5305 51.6257C80.4884 53.4306 77.8833 53.4306 76.8412 51.6257L71.566 42.4887C70.524 40.6838 71.8265 38.4277 73.9106 38.4277H84.4612C86.5453 38.4277 87.8478 40.6838 86.8058 42.4886L81.5305 51.6257Z" fill="#3F73F7"/>
</g>
<defs>
<clipPath id="clip0_2340_132051">
<rect width="159" height="107" fill="white"/>
</clipPath>
</defs>
</svg>
