<svg width="237" height="501" viewBox="0 0 237 501" fill="none" xmlns="http://www.w3.org/2000/svg">
<g clip-path="url(#clip0_2340_130299)">
<mask id="mask0_2340_130299" style="mask-type:luminance" maskUnits="userSpaceOnUse" x="5" y="5" width="227" height="492">
<path d="M232 5H5V496.531H232V5Z" fill="white"/>
</mask>
<g mask="url(#mask0_2340_130299)">
<path d="M232 5H5V496.531H232V5Z" fill="white"/>
<path d="M217.47 445.683H19.5263C16.8517 445.683 14.6836 447.851 14.6836 450.525V472.317C14.6836 474.992 16.8517 477.16 19.5263 477.16H217.47C220.145 477.16 222.313 474.992 222.313 472.317V450.525C222.313 447.851 220.145 445.683 217.47 445.683Z" fill="#3F73F7"/>
<path d="M117.006 457.043V460.287H118.321V461.148H117.006V465.602H115.957V457.043H117.006ZM114.661 457.856V458.708H111.71V462.633C113.039 462.633 114.089 462.567 115.266 462.358L115.389 463.248C114.065 463.475 112.911 463.512 111.37 463.512H110.66V457.856H114.661ZM122.568 457.213C124.46 457.213 125.642 457.837 125.651 458.878C125.642 459.899 124.46 460.514 122.568 460.504C120.695 460.514 119.485 459.899 119.485 458.878C119.485 457.837 120.695 457.213 122.568 457.213ZM122.568 458.036C121.319 458.036 120.572 458.329 120.582 458.878C120.572 459.398 121.319 459.682 122.568 459.691C123.816 459.682 124.564 459.398 124.564 458.878C124.564 458.329 123.816 458.036 122.568 458.036ZM125.528 462.614V465.489H119.598V462.614H125.528ZM120.638 463.446V464.637H124.507V463.446H120.638ZM126.474 461.082V461.933H118.681V461.082H126.474Z" fill="white"/>
<path d="M157.242 488.661H79.154C78.3182 488.661 77.6406 489.339 77.6406 490.174C77.6406 491.01 78.3182 491.688 79.154 491.688H157.242C158.078 491.688 158.755 491.01 158.755 490.174C158.755 489.339 158.078 488.661 157.242 488.661Z" fill="#202020"/>
<path d="M232 31.6348H5V77.6401H232V31.6348Z" fill="white"/>
<path d="M87.7063 41.2779V42.303C87.7063 43.519 87.7063 44.7751 87.3746 46.6845L86.239 46.5841C86.5907 44.7952 86.5907 43.4788 86.5907 42.303V42.1824H81.3552V41.2779H87.7063ZM88.7614 47.3177V48.2321H80.4805V47.3177H88.7614ZM97.6653 44.8254V45.7098H94.0575V46.6142H92.9521V45.7098H89.3643V44.8254H97.6653ZM91.5351 46.172V46.9961H95.5448V46.172H96.6501V49.3677H90.4297V46.172H91.5351ZM91.5351 48.5136H95.5448V47.8302H91.5351V48.5136ZM96.6404 40.5544V42.7954H91.5248V43.4386H96.8208V44.2727H90.4194V42.0015H95.5248V41.3985H90.3892V40.5544H96.6404ZM109.011 47.4483V48.3829H100.71V47.4483H109.011ZM108.288 41.2378V42.1321H106.961V45.0264H108.257V45.9107H101.424V45.0264H102.7V42.1321H101.394V41.2378H108.288ZM103.815 45.0264H105.855V42.1321H103.815V45.0264ZM117.905 47.4985V48.4231H109.604V47.4985H113.182V46.0213H110.589V43.0466H115.814V41.9211H110.569V41.0166H116.92V43.931H111.704V45.1068H117.131V46.0213H114.287V47.4985H117.905ZM126.075 40.3936V45.0767H124.96V40.3936H126.075ZM126.075 45.4585V47.8001H121.11V48.5136H126.367V49.3979H120.005V46.9861H124.969V46.3328H119.985V45.4585H126.075ZM123.824 40.9764V41.8407H123.01V43.8205C123.422 43.7853 123.824 43.745 124.206 43.6998L124.256 44.5038C122.447 44.7852 120.357 44.8455 118.769 44.8455L118.649 43.9611L119.684 43.9511V41.8407H118.89V40.9764H123.824ZM120.759 43.931C121.151 43.921 121.548 43.9059 121.945 43.8808V41.8407H120.759V43.931ZM134.447 41.1774V45.4685H130.145V41.1774H134.447ZM131.241 42.0718V44.5842H133.351V42.0718H131.241ZM136.999 40.3936V43.0567H138.265V43.9913H136.999V47.0263H135.884V40.3936H136.999ZM137.361 48.393V49.2974H131.18V46.3831H132.296V48.393H137.361ZM147.018 44.0315V44.9158H138.727V44.0315H147.018ZM146.033 42.5643V43.4486H139.783V40.6247H145.953V41.5191H140.898V42.5643H146.033ZM145.973 45.5389V47.8201H140.808V48.5136H146.225V49.3878H139.712V47.0162H144.878V46.3831H139.702V45.5389H145.973ZM155.209 40.3936V49.4783H154.083V40.3936H155.209ZM152.495 41.3583C152.495 44.0616 151.45 46.363 148.264 47.8704L147.682 46.976C150.058 45.8454 151.163 44.3078 151.36 42.2427H148.144V41.3583H152.495Z" fill="#202020"/>
<path d="M221.405 42.2275L215.957 47.6755M215.957 42.2275L221.405 47.6755" stroke="#525252" stroke-width="1.21067" stroke-linecap="round" stroke-linejoin="round"/>
<path d="M19.5267 47.9791L16.5 44.9524L19.5267 41.9258" stroke="#525252" stroke-width="1.21067" stroke-linecap="round" stroke-linejoin="round"/>
<mask id="mask1_2340_130299" style="mask-type:luminance" maskUnits="userSpaceOnUse" x="5" y="5" width="227" height="27">
<path d="M232 5H5V31.6347H232V5Z" fill="white"/>
</mask>
<g mask="url(#mask1_2340_130299)">
<path d="M232 5H5V31.6347H232V5Z" fill="white"/>
<path opacity="0.35" d="M208.695 17.1065C208.695 16.3822 209.282 15.7949 210.007 15.7949H220.096C220.82 15.7949 221.407 16.3822 221.407 17.1065V20.7385C221.407 21.4628 220.82 22.05 220.096 22.05H210.007C209.282 22.05 208.695 21.4628 208.695 20.7385V17.1065Z" stroke="#202020" stroke-width="0.605333"/>
<path opacity="0.4" d="M222.316 17.7119V20.1332C222.804 19.9282 223.12 19.4511 223.12 18.9226C223.12 18.3941 222.804 17.917 222.316 17.7119Z" fill="#202020"/>
<path d="M209.602 17.5102C209.602 17.0645 209.963 16.7031 210.408 16.7031H219.691C220.136 16.7031 220.498 17.0645 220.498 17.5102V20.3351C220.498 20.7809 220.136 21.1422 219.691 21.1422H210.408C209.963 21.1422 209.602 20.7809 209.602 20.3351V17.5102Z" fill="#202020"/>
<path fill-rule="evenodd" clip-rule="evenodd" d="M200.724 16.8698C202.066 16.8698 203.356 17.3852 204.328 18.3094C204.401 18.3808 204.518 18.3799 204.59 18.3074L205.29 17.6012C205.327 17.5644 205.347 17.5147 205.347 17.4629C205.346 17.411 205.326 17.3615 205.289 17.3251C202.737 14.8799 198.712 14.8799 196.16 17.3251C196.123 17.3615 196.102 17.411 196.102 17.4628C196.102 17.5146 196.122 17.5644 196.158 17.6012L196.858 18.3074C196.93 18.38 197.047 18.3809 197.12 18.3094C198.093 17.3851 199.383 16.8698 200.724 16.8698ZM200.724 19.1674C201.461 19.1674 202.172 19.4413 202.718 19.9359C202.792 20.0062 202.909 20.0047 202.981 19.9326L203.68 19.2263C203.717 19.1893 203.737 19.139 203.737 19.0868C203.736 19.0346 203.714 18.9847 203.677 18.9485C202.013 17.401 199.437 17.401 197.773 18.9485C197.736 18.9847 197.714 19.0346 197.714 19.0868C197.714 19.1391 197.734 19.1893 197.771 19.2263L198.47 19.9326C198.542 20.0047 198.658 20.0062 198.732 19.9359C199.278 19.4416 199.988 19.1677 200.724 19.1674ZM202.125 20.7133C202.126 20.7657 202.105 20.8162 202.068 20.8528L200.859 22.073C200.823 22.1089 200.775 22.129 200.724 22.129C200.674 22.129 200.626 22.1089 200.59 22.073L199.381 20.8528C199.344 20.8161 199.323 20.7656 199.324 20.7133C199.326 20.6609 199.348 20.6113 199.387 20.5762C200.159 19.9231 201.29 19.9231 202.062 20.5762C202.101 20.6113 202.123 20.661 202.125 20.7133Z" fill="#202020"/>
<path fill-rule="evenodd" clip-rule="evenodd" d="M192.451 15.6943H191.846C191.511 15.6943 191.24 15.9653 191.24 16.2997V21.5459C191.24 21.8802 191.511 22.1512 191.846 22.1512H192.451C192.785 22.1512 193.056 21.8802 193.056 21.5459V16.2997C193.056 15.9653 192.785 15.6943 192.451 15.6943ZM189.021 17.1068H189.626C189.961 17.1068 190.231 17.3778 190.231 17.7121V21.5459C190.231 21.8802 189.961 22.1512 189.626 22.1512H189.021C188.686 22.1512 188.415 21.8802 188.415 21.5459V17.7121C188.415 17.3778 188.686 17.1068 189.021 17.1068ZM186.801 18.5192H186.196C185.861 18.5192 185.591 18.7903 185.591 19.1246V21.5459C185.591 21.8802 185.861 22.1512 186.196 22.1512H186.801C187.136 22.1512 187.407 21.8802 187.407 21.5459V19.1246C187.407 18.7903 187.136 18.5192 186.801 18.5192ZM183.976 19.7299H183.371C183.037 19.7299 182.766 20.0009 182.766 20.3352V21.5459C182.766 21.8802 183.037 22.1512 183.371 22.1512H183.976C184.31 22.1512 184.582 21.8802 184.582 21.5459V20.3352C184.582 20.0009 184.31 19.7299 183.976 19.7299Z" fill="#202020"/>
<path d="M27.5909 22.105C29.2181 22.105 30.1846 20.8326 30.1846 18.6778C30.1846 17.8665 30.0294 17.1838 29.7324 16.6562C29.3023 15.8359 28.5619 15.3926 27.6264 15.3926C26.2343 15.3926 25.25 16.3281 25.25 17.6404C25.25 18.8729 26.1368 19.7685 27.356 19.7685C28.1052 19.7685 28.7126 19.4183 29.0141 18.8109H29.0275C29.0275 18.8109 29.0452 18.8109 29.0496 18.8109C29.0585 18.8109 29.0895 18.8109 29.0895 18.8109C29.0895 20.2739 28.5353 21.1474 27.5998 21.1474C27.0501 21.1474 26.6244 20.8459 26.4781 20.3626H25.3387C25.5294 21.4134 26.4205 22.105 27.5909 22.105ZM27.6308 18.8596C26.8949 18.8596 26.3717 18.3365 26.3717 17.605C26.3717 16.8911 26.9215 16.3458 27.6353 16.3458C28.3491 16.3458 28.8989 16.9 28.8989 17.6227C28.8989 18.3365 28.3624 18.8596 27.6308 18.8596Z" fill="#202020"/>
<path d="M32.057 22.0421C32.4782 22.0421 32.7664 21.7406 32.7664 21.3416C32.7664 20.9381 32.4782 20.6411 32.057 20.6411C31.6403 20.6411 31.3477 20.9381 31.3477 21.3416C31.3477 21.7406 31.6403 22.0421 32.057 22.0421ZM32.057 18.7169C32.4782 18.7169 32.7664 18.4198 32.7664 18.0208C32.7664 17.6173 32.4782 17.3203 32.057 17.3203C31.6403 17.3203 31.3477 17.6173 31.3477 18.0208C31.3477 18.4198 31.6403 18.7169 32.057 18.7169Z" fill="#202020"/>
<path d="M36.9147 21.9494H38.0098V20.7568H38.8743V19.7902H38.0098V15.5518H36.396C35.2654 17.2543 34.3654 18.6774 33.7891 19.737V20.7568H36.9147V21.9494ZM34.8486 19.7504C35.5935 18.438 36.2585 17.3872 36.8704 16.4828H36.9324V19.8169H34.8486V19.7504Z" fill="#202020"/>
<path d="M41.3116 21.9494H42.4555V15.5518H41.316L39.6445 16.7222V17.8218L41.2362 16.7044H41.3116V21.9494Z" fill="#202020"/>
</g>
<path d="M162.386 133.936C162.386 109.531 142.602 89.7471 118.197 89.7471C93.792 89.7471 74.0078 109.531 74.0078 133.936C74.0078 158.341 93.792 178.126 118.197 178.126C142.602 178.126 162.386 158.341 162.386 133.936Z" fill="#3F73F7"/>
<path d="M84.2969 157.332C84.2969 160.606 90.9471 163.467 100.856 165.018V149.644C90.9471 151.196 84.2969 154.057 84.2969 157.332Z" fill="#114BBD"/>
<path d="M151.489 157.331C151.489 154.057 144.839 151.196 134.93 149.646V165.019C144.839 163.469 151.489 160.606 151.489 157.334V157.331Z" fill="#114BBD"/>
<path d="M134.932 148.414V165.017C129.936 165.8 124.114 166.249 117.896 166.249C111.677 166.249 105.854 165.8 100.859 165.017V148.414C100.859 139.023 108.487 131.411 117.896 131.411C127.305 131.411 134.932 139.023 134.932 148.414Z" fill="#1B1B1B"/>
<path d="M119.154 149.462H117C116.737 149.462 116.523 149.675 116.523 149.938V152.934C116.523 153.197 116.737 153.41 117 153.41H119.154C119.418 153.41 119.631 153.197 119.631 152.934V149.938C119.631 149.675 119.418 149.462 119.154 149.462Z" fill="white"/>
<path d="M123.372 151.058C123.372 152.137 121.008 152.28 118.094 152.28C115.18 152.28 112.816 152.137 112.816 151.058C112.816 149.978 115.18 148.615 118.094 148.615C121.008 148.615 123.372 149.978 123.372 151.058Z" fill="#FF6D2D"/>
<path d="M128.639 150.525C127.643 150.596 126.651 150.746 125.677 150.969C125.453 151.022 125.322 151.276 125.381 151.49C125.444 151.719 125.679 151.837 125.903 151.785C126.809 151.576 127.714 151.438 128.639 151.369C128.868 151.352 129.063 151.186 129.063 150.946C129.063 150.729 128.868 150.505 128.639 150.522V150.525Z" fill="white"/>
<path d="M128.748 152.955C127.776 152.722 126.787 152.566 125.791 152.484C125.562 152.466 125.367 152.692 125.367 152.908C125.367 153.153 125.562 153.312 125.791 153.331C126.713 153.407 127.618 153.555 128.524 153.771C128.746 153.823 128.984 153.699 129.046 153.476C129.108 153.253 128.974 153.01 128.75 152.955H128.748Z" fill="white"/>
<path d="M107.147 151.371C108.071 151.438 108.976 151.576 109.882 151.788C110.103 151.84 110.342 151.719 110.404 151.493C110.464 151.278 110.332 151.024 110.108 150.972C109.134 150.746 108.143 150.599 107.147 150.527C106.918 150.51 106.723 150.734 106.723 150.95C106.723 151.193 106.918 151.357 107.147 151.374V151.371Z" fill="white"/>
<path d="M107.264 153.771C108.167 153.555 109.073 153.405 109.997 153.331C110.226 153.312 110.421 153.15 110.421 152.908C110.421 152.694 110.226 152.466 109.997 152.484C109.001 152.566 108.012 152.722 107.04 152.955C106.818 153.01 106.685 153.26 106.745 153.476C106.806 153.702 107.042 153.826 107.266 153.771H107.264Z" fill="white"/>
<path d="M112.185 149.129C112.832 149.129 113.355 148.606 113.355 147.962C113.355 147.316 112.832 146.794 112.185 146.794C111.539 146.794 111.016 147.316 111.016 147.962C111.016 148.606 111.539 149.129 112.185 149.129Z" fill="white"/>
<path d="M123.67 149.129C124.317 149.129 124.84 148.606 124.84 147.962C124.84 147.316 124.317 146.794 123.67 146.794C123.024 146.794 122.5 147.316 122.5 147.962C122.5 148.606 123.024 149.129 123.67 149.129Z" fill="white"/>
<path d="M129.809 168.272C129.809 168.6 130.076 168.866 130.404 168.866C130.734 168.866 131 168.6 131 168.272V167.558C131 167.23 130.734 166.964 130.404 166.964C130.076 166.964 129.809 167.23 129.809 167.558V168.272Z" fill="#FF6D2D"/>
<path d="M132.668 167.557C132.668 167.229 132.401 166.963 132.072 166.963C131.743 166.963 131.477 167.229 131.477 167.557V168.27C131.477 168.599 131.743 168.865 132.072 168.865C132.401 168.865 132.668 168.599 132.668 168.27V167.557Z" fill="#FF6D2D"/>
<path d="M134.336 167.557C134.336 167.229 134.069 166.963 133.74 166.963C133.411 166.963 133.145 167.229 133.145 167.557V168.27C133.145 168.599 133.411 168.865 133.74 168.865C134.069 168.865 134.336 168.599 134.336 168.27V167.557Z" fill="#FF6D2D"/>
<path d="M110.213 166.353C110.12 168.701 107.018 168.734 103.279 168.589C99.5432 168.442 96.5886 168.173 96.6818 165.823C96.7745 163.476 99.8768 161.69 103.615 161.838C107.351 161.985 110.306 164.006 110.213 166.353Z" fill="#1B1B1B" stroke="#3F73F7" stroke-width="0.605333" stroke-miterlimit="10"/>
<path d="M101.184 168.104C101.184 168.433 101.451 168.698 101.779 168.698C102.109 168.698 102.375 168.433 102.375 168.104V167.391C102.375 167.062 102.109 166.796 101.779 166.796C101.451 166.796 101.184 167.062 101.184 167.391V168.104Z" fill="#FF6D2D"/>
<path d="M104.043 167.388C104.043 167.06 103.777 166.794 103.447 166.794C103.119 166.794 102.852 167.06 102.852 167.388V168.102C102.852 168.43 103.119 168.697 103.447 168.697C103.777 168.697 104.043 168.43 104.043 168.102V167.388Z" fill="#FF6D2D"/>
<path d="M105.711 167.388C105.711 167.06 105.444 166.794 105.115 166.794C104.786 166.794 104.52 167.06 104.52 167.388V168.102C104.52 168.43 104.786 168.697 105.115 168.697C105.444 168.697 105.711 168.43 105.711 168.102V167.388Z" fill="#FF6D2D"/>
<path d="M125.037 166.353C125.13 168.701 128.233 168.734 131.971 168.589C135.707 168.442 138.662 168.173 138.569 165.823C138.476 163.476 135.374 161.69 131.635 161.838C127.899 161.985 124.945 164.006 125.037 166.353Z" fill="#1B1B1B" stroke="#3F73F7" stroke-width="0.605333" stroke-miterlimit="10"/>
<path d="M129.539 168.104C129.539 168.433 129.806 168.698 130.135 168.698C130.464 168.698 130.73 168.433 130.73 168.104V167.391C130.73 167.062 130.464 166.796 130.135 166.796C129.806 166.796 129.539 167.062 129.539 167.391V168.104Z" fill="#FF6D2D"/>
<path d="M132.394 167.387C132.394 167.059 132.128 166.793 131.799 166.793C131.47 166.793 131.203 167.059 131.203 167.387V168.101C131.203 168.429 131.47 168.696 131.799 168.696C132.128 168.696 132.394 168.429 132.394 168.101V167.387Z" fill="#FF6D2D"/>
<path d="M134.062 167.387C134.062 167.059 133.796 166.793 133.467 166.793C133.138 166.793 132.871 167.059 132.871 167.387V168.101C132.871 168.429 133.138 168.696 133.467 168.696C133.796 168.696 134.062 168.429 134.062 168.101V167.387Z" fill="#FF6D2D"/>
<path d="M128.614 131.054H107.17C105.261 131.054 103.715 132.598 103.715 134.502C103.715 136.407 105.261 137.95 107.17 137.95H128.614C130.522 137.95 132.069 136.407 132.069 134.502C132.069 132.598 130.522 131.054 128.614 131.054Z" fill="#FF6D2D"/>
<path d="M115.596 115.33L108.889 131.562C108.286 133.02 109.36 134.62 110.94 134.62H124.352C125.932 134.62 127.006 133.02 126.404 131.562L119.699 115.33C118.943 113.503 116.351 113.503 115.596 115.33Z" fill="#FF6D2D"/>
<mask id="mask2_2340_130299" style="mask-type:luminance" maskUnits="userSpaceOnUse" x="108" y="113" width="19" height="22">
<path d="M115.596 115.33L108.889 131.562C108.286 133.02 109.36 134.62 110.94 134.62H124.352C125.932 134.62 127.006 133.02 126.404 131.562L119.699 115.33C118.943 113.503 116.351 113.503 115.596 115.33Z" fill="white"/>
</mask>
<g mask="url(#mask2_2340_130299)">
<path d="M125.13 114.058L105.527 125.354L107.791 129.267L127.394 117.971L125.13 114.058Z" fill="white"/>
<path d="M128.587 122.262L108.984 133.557L111.248 137.47L130.851 126.175L128.587 122.262Z" fill="white"/>
</g>
<path d="M217.47 207.182H19.5263C16.8517 207.182 14.6836 209.35 14.6836 212.024V233.816C14.6836 236.491 16.8517 238.659 19.5263 238.659H217.47C220.145 238.659 222.313 236.491 222.313 233.816V212.024C222.313 209.35 220.145 207.182 217.47 207.182Z" fill="#F3F3F3"/>
<path d="M27.9938 219.544V222.448H25.7143V224.32C26.6838 224.316 27.6012 224.282 28.7221 224.084L28.7788 224.699C27.5776 224.916 26.6223 224.935 25.5535 224.945H24.9954V221.833H27.2844V220.159H24.9766V219.544H27.9938ZM31.9001 218.607V227.016H31.1907V218.607H31.9001ZM30.1787 218.816V226.571H29.4787V222.249H28.4004V221.644H29.4787V218.816H30.1787ZM40.7815 225.313V225.937H33.0823V225.313H40.7815ZM37.3008 220.575C37.3008 221.965 38.6911 223.015 40.2896 223.299L39.987 223.904C38.6581 223.635 37.4474 222.907 36.9225 221.804C36.3881 222.907 35.1774 223.635 33.8484 223.904L33.5553 223.299C35.1443 223.015 36.5441 221.965 36.5441 220.575H33.8012V219.969H36.5536V218.816H37.2818V219.969H40.0437V220.575H37.3008ZM48.159 221.757V222.353H42.5123V219.109H48.0455V219.724H43.269V221.757H48.159ZM49.1426 223.469V224.074H45.6336V226.988H44.9053V224.074H41.4435V223.469H49.1426ZM54.1082 219.411V220.035H50.9965V224.32C52.5098 224.32 53.5123 224.269 54.6757 224.046L54.7703 224.661C53.5313 224.897 52.5098 224.954 50.8924 224.954H50.2492V219.411H54.1082ZM56.8038 218.607V227.035H56.0567V222.287H53.607V221.672H56.0567V218.607H56.8038ZM61.202 221.19C61.202 222.618 62.2424 224.065 63.4814 224.604L63.0653 225.19C62.0816 224.741 61.2303 223.772 60.8426 222.608C60.4453 223.842 59.5988 224.916 58.6388 225.399L58.1942 224.812C59.3955 224.235 60.4453 222.646 60.4548 221.19V220.092H58.4685V219.477H63.2071V220.092H61.202V221.19ZM65.1272 218.607V227.016H64.38V218.607H65.1272Z" fill="#202020"/>
</g>
</g>
<rect x="2.935" y="2.935" width="231.13" height="495.661" rx="26.825" stroke="#5387FF" stroke-width="4.13"/>
<defs>
<clipPath id="clip0_2340_130299">
<rect x="5" y="5" width="227" height="491.531" rx="24.76" fill="white"/>
</clipPath>
</defs>
</svg>
