<svg width="64" height="22" viewBox="0 0 64 22" fill="none" xmlns="http://www.w3.org/2000/svg">
<g id="Group 5">
<path id="Vector" d="M63.5518 10.3938C63.5518 13.5229 57.3165 16.2566 48.0252 17.7382C47.9492 17.7496 47.871 17.7632 47.7951 17.7746C44.5512 18.2814 40.941 18.6381 37.0985 18.8063C35.977 18.854 34.8354 18.8881 33.6759 18.9017C33.1375 18.9108 32.5969 18.9154 32.0518 18.9154C31.6206 18.9154 31.1894 18.9131 30.7627 18.9085C29.6144 18.8949 28.4818 18.8676 27.3692 18.8199C23.3569 18.6608 19.5925 18.2927 16.2258 17.7632C16.1767 17.7564 16.1275 17.7473 16.0784 17.7405C6.78474 16.2566 0.551758 13.5229 0.551758 10.3938C0.551758 6.86022 8.50718 3.82655 19.8382 2.53809C21.4713 2.34948 23.1781 2.19951 24.9408 2.09043C27.2262 1.94727 29.6077 1.87228 32.0518 1.87228C34.4958 1.87228 36.8751 1.94727 39.1582 2.09043C40.9231 2.19951 42.6299 2.34948 44.2653 2.53809C55.5963 3.82655 63.5518 6.86022 63.5518 10.3938Z" fill="#0040BF"/>
<g id="Group">
<path id="Vector_2" d="M48.0249 16.6429V17.7382C47.949 17.7496 47.8708 17.7632 47.7948 17.7746C44.551 18.2813 40.9408 18.6381 37.0982 18.8063C35.9767 18.854 34.8351 18.8881 33.6757 18.9017C33.1373 18.9108 32.5966 18.9153 32.0515 18.9153C31.6204 18.9153 31.1892 18.9131 30.7625 18.9085C29.6142 18.8949 28.4815 18.8676 27.369 18.8199C23.3566 18.6608 19.5923 18.2927 16.2256 17.7632C16.1764 17.7564 16.1273 17.7473 16.0781 17.7405V16.6429C16.0781 12.6549 17.49 9.00082 19.838 6.17394C21.2388 4.48327 22.9746 3.08574 24.9406 2.09042C27.0808 1.00648 29.4958 0.395205 32.0515 0.395205C34.6073 0.395205 37.0178 1.00421 39.158 2.09042C41.1262 3.08574 42.8621 4.48327 44.265 6.17394C46.6108 9.00082 48.0249 12.6549 48.0249 16.6429Z" fill="#1B1B1B"/>
<path id="Vector_3" d="M33.6759 18.0973V18.9017C33.1375 18.9108 32.5968 18.9153 32.0517 18.9153C31.6206 18.9153 31.1894 18.9131 30.7627 18.9085V18.0973C30.7627 17.8473 30.9638 17.6428 31.2095 17.6428H33.2291C33.4771 17.6428 33.6759 17.8473 33.6759 18.0973Z" fill="white"/>
<path id="Vector_4" d="M37.0979 18.8063C35.9764 18.854 34.8348 18.8881 33.6754 18.9017C33.137 18.9108 32.5963 18.9153 32.0512 18.9153C31.62 18.9153 31.1889 18.9131 30.7622 18.9085C29.6139 18.8949 28.4812 18.8676 27.3687 18.8199C27.7842 17.8655 29.806 16.8361 32.2366 16.8361C34.6673 16.8361 36.6712 17.8564 37.0979 18.8063Z" fill="#FF7336"/>
<g id="Group_2">
<path id="Vector_5" d="M26.699 17.3247C27.3048 17.3247 27.7959 16.8251 27.7959 16.2089C27.7959 15.5927 27.3048 15.0932 26.699 15.0932C26.0932 15.0932 25.6021 15.5927 25.6021 16.2089C25.6021 16.8251 26.0932 17.3247 26.699 17.3247Z" fill="white"/>
<path id="Vector_6" d="M37.4651 17.3247C38.0709 17.3247 38.562 16.8251 38.562 16.2089C38.562 15.5927 38.0709 15.0932 37.4651 15.0932C36.8593 15.0932 36.3682 15.5927 36.3682 16.2089C36.3682 16.8251 36.8593 17.3247 37.4651 17.3247Z" fill="white"/>
</g>
</g>
<g id="Group_3">
<g id="Group_4">
<path id="Vector_7" d="M25.1017 19.1767C25.0146 21.4196 22.1059 21.4514 18.6007 21.3128C15.0977 21.1719 12.3275 20.9151 12.4146 18.6699C12.5017 16.4271 15.4104 14.7205 18.9157 14.8614C22.4186 15.0023 25.1889 16.9338 25.1017 19.1767Z" fill="#1B1B1B"/>
<g id="Group_5">
<path id="Vector_8" d="M16.634 20.8469C16.634 21.1607 16.884 21.415 17.1925 21.415C17.5009 21.415 17.751 21.1607 17.751 20.8469V20.1652C17.751 19.8514 17.5009 19.5971 17.1925 19.5971C16.884 19.5971 16.634 19.8514 16.634 20.1652V20.8469Z" fill="#FF7336"/>
<path id="Vector_9" d="M19.3172 20.1652C19.3172 19.8514 19.0672 19.5971 18.7587 19.5971C18.4502 19.5971 18.2002 19.8514 18.2002 20.1652V20.8469C18.2002 21.1607 18.4502 21.415 18.7587 21.415C19.0672 21.415 19.3172 21.1607 19.3172 20.8469V20.1652Z" fill="#FF7336"/>
<path id="Vector_10" d="M20.8812 20.1652C20.8812 19.8514 20.6311 19.5971 20.3227 19.5971C20.0142 19.5971 19.7642 19.8514 19.7642 20.1652V20.8469C19.7642 21.1607 20.0142 21.415 20.3227 21.415C20.6311 21.415 20.8812 21.1607 20.8812 20.8469V20.1652Z" fill="#FF7336"/>
</g>
</g>
<g id="Group_6">
<path id="Vector_11" d="M38.9996 19.1767C39.0867 21.4196 41.9954 21.4514 45.5006 21.3128C49.0036 21.1719 51.7738 20.9151 51.6867 18.6699C51.5996 16.4271 48.6908 14.7205 45.1856 14.8614C41.6826 15.0023 38.9124 16.9338 38.9996 19.1767Z" fill="#1B1B1B"/>
<g id="Group_7">
<path id="Vector_12" d="M43.2199 20.8469C43.2199 21.1607 43.4699 21.415 43.7784 21.415C44.0869 21.415 44.3369 21.1607 44.3369 20.8469V20.1652C44.3369 19.8514 44.0869 19.5971 43.7784 19.5971C43.4699 19.5971 43.2199 19.8514 43.2199 20.1652V20.8469Z" fill="#FF7336"/>
<path id="Vector_13" d="M45.9032 20.1652C45.9032 19.8514 45.6531 19.5971 45.3446 19.5971C45.0362 19.5971 44.7861 19.8514 44.7861 20.1652V20.8469C44.7861 21.1607 45.0362 21.415 45.3446 21.415C45.6531 21.415 45.9032 21.1607 45.9032 20.8469V20.1652Z" fill="#FF7336"/>
<path id="Vector_14" d="M47.4666 20.1652C47.4666 19.8514 47.2166 19.5971 46.9081 19.5971C46.5997 19.5971 46.3496 19.8514 46.3496 20.1652V20.8469C46.3496 21.1607 46.5997 21.415 46.9081 21.415C47.2166 21.415 47.4666 21.1607 47.4666 20.8469V20.1652Z" fill="#FF7336"/>
</g>
</g>
</g>
</g>
</svg>
