<svg width="63" height="36" viewBox="0 0 63 36" fill="none" xmlns="http://www.w3.org/2000/svg">
<g id="Group 2351">
<path id="Vector" d="M0 24.3511C0 27.4273 6.23521 30.1149 15.5266 31.5715V17.1284C6.23521 18.5872 0 21.2748 0 24.3511Z" fill="#0040BF"/>
<path id="Vector_2" d="M62.9997 24.3511C62.9997 21.2748 56.7645 18.5872 47.4731 17.1306V31.5737C56.7645 30.1171 62.9997 27.4273 62.9997 24.3533V24.3511Z" fill="#0040BF"/>
<path id="Vector_3" d="M47.4737 15.9734V31.5715C42.7889 32.3065 37.3311 32.7287 31.5003 32.7287C25.6694 32.7287 20.2094 32.3065 15.5269 31.5715V15.9734C15.5269 7.15117 22.678 -9.53674e-07 31.5003 -9.53674e-07C40.3225 -9.53674e-07 47.4737 7.15117 47.4737 15.9734Z" fill="#1B1B1B"/>
<path id="Vector_4" d="M32.6798 16.9564H30.6602C30.4134 16.9564 30.2134 17.1564 30.2134 17.4032V20.2181C30.2134 20.4649 30.4134 20.6649 30.6602 20.6649H32.6798C32.9265 20.6649 33.1266 20.4649 33.1266 20.2181V17.4032C33.1266 17.1564 32.9265 16.9564 32.6798 16.9564Z" fill="white"/>
<path id="Vector_5" d="M36.6361 18.4577C36.6361 19.4719 34.4199 19.606 31.6877 19.606C28.9554 19.606 26.7393 19.4719 26.7393 18.4577C26.7393 17.4434 28.9554 16.1633 31.6877 16.1633C34.4199 16.1633 36.6361 17.4434 36.6361 18.4577Z" fill="#FF7336"/>
<path id="Vector_6" d="M41.5757 17.9572C40.6419 18.0243 39.7125 18.165 38.7988 18.375C38.5888 18.4241 38.4659 18.6632 38.5218 18.8643C38.5798 19.0787 38.801 19.1904 39.011 19.1413C39.86 18.9447 40.7089 18.8151 41.5757 18.7503C41.7902 18.7347 41.9734 18.5783 41.9734 18.3527C41.9734 18.1494 41.7902 17.9394 41.5757 17.955V17.9572Z" fill="white"/>
<path id="Vector_7" d="M41.6784 20.2404C40.7669 20.0215 39.8398 19.874 38.906 19.7981C38.6915 19.7802 38.5083 19.9924 38.5083 20.1957C38.5083 20.4259 38.6915 20.5755 38.906 20.5934C39.7705 20.6649 40.6195 20.8034 41.4684 21.0067C41.6762 21.0559 41.8996 20.9397 41.9577 20.7297C42.0157 20.5197 41.8906 20.2918 41.6806 20.2404H41.6784Z" fill="white"/>
<path id="Vector_8" d="M21.4245 18.7503C22.2913 18.8129 23.1403 18.9424 23.9892 19.1413C24.197 19.1904 24.4204 19.0765 24.4785 18.8643C24.5343 18.6632 24.4114 18.4241 24.2014 18.375C23.2877 18.1628 22.3583 18.0243 21.4245 17.9572C21.21 17.9416 21.0269 18.1516 21.0269 18.3549C21.0269 18.5828 21.21 18.7369 21.4245 18.7526V18.7503Z" fill="white"/>
<path id="Vector_9" d="M21.5316 21.0067C22.3783 20.8034 23.2272 20.6627 24.094 20.5934C24.3085 20.5755 24.4917 20.4236 24.4917 20.1957C24.4917 19.9947 24.3085 19.7802 24.094 19.7981C23.1602 19.874 22.2331 20.0215 21.3216 20.2404C21.1138 20.2918 20.9887 20.5264 21.0446 20.7297C21.1026 20.9419 21.3238 21.0581 21.5338 21.0067H21.5316Z" fill="white"/>
<path id="Vector_10" d="M26.1472 16.6436C26.753 16.6436 27.2441 16.1525 27.2441 15.5467C27.2441 14.9409 26.753 14.4498 26.1472 14.4498C25.5414 14.4498 25.0503 14.9409 25.0503 15.5467C25.0503 16.1525 25.5414 16.6436 26.1472 16.6436Z" fill="white"/>
<path id="Vector_11" d="M36.9133 16.6436C37.5191 16.6436 38.0102 16.1525 38.0102 15.5467C38.0102 14.9409 37.5191 14.4498 36.9133 14.4498C36.3075 14.4498 35.8164 14.9409 35.8164 15.5467C35.8164 16.1525 36.3075 16.6436 36.9133 16.6436Z" fill="white"/>
<path id="Vector_12" d="M24.55 32.9856C24.4628 35.1906 21.5541 35.2219 18.0489 35.0856C14.5459 34.9471 11.7757 34.6947 11.8628 32.4874C11.95 30.2824 14.8587 28.6047 18.3639 28.7432C21.8669 28.8817 24.6371 30.7806 24.55 32.9856Z" fill="#1B1B1B"/>
<path id="Vector_13" d="M16.085 34.6277C16.085 34.9361 16.3351 35.1862 16.6435 35.1862C16.952 35.1862 17.202 34.9361 17.202 34.6277V33.9574C17.202 33.649 16.952 33.3989 16.6435 33.3989C16.3351 33.3989 16.085 33.649 16.085 33.9574V34.6277Z" fill="#FF7336"/>
<path id="Vector_14" d="M18.7659 33.9574C18.7659 33.649 18.5159 33.3989 18.2074 33.3989C17.899 33.3989 17.6489 33.649 17.6489 33.9574V34.6277C17.6489 34.9361 17.899 35.1862 18.2074 35.1862C18.5159 35.1862 18.7659 34.9361 18.7659 34.6277V33.9574Z" fill="#FF7336"/>
<path id="Vector_15" d="M20.3299 33.9574C20.3299 33.649 20.0799 33.3989 19.7714 33.3989C19.4629 33.3989 19.2129 33.649 19.2129 33.9574V34.6277C19.2129 34.9361 19.4629 35.1862 19.7714 35.1862C20.0799 35.1862 20.3299 34.9361 20.3299 34.6277V33.9574Z" fill="#FF7336"/>
<path id="Vector_16" d="M38.4502 32.9856C38.5374 35.1906 41.4461 35.2219 44.9513 35.0856C48.4543 34.9471 51.2245 34.6947 51.1374 32.4874C51.0502 30.2824 48.1415 28.6047 44.6363 28.7432C41.1333 28.8817 38.3631 30.7806 38.4502 32.9856Z" fill="#1B1B1B"/>
<path id="Vector_17" d="M42.6699 34.6277C42.6699 34.9361 42.9199 35.1862 43.2284 35.1862C43.5369 35.1862 43.7869 34.9361 43.7869 34.6277V33.9574C43.7869 33.649 43.5369 33.3989 43.2284 33.3989C42.9199 33.3989 42.6699 33.649 42.6699 33.9574V34.6277Z" fill="#FF7336"/>
<path id="Vector_18" d="M45.3509 33.9574C45.3509 33.649 45.1009 33.3989 44.7924 33.3989C44.4839 33.3989 44.2339 33.649 44.2339 33.9574V34.6277C44.2339 34.9361 44.4839 35.1862 44.7924 35.1862C45.1009 35.1862 45.3509 34.9361 45.3509 34.6277V33.9574Z" fill="#FF7336"/>
<path id="Vector_19" d="M46.9149 33.9574C46.9149 33.649 46.6647 33.3989 46.3563 33.3989C46.0478 33.3989 45.7979 33.649 45.7979 33.9574V34.6277C45.7979 34.9361 46.0478 35.1862 46.3563 35.1862C46.6647 35.1862 46.9149 34.9361 46.9149 34.6277V33.9574Z" fill="#FF7336"/>
</g>
</svg>
