<svg width="64" height="20" viewBox="0 0 64 20" fill="none" xmlns="http://www.w3.org/2000/svg">
<g id="Group 6">
<path id="Vector" d="M63.709 8.63033C63.709 11.7312 57.371 14.4388 47.9523 15.8865C43.3211 16.5992 37.9438 17.008 32.209 17.008C26.4742 17.008 21.0321 16.5947 16.383 15.8753C7.00899 14.4232 0.708984 11.7222 0.708984 8.63033C0.708984 4.00363 14.8125 0.252672 32.209 0.252672C49.6055 0.252672 63.709 4.00363 63.709 8.63033Z" fill="#0040BF"/>
<path id="Vector_2" d="M47.9521 15.8865C43.3209 16.5992 37.9436 17.008 32.2088 17.008C26.474 17.008 21.0319 16.5947 16.3828 15.8753C17.5713 8.2282 24.1841 2.37501 32.1663 2.37501C40.1486 2.37501 46.768 8.23267 47.9521 15.8865Z" fill="#1B1B1B"/>
<g id="Group">
<g id="Group_2">
<path id="Vector_3" d="M25.2155 17.2649C25.1284 19.4699 22.2196 19.5012 18.7144 19.3649C15.2115 19.2264 12.4412 18.9739 12.5284 16.7667C12.6155 14.5617 15.5242 12.8839 19.0294 13.0224C22.5324 13.161 25.3026 15.0599 25.2155 17.2649Z" fill="#1B1B1B"/>
<g id="Group_3">
<path id="Vector_4" d="M16.7507 18.9069C16.7507 19.2154 17.0007 19.4654 17.3092 19.4654C17.6176 19.4654 17.8677 19.2154 17.8677 18.9069V18.2367C17.8677 17.9282 17.6176 17.6782 17.3092 17.6782C17.0007 17.6782 16.7507 17.9282 16.7507 18.2367V18.9069Z" fill="#FF7336"/>
<path id="Vector_5" d="M19.4295 18.2367C19.4295 17.9282 19.1795 17.6782 18.871 17.6782C18.5626 17.6782 18.3125 17.9282 18.3125 18.2367V18.9069C18.3125 19.2154 18.5626 19.4654 18.871 19.4654C19.1795 19.4654 19.4295 19.2154 19.4295 18.9069V18.2367Z" fill="#FF7336"/>
<path id="Vector_6" d="M20.993 18.2367C20.993 17.9282 20.7429 17.6782 20.4345 17.6782C20.126 17.6782 19.876 17.9282 19.876 18.2367V18.9069C19.876 19.2154 20.126 19.4654 20.4345 19.4654C20.7429 19.4654 20.993 19.2154 20.993 18.9069V18.2367Z" fill="#FF7336"/>
</g>
</g>
<g id="Group_4">
<path id="Vector_7" d="M39.1138 17.2649C39.2009 19.4699 42.1097 19.5012 45.6149 19.3649C49.1179 19.2264 51.8881 18.9739 51.8009 16.7667C51.7138 14.5617 48.8051 12.8839 45.2999 13.0224C41.7969 13.161 39.0267 15.0599 39.1138 17.2649Z" fill="#1B1B1B"/>
<g id="Group_5">
<path id="Vector_8" d="M43.3366 18.9069C43.3366 19.2154 43.5866 19.4654 43.8951 19.4654C44.2036 19.4654 44.4536 19.2154 44.4536 18.9069V18.2367C44.4536 17.9282 44.2036 17.6782 43.8951 17.6782C43.5866 17.6782 43.3366 17.9282 43.3366 18.2367V18.9069Z" fill="#FF7336"/>
<path id="Vector_9" d="M46.0155 18.2367C46.0155 17.9282 45.7654 17.6782 45.4569 17.6782C45.1485 17.6782 44.8984 17.9282 44.8984 18.2367V18.9069C44.8984 19.2154 45.1485 19.4654 45.4569 19.4654C45.7654 19.4654 46.0155 19.2154 46.0155 18.9069V18.2367Z" fill="#FF7336"/>
<path id="Vector_10" d="M47.5789 18.2367C47.5789 17.9282 47.3289 17.6782 47.0204 17.6782C46.712 17.6782 46.4619 17.9282 46.4619 18.2367V18.9069C46.4619 19.2154 46.712 19.4654 47.0204 19.4654C47.3289 19.4654 47.5789 19.2154 47.5789 18.9069V18.2367Z" fill="#FF7336"/>
</g>
</g>
</g>
</g>
</svg>
