<svg width="159" height="54" viewBox="0 0 159 54" fill="none" xmlns="http://www.w3.org/2000/svg">
<g id="&#235;&#145;&#144;&#235;&#141;&#148;&#236;&#167;&#128; &#235;&#161;&#156;&#234;&#179;&#160;" clip-path="url(#clip0_2322_68108)">
<path id="Vector" d="M2.76228 10.9476H3.95539C3.68111 12.8333 3.54397 14.4653 3.54397 15.8161C3.54397 19.6423 4.55881 23.1051 6.5542 26.1016C8.09702 28.3918 10.641 30.0924 14.1106 31.1552C17.3951 32.1563 21.2076 32.6638 25.4589 32.6638C29.1343 32.6638 32.9193 32.314 36.7113 31.6215C40.51 30.9289 43.9591 30.0101 46.9625 28.8855C47.5316 28.673 47.9087 28.1313 47.9087 27.5279V19.4983C47.9087 18.984 47.6413 18.5109 47.1956 18.2503C46.7499 17.9898 46.2082 17.9761 45.7625 18.2229C43.3968 19.5052 40.2495 20.5543 36.3958 21.336C32.4942 22.1246 28.6611 22.5223 24.9995 22.5223C22.4487 22.5223 20.2476 22.3028 18.4648 21.8708C16.4557 21.384 15.7769 20.7463 15.5369 20.3897C14.7483 19.2378 14.3437 17.7018 14.3437 15.8161C14.3437 14.6024 14.5083 12.9705 14.8374 10.9476H46.455C47.2573 10.9476 47.9087 10.2962 47.9087 9.49397V2.25984C47.9087 1.45757 47.2573 0.806152 46.455 0.806152H2.76228C1.96001 0.806152 1.30859 1.45757 1.30859 2.25984V9.50082C1.30859 10.3031 1.96001 10.9545 2.76228 10.9545V10.9476Z" fill="white"/>
<path id="Vector_2" d="M51.9897 33.7815H1.45368C0.651415 33.7815 0 34.4329 0 35.2352V42.4762C0 43.2784 0.651415 43.9298 1.45368 43.9298H21.3184V52.1514C21.3184 52.9536 21.9698 53.6051 22.7721 53.6051H30.6713C31.4736 53.6051 32.125 52.9536 32.125 52.1514V43.9298H51.9897C52.792 43.9298 53.4434 43.2784 53.4434 42.4762V35.2352C53.4434 34.4329 52.792 33.7815 51.9897 33.7815Z" fill="white"/>
<path id="Vector_3" d="M92.6646 37.6351C92.2532 37.3677 91.7321 37.3265 91.2795 37.5254C87.6042 39.1711 84.5391 40.4122 82.1529 41.2281C79.8832 42.003 77.8398 42.4007 76.0776 42.4007C74.3153 42.4007 73.0056 41.9756 71.7988 41.0979C70.5714 40.2065 69.4948 38.6842 68.6103 36.6065C67.8492 34.6797 67.4583 32.3346 67.4583 29.6398C67.4583 25.0251 68.528 19.1006 70.64 12.0036H88.4476C89.2499 12.0036 89.9013 11.3522 89.9013 10.55V3.30897C89.9013 2.5067 89.2499 1.85529 88.4476 1.85529H56.7271C55.9249 1.85529 55.2734 2.5067 55.2734 3.30897V10.55C55.2734 11.3522 55.9249 12.0036 56.7271 12.0036H59.4219C57.6322 18.6138 56.7271 24.4559 56.7271 29.3724C56.7271 33.5826 57.3854 37.3128 58.6814 40.467C62.0276 48.4349 67.7257 52.4805 75.6181 52.4805C80.0889 52.4805 85.7528 51.0474 92.4384 48.2223C92.9732 47.996 93.3229 47.468 93.3229 46.8852V38.8556C93.3229 38.3619 93.0761 37.9025 92.6578 37.6351H92.6646Z" fill="white"/>
<path id="Vector_4" d="M104.403 0.147888H96.5033C95.701 0.147888 95.0496 0.799303 95.0496 1.60157V19.9577H81.3013C80.4991 19.9577 79.8477 20.6092 79.8477 21.4114V29.3107C79.8477 30.113 80.4991 30.7644 81.3013 30.7644H95.0496V52.1513C95.0496 52.9536 95.701 53.605 96.5033 53.605H104.403C105.205 53.605 105.856 52.9536 105.856 52.1513V1.60157C105.856 0.799303 105.205 0.147888 104.403 0.147888Z" fill="white"/>
<path id="Vector_5" d="M158.233 0.147888H150.34C149.538 0.147888 148.887 0.798724 148.887 1.60157V52.1445C148.887 52.9473 149.538 53.5982 150.34 53.5982H158.233C159.036 53.5982 159.686 52.9473 159.686 52.1445V1.60157C159.686 0.798724 159.036 0.147888 158.233 0.147888Z" fill="white"/>
<path id="Vector_6" d="M140.651 26.0879C142.27 20.3006 143.511 13.567 144.34 6.09291C144.471 5.22207 144.601 4.36495 144.731 3.53525C144.8 3.11697 144.676 2.68498 144.402 2.3627C144.128 2.04042 143.723 1.85529 143.298 1.85529H114.074C113.271 1.85529 112.62 2.5067 112.62 3.30897V10.55C112.62 11.3522 113.271 12.0036 114.074 12.0036H132.635C131.943 16.0836 131.134 19.8412 130.229 23.208C128.261 23.1737 126.018 23.3245 123.543 23.6605C120.307 24.1337 117.53 25.1554 115.287 26.6982C113.038 28.2547 111.331 30.1335 110.22 32.2935C109.109 34.4466 108.547 36.7162 108.547 39.0476C108.547 41.0567 108.972 42.963 109.809 44.7115C110.666 46.508 111.955 47.9617 113.628 49.0314C115.308 50.1011 117.296 50.6428 119.539 50.6428C120.272 50.6428 120.828 50.6154 121.225 50.5674C127.074 49.8543 131.998 45.8223 135.893 38.5608C135.906 38.7871 135.92 39.0202 135.92 39.2602C135.92 41.1664 135.461 43.2784 134.542 45.5275C133.602 47.8451 132.567 49.7857 131.456 51.3011C131.134 51.7399 131.086 52.3296 131.333 52.8165C131.58 53.3033 132.08 53.6119 132.629 53.6119H141.844C142.386 53.6119 142.887 53.3102 143.134 52.8233C144.1 50.9445 144.91 48.7434 145.554 46.2749C146.199 43.7927 146.521 41.3242 146.521 38.9379C146.521 33.082 144.546 28.7758 140.644 26.1085L140.651 26.0879ZM126.615 33.466C124.531 37.7859 122.254 40.1859 119.95 40.4327C119.737 40.4602 119.696 40.419 119.607 40.3025C119.388 40.0145 119.278 39.5893 119.278 39.0408C119.278 37.9025 119.744 36.8122 120.697 35.7151C121.657 34.6111 123.07 33.9323 124.983 33.6375C125.573 33.562 126.114 33.5072 126.615 33.4592V33.466Z" fill="white"/>
</g>
<defs>
<clipPath id="clip0_2322_68108">
<rect width="159" height="53.4503" fill="white" transform="translate(0 0.147888)"/>
</clipPath>
</defs>
</svg>
