<svg width="118" height="40" viewBox="0 0 118 40" fill="none" xmlns="http://www.w3.org/2000/svg">
<g id="&#235;&#145;&#144;&#235;&#141;&#148;&#236;&#167;&#128; &#235;&#161;&#156;&#234;&#179;&#160;" clip-path="url(#clip0_2322_67175)">
<path id="Vector" d="M2.05149 8.01492H2.93695C2.73339 9.41435 2.63162 10.6255 2.63162 11.628C2.63162 14.4676 3.38477 17.0374 4.86562 19.2613C6.01061 20.9609 7.89857 22.223 10.4735 23.0117C12.9111 23.7547 15.7405 24.1313 18.8955 24.1313C21.6232 24.1313 24.4322 23.8717 27.2463 23.3578C30.0655 22.8438 32.6252 22.1619 34.8541 21.3273C35.2765 21.1696 35.5564 20.7675 35.5564 20.3197V14.3607C35.5564 13.979 35.3579 13.6279 35.0272 13.4345C34.6964 13.2412 34.2944 13.231 33.9636 13.4142C32.2079 14.3658 29.8722 15.1444 27.0122 15.7245C24.1167 16.3097 21.272 16.6049 18.5546 16.6049C16.6615 16.6049 15.028 16.442 13.7049 16.1214C12.2139 15.7601 11.7101 15.2869 11.532 15.0223C10.9468 14.1673 10.6465 13.0274 10.6465 11.628C10.6465 10.7273 10.7687 9.51613 11.0129 8.01492H34.4776C35.073 8.01492 35.5564 7.53148 35.5564 6.93608V1.56736C35.5564 0.971965 35.073 0.488525 34.4776 0.488525H2.05149C1.4561 0.488525 0.972656 0.971965 0.972656 1.56736V6.94117C0.972656 7.53657 1.4561 8.02001 2.05149 8.02001V8.01492Z" fill="#3F73F7"/>
<path id="Vector_2" d="M38.5836 24.9608H1.07883C0.48344 24.9608 0 25.4442 0 26.0396V31.4134C0 32.0088 0.48344 32.4922 1.07883 32.4922H15.8212V38.5938C15.8212 39.1891 16.3046 39.6726 16.9 39.6726H22.7624C23.3578 39.6726 23.8412 39.1891 23.8412 38.5938V32.4922H38.5836C39.179 32.4922 39.6624 32.0088 39.6624 31.4134V26.0396C39.6624 25.4442 39.179 24.9608 38.5836 24.9608Z" fill="#3F73F7"/>
<path id="Vector_3" d="M68.769 27.8207C68.4636 27.6222 68.0769 27.5917 67.741 27.7392C65.0134 28.9606 62.7387 29.8816 60.9678 30.4872C59.2834 31.0622 57.7669 31.3574 56.4591 31.3574C55.1512 31.3574 54.1793 31.0419 53.2836 30.3905C52.3727 29.729 51.5738 28.5992 50.9173 27.0573C50.3525 25.6274 50.0624 23.887 50.0624 21.8871C50.0624 18.4623 50.8563 14.0655 52.4236 8.79857H65.6393C66.2347 8.79857 66.7182 8.31513 66.7182 7.71974V2.34592C66.7182 1.75053 66.2347 1.26709 65.6393 1.26709H42.0984C41.503 1.26709 41.0195 1.75053 41.0195 2.34592V7.71974C41.0195 8.31513 41.503 8.79857 42.0984 8.79857H44.0983C42.7701 13.7042 42.0984 18.0399 42.0984 21.6886C42.0984 24.8131 42.5869 27.5815 43.5487 29.9223C46.032 35.8356 50.2609 38.838 56.1181 38.838C59.436 38.838 63.6394 37.7744 68.601 35.6778C68.998 35.5099 69.2575 35.118 69.2575 34.6855V28.7265C69.2575 28.3601 69.0743 28.0191 68.7639 27.8207H68.769Z" fill="#3F73F7"/>
<path id="Vector_4" d="M77.4809 0H71.6186C71.0232 0 70.5398 0.48344 70.5398 1.07883V14.7017H60.3366C59.7413 14.7017 59.2578 15.1851 59.2578 15.7805V21.6428C59.2578 22.2382 59.7413 22.7217 60.3366 22.7217H70.5398V38.5938C70.5398 39.1891 71.0232 39.6726 71.6186 39.6726H77.4809C78.0763 39.6726 78.5598 39.1891 78.5598 38.5938V1.07883C78.5598 0.48344 78.0763 0 77.4809 0Z" fill="#3F73F7"/>
<path id="Vector_5" d="M117.428 0H111.571C110.975 0 110.492 0.48301 110.492 1.07883V38.5887C110.492 39.1845 110.975 39.6675 111.571 39.6675H117.428C118.024 39.6675 118.507 39.1845 118.507 38.5887V1.07883C118.507 0.48301 118.024 0 117.428 0Z" fill="#3F73F7"/>
<path id="Vector_6" d="M104.385 19.251C105.585 14.9561 106.507 9.95883 107.122 4.41199C107.219 3.76571 107.316 3.1296 107.412 2.51386C107.463 2.20344 107.372 1.88284 107.168 1.64366C106.965 1.40449 106.664 1.26709 106.349 1.26709H84.6602C84.0648 1.26709 83.5814 1.75053 83.5814 2.34592V7.71974C83.5814 8.31513 84.0648 8.79857 84.6602 8.79857H98.4357C97.9217 11.8264 97.3212 14.6151 96.6495 17.1137C95.189 17.0883 93.525 17.2002 91.6879 17.4496C89.2859 17.8007 87.225 18.559 85.5609 19.704C83.8918 20.8591 82.6247 22.2535 81.8003 23.8564C80.9759 25.4543 80.5586 27.1387 80.5586 28.869C80.5586 30.36 80.8741 31.7747 81.4949 33.0723C82.131 34.4056 83.0877 35.4844 84.3294 36.2783C85.5762 37.0722 87.052 37.4742 88.716 37.4742C89.2605 37.4742 89.6727 37.4538 89.9679 37.4182C94.3086 36.889 97.9624 33.8967 100.853 28.5076C100.863 28.6756 100.873 28.8486 100.873 29.0267C100.873 30.4414 100.532 32.0088 99.8504 33.6779C99.1532 35.3979 98.3848 36.8381 97.5604 37.9627C97.3212 38.2884 97.2856 38.726 97.4688 39.0873C97.652 39.4486 98.0235 39.6776 98.4306 39.6776H105.27C105.672 39.6776 106.044 39.4537 106.227 39.0924C106.944 37.6981 107.545 36.0646 108.023 34.2326C108.501 32.3904 108.741 30.5584 108.741 28.7875C108.741 24.4417 107.275 21.2459 104.379 19.2663L104.385 19.251ZM93.9677 24.7266C92.4207 27.9326 90.7312 29.7137 89.0213 29.8969C88.8636 29.9173 88.833 29.8867 88.7669 29.8002C88.604 29.5865 88.5226 29.271 88.5226 28.8639C88.5226 28.0191 88.8687 27.21 89.576 26.3958C90.2885 25.5765 91.3368 25.0727 92.7565 24.8539C93.1942 24.7979 93.5962 24.7572 93.9677 24.7215V24.7266Z" fill="#3F73F7"/>
</g>
<defs>
<clipPath id="clip0_2322_67175">
<rect width="118" height="39.6675" fill="white"/>
</clipPath>
</defs>
</svg>
