<svg width="195" height="66" viewBox="0 0 195 66" fill="none" xmlns="http://www.w3.org/2000/svg">
<g id="&#235;&#145;&#144;&#235;&#141;&#148;&#236;&#167;&#128; &#235;&#161;&#156;&#234;&#179;&#160;" clip-path="url(#clip0_301_2704)">
<path id="Vector" d="M3.38926 13.2448H4.85252C4.51614 15.5574 4.34795 17.5589 4.34795 19.2156C4.34795 23.9081 5.59256 28.1549 8.03973 31.8299C9.93187 34.6386 13.0518 36.7242 17.307 38.0277C21.3352 39.2555 26.0109 39.8778 31.2248 39.8778C35.7323 39.8778 40.3743 39.4489 45.0248 38.5995C49.6837 37.7502 53.9137 36.6233 57.597 35.2441C58.295 34.9834 58.7576 34.3191 58.7576 33.579V23.7315C58.7576 23.1008 58.4296 22.5205 57.883 22.201C57.3363 21.8814 56.672 21.8646 56.1254 22.1673C53.2241 23.7399 49.3641 25.0266 44.638 25.9852C39.853 26.9523 35.152 27.4401 30.6613 27.4401C27.533 27.4401 24.8335 27.171 22.6471 26.6412C20.1831 26.0441 19.3505 25.262 19.0562 24.8247C18.0891 23.4119 17.5929 21.5282 17.5929 19.2156C17.5929 17.7271 17.7948 15.7256 18.1984 13.2448H56.9747C57.9586 13.2448 58.7576 12.4459 58.7576 11.462V2.58995C58.7576 1.60603 57.9586 0.807129 56.9747 0.807129H3.38926C2.40535 0.807129 1.60645 1.60603 1.60645 2.58995V11.4704C1.60645 12.4543 2.40535 13.2532 3.38926 13.2532V13.2448Z" fill="white"/>
<path id="Vector_2" d="M63.761 41.2485H1.78282C0.798905 41.2485 0 42.0474 0 43.0314V51.9118C0 52.8957 0.798905 53.6946 1.78282 53.6946H26.1452V63.7776C26.1452 64.7616 26.9441 65.5605 27.928 65.5605H37.6158C38.5997 65.5605 39.3986 64.7616 39.3986 63.7776V53.6946H63.761C64.7449 53.6946 65.5438 52.8957 65.5438 51.9118V43.0314C65.5438 42.0474 64.7449 41.2485 63.761 41.2485Z" fill="white"/>
<path id="Vector_3" d="M113.646 45.9751C113.142 45.6472 112.502 45.5967 111.947 45.8406C107.44 47.8589 103.681 49.381 100.754 50.3817C97.9708 51.332 95.4648 51.8197 93.3035 51.8197C91.1423 51.8197 89.5361 51.2984 88.056 50.2219C86.5507 49.1287 85.2304 47.2618 84.1456 44.7137C83.2121 42.3506 82.7328 39.4746 82.7328 36.1696C82.7328 30.51 84.0447 23.2442 86.6348 14.5403H108.474C109.458 14.5403 110.257 13.7414 110.257 12.7575V3.87706C110.257 2.89314 109.458 2.09424 108.474 2.09424H69.5719C68.588 2.09424 67.7891 2.89314 67.7891 3.87706V12.7575C67.7891 13.7414 68.588 14.5403 69.5719 14.5403H72.8768C70.6819 22.6471 69.5719 29.812 69.5719 35.8416C69.5719 41.0051 70.3792 45.5799 71.9686 49.4483C76.0724 59.2201 83.0608 64.1817 92.7401 64.1817C98.2231 64.1817 105.169 62.4242 113.369 58.9594C114.025 58.6819 114.454 58.0344 114.454 57.3196V47.472C114.454 46.8665 114.151 46.3031 113.638 45.9751H113.646Z" fill="white"/>
<path id="Vector_4" d="M128.044 0H118.356C117.372 0 116.573 0.798904 116.573 1.78282V24.2951H99.712C98.7281 24.2951 97.9292 25.094 97.9292 26.0779V35.7657C97.9292 36.7496 98.7281 37.5485 99.712 37.5485H116.573V63.7778C116.573 64.7617 117.372 65.5606 118.356 65.5606H128.044C129.028 65.5606 129.827 64.7617 129.827 63.7778V1.78282C129.827 0.798904 129.028 0 128.044 0Z" fill="white"/>
<path id="Vector_5" d="M194.058 0H184.379C183.394 0 182.596 0.798195 182.596 1.78282V63.7694C182.596 64.754 183.394 65.5522 184.379 65.5522H194.058C195.042 65.5522 195.841 64.754 195.841 63.7694V1.78282C195.841 0.798195 195.042 0 194.058 0Z" fill="white"/>
<path id="Vector_6" d="M172.496 31.8135C174.481 24.7159 176.003 16.4577 177.02 7.29132C177.18 6.22331 177.34 5.17212 177.5 4.15457C177.584 3.64159 177.432 3.11179 177.096 2.71654C176.76 2.3213 176.263 2.09424 175.742 2.09424H139.901C138.917 2.09424 138.118 2.89314 138.118 3.87706V12.7575C138.118 13.7414 138.917 14.5403 139.901 14.5403H162.665C161.816 19.544 160.824 24.1524 159.713 28.2815C157.3 28.2394 154.55 28.4245 151.514 28.8365C147.545 29.4168 144.139 30.6698 141.389 32.5619C138.631 34.4709 136.537 36.7751 135.174 39.4241C133.812 42.0647 133.123 44.8482 133.123 47.7075C133.123 50.1715 133.644 52.5093 134.67 54.6537C135.721 56.857 137.302 58.6399 139.354 59.9518C141.414 61.2636 143.853 61.928 146.603 61.928C147.503 61.928 148.184 61.8944 148.672 61.8355C155.845 60.9609 161.883 56.0161 166.66 47.1104C166.677 47.3879 166.693 47.6738 166.693 47.9682C166.693 50.306 166.13 52.8962 165.003 55.6545C163.851 58.4969 162.581 60.8768 161.219 62.7353C160.824 63.2735 160.765 63.9967 161.067 64.5938C161.37 65.1909 161.984 65.5693 162.657 65.5693H173.959C174.624 65.5693 175.237 65.1993 175.54 64.6022C176.726 62.298 177.718 59.5985 178.509 56.5711C179.299 53.5269 179.694 50.4994 179.694 47.5729C179.694 40.3912 177.273 35.11 172.488 31.8387L172.496 31.8135ZM155.282 40.8621C152.725 46.1601 149.933 49.1035 147.108 49.4062C146.847 49.4398 146.796 49.3894 146.687 49.2464C146.418 48.8932 146.283 48.3718 146.283 47.6991C146.283 46.3031 146.855 44.966 148.024 43.6205C149.202 42.2665 150.934 41.434 153.28 41.0724C154.003 40.9799 154.668 40.9126 155.282 40.8537V40.8621Z" fill="white"/>
</g>
<defs>
<clipPath id="clip0_301_2704">
<rect width="195" height="65.5522" fill="white"/>
</clipPath>
</defs>
</svg>
