<svg width="118" height="40" viewBox="0 0 118 40" fill="none" xmlns="http://www.w3.org/2000/svg">
<g id="&#235;&#145;&#144;&#235;&#141;&#148;&#236;&#167;&#128; &#235;&#161;&#156;&#234;&#179;&#160;" clip-path="url(#clip0_615_40849)">
<path id="Vector" d="M2.051 8.01492H2.93646C2.73291 9.41435 2.63113 10.6255 2.63113 11.628C2.63113 14.4676 3.38428 17.0374 4.86513 19.2613C6.01012 20.9609 7.89808 22.223 10.473 23.0117C12.9106 23.7547 15.74 24.1313 18.8951 24.1313C21.6227 24.1313 24.4317 23.8717 27.2458 23.3578C30.0651 22.8438 32.6247 22.1619 34.8537 21.3273C35.276 21.1696 35.5559 20.7675 35.5559 20.3197V14.3607C35.5559 13.979 35.3575 13.6279 35.0267 13.4345C34.6959 13.2412 34.2939 13.231 33.9631 13.4142C32.2075 14.3658 29.8717 15.1444 27.0118 15.7245C24.1162 16.3097 21.2715 16.6049 18.5541 16.6049C16.6611 16.6049 15.0275 16.442 13.7044 16.1214C12.2134 15.7601 11.7096 15.2869 11.5315 15.0223C10.9463 14.1673 10.6461 13.0274 10.6461 11.628C10.6461 10.7273 10.7682 9.51613 11.0124 8.01492H34.4771C35.0725 8.01492 35.5559 7.53148 35.5559 6.93608V1.56736C35.5559 0.971965 35.0725 0.488525 34.4771 0.488525H2.051C1.45561 0.488525 0.972168 0.971965 0.972168 1.56736V6.94117C0.972168 7.53657 1.45561 8.02001 2.051 8.02001V8.01492Z" fill="#FF6D2D"/>
<path id="Vector_2" d="M38.5836 24.9607H1.07883C0.48344 24.9607 0 25.4441 0 26.0395V31.4133C0 32.0087 0.48344 32.4922 1.07883 32.4922H15.8212V38.5937C15.8212 39.1891 16.3046 39.6725 16.9 39.6725H22.7624C23.3578 39.6725 23.8412 39.1891 23.8412 38.5937V32.4922H38.5836C39.179 32.4922 39.6624 32.0087 39.6624 31.4133V26.0395C39.6624 25.4441 39.179 24.9607 38.5836 24.9607Z" fill="#3F73F7"/>
<path id="Vector_3" d="M68.7704 27.8207C68.4651 27.6222 68.0784 27.5917 67.7425 27.7392C65.0149 28.9606 62.7402 29.8816 60.9692 30.4872C59.2848 31.0622 57.7684 31.3574 56.4605 31.3574C55.1527 31.3574 54.1807 31.0419 53.2851 30.3905C52.3742 29.729 51.5752 28.5992 50.9188 27.0573C50.3539 25.6274 50.0639 23.887 50.0639 21.8871C50.0639 18.4623 50.8577 14.0655 52.4251 8.79857H65.6408C66.2362 8.79857 66.7196 8.31513 66.7196 7.71974V2.34592C66.7196 1.75053 66.2362 1.26709 65.6408 1.26709H42.0998C41.5044 1.26709 41.021 1.75053 41.021 2.34592V7.71974C41.021 8.31513 41.5044 8.79857 42.0998 8.79857H44.0997C42.7716 13.7042 42.0998 18.0399 42.0998 21.6886C42.0998 24.8131 42.5884 27.5815 43.5501 29.9223C46.0335 35.8356 50.2623 38.838 56.1196 38.838C59.4375 38.838 63.6409 37.7744 68.6025 35.6778C68.9994 35.5099 69.259 35.118 69.259 34.6855V28.7265C69.259 28.3601 69.0758 28.0191 68.7653 27.8207H68.7704Z" fill="#3F73F7"/>
<path id="Vector_4" d="M77.4829 0H71.6206C71.0252 0 70.5417 0.48344 70.5417 1.07883V14.7017H60.3386C59.7432 14.7017 59.2598 15.1851 59.2598 15.7805V21.6428C59.2598 22.2382 59.7432 22.7217 60.3386 22.7217H70.5417V38.5938C70.5417 39.1891 71.0252 39.6726 71.6206 39.6726H77.4829C78.0783 39.6726 78.5617 39.1891 78.5617 38.5938V1.07883C78.5617 0.48344 78.0783 0 77.4829 0Z" fill="#FF6D2D"/>
<path id="Vector_5" d="M117.43 0H111.573C110.977 0 110.494 0.48301 110.494 1.07883V38.5887C110.494 39.1845 110.977 39.6675 111.573 39.6675H117.43C118.026 39.6675 118.509 39.1845 118.509 38.5887V1.07883C118.509 0.48301 118.026 0 117.43 0Z" fill="#FF6D2D"/>
<path id="Vector_6" d="M104.382 19.251C105.583 14.9561 106.504 9.95883 107.12 4.41199C107.217 3.76571 107.313 3.1296 107.41 2.51386C107.461 2.20344 107.369 1.88284 107.166 1.64366C106.962 1.40449 106.662 1.26709 106.346 1.26709H84.6578C84.0624 1.26709 83.5789 1.75053 83.5789 2.34592V7.71974C83.5789 8.31513 84.0624 8.79857 84.6578 8.79857H98.4332C97.9193 11.8264 97.3188 14.6151 96.6471 17.1137C95.1866 17.0883 93.5225 17.2002 91.6854 17.4496C89.2835 17.8007 87.2225 18.559 85.5585 19.704C83.8893 20.8591 82.6222 22.2535 81.7978 23.8564C80.9734 25.4543 80.5562 27.1387 80.5562 28.869C80.5562 30.36 80.8717 31.7747 81.4925 33.0723C82.1286 34.4056 83.0853 35.4844 84.327 36.2783C85.5737 37.0722 87.0495 37.4742 88.7136 37.4742C89.2581 37.4742 89.6703 37.4538 89.9654 37.4182C94.3062 36.889 97.96 33.8967 100.85 28.5076C100.861 28.6756 100.871 28.8486 100.871 29.0267C100.871 30.4414 100.53 32.0088 99.8479 33.6779C99.1508 35.3979 98.3824 36.8381 97.558 37.9627C97.3188 38.2884 97.2832 38.726 97.4664 39.0873C97.6496 39.4486 98.021 39.6776 98.4282 39.6776H105.268C105.67 39.6776 106.041 39.4537 106.224 39.0924C106.942 37.6981 107.542 36.0646 108.021 34.2326C108.499 32.3904 108.738 30.5584 108.738 28.7875C108.738 24.4417 107.273 21.2459 104.377 19.2663L104.382 19.251ZM93.9652 24.7266C92.4182 27.9326 90.7287 29.7137 89.0189 29.8969C88.8611 29.9173 88.8306 29.8867 88.7644 29.8002C88.6016 29.5865 88.5202 29.271 88.5202 28.8639C88.5202 28.0191 88.8662 27.21 89.5736 26.3958C90.286 25.5765 91.3343 25.0727 92.7541 24.8539C93.1917 24.7979 93.5938 24.7572 93.9652 24.7215V24.7266Z" fill="#3F73F7"/>
</g>
<defs>
<clipPath id="clip0_615_40849">
<rect width="118" height="39.6675" fill="white"/>
</clipPath>
</defs>
</svg>
