<svg width="118" height="40" viewBox="0 0 118 40" fill="none" xmlns="http://www.w3.org/2000/svg">
<g id="&#235;&#145;&#144;&#235;&#141;&#148;&#236;&#167;&#128; &#235;&#161;&#156;&#234;&#179;&#160;" clip-path="url(#clip0_771_32682)">
<path id="Vector" d="M2.05149 8.01492H2.93695C2.73339 9.41435 2.63162 10.6255 2.63162 11.628C2.63162 14.4676 3.38477 17.0374 4.86562 19.2613C6.01061 20.9609 7.89857 22.223 10.4735 23.0117C12.9111 23.7547 15.7405 24.1313 18.8955 24.1313C21.6232 24.1313 24.4322 23.8717 27.2463 23.3578C30.0655 22.8438 32.6252 22.1619 34.8541 21.3273C35.2765 21.1696 35.5564 20.7675 35.5564 20.3197V14.3607C35.5564 13.979 35.3579 13.6279 35.0272 13.4345C34.6964 13.2412 34.2944 13.231 33.9636 13.4142C32.2079 14.3658 29.8722 15.1444 27.0122 15.7245C24.1167 16.3097 21.272 16.6049 18.5546 16.6049C16.6615 16.6049 15.028 16.442 13.7049 16.1214C12.2139 15.7601 11.7101 15.2869 11.532 15.0223C10.9468 14.1673 10.6465 13.0274 10.6465 11.628C10.6465 10.7273 10.7687 9.51613 11.0129 8.01492H34.4776C35.073 8.01492 35.5564 7.53148 35.5564 6.93608V1.56736C35.5564 0.971965 35.073 0.488525 34.4776 0.488525H2.05149C1.4561 0.488525 0.972656 0.971965 0.972656 1.56736V6.94117C0.972656 7.53657 1.4561 8.02001 2.05149 8.02001V8.01492Z" fill="#FF6D2D"/>
<path id="Vector_2" d="M38.5836 24.9607H1.07883C0.48344 24.9607 0 25.4441 0 26.0395V31.4133C0 32.0087 0.48344 32.4922 1.07883 32.4922H15.8212V38.5937C15.8212 39.1891 16.3046 39.6725 16.9 39.6725H22.7624C23.3578 39.6725 23.8412 39.1891 23.8412 38.5937V32.4922H38.5836C39.179 32.4922 39.6624 32.0087 39.6624 31.4133V26.0395C39.6624 25.4441 39.179 24.9607 38.5836 24.9607Z" fill="#3F73F7"/>
<path id="Vector_3" d="M68.7709 27.8207C68.4656 27.6222 68.0788 27.5917 67.743 27.7392C65.0154 28.9606 62.7406 29.8816 60.9697 30.4872C59.2853 31.0622 57.7689 31.3574 56.461 31.3574C55.1532 31.3574 54.1812 31.0419 53.2856 30.3905C52.3747 29.729 51.5757 28.5992 50.9193 27.0573C50.3544 25.6274 50.0643 23.887 50.0643 21.8871C50.0643 18.4623 50.8582 14.0655 52.4256 8.79857H65.6413C66.2367 8.79857 66.7201 8.31513 66.7201 7.71974V2.34592C66.7201 1.75053 66.2367 1.26709 65.6413 1.26709H42.1003C41.5049 1.26709 41.0215 1.75053 41.0215 2.34592V7.71974C41.0215 8.31513 41.5049 8.79857 42.1003 8.79857H44.1002C42.772 13.7042 42.1003 18.0399 42.1003 21.6886C42.1003 24.8131 42.5888 27.5815 43.5506 29.9223C46.034 35.8356 50.2628 38.838 56.1201 38.838C59.438 38.838 63.6414 37.7744 68.603 35.6778C68.9999 35.5099 69.2595 35.118 69.2595 34.6855V28.7265C69.2595 28.3601 69.0763 28.0191 68.7658 27.8207H68.7709Z" fill="#3F73F7"/>
<path id="Vector_4" d="M77.4829 0H71.6206C71.0252 0 70.5417 0.48344 70.5417 1.07883V14.7017H60.3386C59.7432 14.7017 59.2598 15.1851 59.2598 15.7805V21.6428C59.2598 22.2382 59.7432 22.7217 60.3386 22.7217H70.5417V38.5938C70.5417 39.1891 71.0252 39.6726 71.6206 39.6726H77.4829C78.0783 39.6726 78.5617 39.1891 78.5617 38.5938V1.07883C78.5617 0.48344 78.0783 0 77.4829 0Z" fill="#FF6D2D"/>
<path id="Vector_5" d="M117.43 0H111.573C110.977 0 110.494 0.48301 110.494 1.07883V38.5887C110.494 39.1845 110.977 39.6675 111.573 39.6675H117.43C118.026 39.6675 118.509 39.1845 118.509 38.5887V1.07883C118.509 0.48301 118.026 0 117.43 0Z" fill="#FF6D2D"/>
<path id="Vector_6" d="M104.383 19.251C105.584 14.9561 106.505 9.95883 107.12 4.41199C107.217 3.76571 107.314 3.1296 107.41 2.51386C107.461 2.20344 107.37 1.88284 107.166 1.64366C106.963 1.40449 106.662 1.26709 106.347 1.26709H84.6582C84.0628 1.26709 83.5794 1.75053 83.5794 2.34592V7.71974C83.5794 8.31513 84.0628 8.79857 84.6582 8.79857H98.4337C97.9198 11.8264 97.3193 14.6151 96.6475 17.1137C95.187 17.0883 93.523 17.2002 91.6859 17.4496C89.284 17.8007 87.223 18.559 85.559 19.704C83.8898 20.8591 82.6227 22.2535 81.7983 23.8564C80.9739 25.4543 80.5566 27.1387 80.5566 28.869C80.5566 30.36 80.8721 31.7747 81.493 33.0723C82.1291 34.4056 83.0858 35.4844 84.3275 36.2783C85.5742 37.0722 87.05 37.4742 88.714 37.4742C89.2586 37.4742 89.6707 37.4538 89.9659 37.4182C94.3067 36.889 97.9605 33.8967 100.851 28.5076C100.861 28.6756 100.871 28.8486 100.871 29.0267C100.871 30.4414 100.53 32.0088 99.8484 33.6779C99.1513 35.3979 98.3828 36.8381 97.5585 37.9627C97.3193 38.2884 97.2837 38.726 97.4669 39.0873C97.65 39.4486 98.0215 39.6776 98.4286 39.6776H105.268C105.67 39.6776 106.042 39.4537 106.225 39.0924C106.942 37.6981 107.543 36.0646 108.021 34.2326C108.499 32.3904 108.739 30.5584 108.739 28.7875C108.739 24.4417 107.273 21.2459 104.377 19.2663L104.383 19.251ZM93.9657 24.7266C92.4187 27.9326 90.7292 29.7137 89.0194 29.8969C88.8616 29.9173 88.8311 29.8867 88.7649 29.8002C88.6021 29.5865 88.5207 29.271 88.5207 28.8639C88.5207 28.0191 88.8667 27.21 89.5741 26.3958C90.2865 25.5765 91.3348 25.0727 92.7546 24.8539C93.1922 24.7979 93.5942 24.7572 93.9657 24.7215V24.7266Z" fill="#3F73F7"/>
</g>
<defs>
<clipPath id="clip0_771_32682">
<rect width="118" height="39.6675" fill="white"/>
</clipPath>
</defs>
</svg>
