<svg width="12" height="11" viewBox="0 0 12 11" fill="none" xmlns="http://www.w3.org/2000/svg">
<g id="Sun" clip-path="url(#clip0_369_8585)">
<path id="Icon" d="M6.08482 0.575195V1.46881M6.08482 9.51137V10.405M2.60865 2.01392L3.24311 2.64839M8.92652 8.33179L9.56099 8.96626M1.16992 5.49009H2.06354M10.1061 5.49009H10.9997M2.60865 8.96626L3.24311 8.33179M8.92652 2.64839L9.56099 2.01392M8.31886 5.49009C8.31886 6.72392 7.31864 7.72413 6.08482 7.72413C4.85099 7.72413 3.85077 6.72392 3.85077 5.49009C3.85077 4.25626 4.85099 3.25605 6.08482 3.25605C7.31864 3.25605 8.31886 4.25626 8.31886 5.49009Z" stroke="white" stroke-width="1.19149" stroke-linecap="round" stroke-linejoin="round"/>
</g>
<defs>
<clipPath id="clip0_369_8585">
<rect width="10.7234" height="10.7234" fill="white" transform="translate(0.722656 0.12793)"/>
</clipPath>
</defs>
</svg>
