<svg width="20" height="19" viewBox="0 0 20 19" fill="none" xmlns="http://www.w3.org/2000/svg">
<g id="Group 2361">
<g id="Group">
<path id="Vector" d="M18.2619 9.02934V16.9651C15.8763 17.3391 13.0972 17.5539 10.128 17.5539C7.15887 17.5539 4.37856 17.3391 1.99414 16.9651V9.02934C1.99414 4.54087 5.63562 0.902588 10.128 0.902588C14.6204 0.902588 18.2619 4.54087 18.2619 9.02934Z" fill="#C0C0C0"/>
</g>
<g id="Group_2">
<path id="Vector_2" d="M10.7291 9.53064H9.70067C9.57501 9.53064 9.47314 9.63242 9.47314 9.75796V11.1901C9.47314 11.3156 9.57501 11.4174 9.70067 11.4174H10.7291C10.8547 11.4174 10.9566 11.3156 10.9566 11.1901V9.75796C10.9566 9.63242 10.8547 9.53064 10.7291 9.53064Z" fill="#C0C0C0"/>
<path id="Vector_3" d="M12.7447 10.2933C12.7447 10.8093 11.6162 10.8775 10.2249 10.8775C8.83358 10.8775 7.70508 10.8093 7.70508 10.2933C7.70508 9.77725 8.83358 9.12598 10.2249 9.12598C11.6162 9.12598 12.7447 9.77725 12.7447 10.2933Z" fill="#C0C0C0"/>
<g id="Group_3">
<path id="Vector_4" d="M15.2592 10.0387C14.7837 10.0728 14.3105 10.1444 13.8452 10.2512C13.7382 10.2762 13.6757 10.3978 13.7041 10.5001C13.7337 10.6092 13.8463 10.6661 13.9533 10.6411C14.3855 10.541 14.8178 10.4751 15.2592 10.4422C15.3684 10.4342 15.4617 10.3546 15.4617 10.2398C15.4617 10.1364 15.3684 10.0296 15.2592 10.0375V10.0387Z" fill="#C0C0C0"/>
<path id="Vector_5" d="M15.3115 11.2003C14.8474 11.0889 14.3753 11.0139 13.8998 10.9753C13.7905 10.9662 13.6973 11.0742 13.6973 11.1776C13.6973 11.2947 13.7905 11.3708 13.8998 11.3799C14.34 11.4163 14.7723 11.4867 15.2046 11.5902C15.3104 11.6152 15.4242 11.5561 15.4537 11.4492C15.4833 11.3424 15.4196 11.2265 15.3127 11.2003H15.3115Z" fill="#C0C0C0"/>
<path id="Vector_6" d="M4.99839 10.4435C5.43978 10.4753 5.87207 10.5412 6.30436 10.6424C6.41016 10.6674 6.52392 10.6094 6.5535 10.5014C6.58194 10.3991 6.51937 10.2775 6.41244 10.2525C5.94715 10.1445 5.47391 10.0741 4.99839 10.04C4.88918 10.032 4.7959 10.1389 4.7959 10.2423C4.7959 10.3582 4.88918 10.4366 4.99839 10.4446V10.4435Z" fill="#C0C0C0"/>
<path id="Vector_7" d="M5.05312 11.5902C5.48427 11.4867 5.91656 11.4151 6.35795 11.3799C6.46716 11.3708 6.56044 11.2935 6.56044 11.1776C6.56044 11.0753 6.46716 10.9662 6.35795 10.9753C5.88243 11.0139 5.41033 11.0889 4.94618 11.2003C4.84039 11.2265 4.77668 11.3458 4.80512 11.4492C4.8347 11.5572 4.94732 11.6163 5.05426 11.5902H5.05312Z" fill="#C0C0C0"/>
</g>
<g id="Group_4">
<path id="Vector_8" d="M7.40329 9.37152C7.71178 9.37152 7.96186 9.12166 7.96186 8.81344C7.96186 8.50523 7.71178 8.25537 7.40329 8.25537C7.0948 8.25537 6.84473 8.50523 6.84473 8.81344C6.84473 9.12166 7.0948 9.37152 7.40329 9.37152Z" fill="#C0C0C0"/>
<path id="Vector_9" d="M12.8857 9.37152C13.1942 9.37152 13.4443 9.12166 13.4443 8.81344C13.4443 8.50523 13.1942 8.25537 12.8857 8.25537C12.5772 8.25537 12.3271 8.50523 12.3271 8.81344C12.3271 9.12166 12.5772 9.37152 12.8857 9.37152Z" fill="#C0C0C0"/>
</g>
</g>
<g id="Group_5">
<g id="Group_6">
<g id="Group_7">
<path id="Vector_10" d="M15.8174 18.5211C15.8174 18.6781 15.9448 18.8053 16.1018 18.8053C16.2589 18.8053 16.3862 18.6781 16.3862 18.5211V18.1802C16.3862 18.0232 16.2589 17.896 16.1018 17.896C15.9448 17.896 15.8174 18.0232 15.8174 18.1802V18.5211Z" fill="#C0C0C0"/>
<path id="Vector_11" d="M17.1821 18.179C17.1821 18.0221 17.0548 17.8949 16.8977 17.8949C16.7406 17.8949 16.6133 18.0221 16.6133 18.179V18.52C16.6133 18.677 16.7406 18.8042 16.8977 18.8042C17.0548 18.8042 17.1821 18.677 17.1821 18.52V18.179Z" fill="#C0C0C0"/>
<path id="Vector_12" d="M17.9785 18.179C17.9785 18.0221 17.8511 17.8949 17.6941 17.8949C17.537 17.8949 17.4097 18.0221 17.4097 18.179V18.52C17.4097 18.677 17.537 18.8042 17.6941 18.8042C17.8511 18.8042 17.9785 18.677 17.9785 18.52V18.179Z" fill="#C0C0C0"/>
</g>
</g>
<g id="Group_8">
<g id="Group_9">
<path id="Vector_13" d="M6.46148 17.604C6.41711 18.7259 4.93595 18.7418 3.15105 18.6724C1.36728 18.602 -0.0433481 18.4735 0.00101851 17.3506C0.0453851 16.2287 1.52655 15.3751 3.31145 15.4456C5.09522 15.5161 6.50585 16.4822 6.46148 17.604Z" fill="#C0C0C0"/>
<g id="Group_10">
<path id="Vector_14" d="M2.14995 18.4408C2.14995 18.5978 2.27728 18.725 2.43435 18.725C2.59142 18.725 2.71875 18.5978 2.71875 18.4408V18.0998C2.71875 17.9429 2.59142 17.8157 2.43435 17.8157C2.27728 17.8157 2.14995 17.9429 2.14995 18.0998V18.4408Z" fill="#C0C0C0"/>
<path id="Vector_15" d="M3.51558 18.0987C3.51558 17.9418 3.38825 17.8146 3.23118 17.8146C3.07411 17.8146 2.94678 17.9418 2.94678 18.0987V18.4397C2.94678 18.5966 3.07411 18.7239 3.23118 18.7239C3.38825 18.7239 3.51558 18.5966 3.51558 18.4397V18.0987Z" fill="#C0C0C0"/>
<path id="Vector_16" d="M4.31148 18.0987C4.31148 17.9418 4.18415 17.8146 4.02708 17.8146C3.87001 17.8146 3.74268 17.9418 3.74268 18.0987V18.4397C3.74268 18.5966 3.87001 18.7239 4.02708 18.7239C4.18415 18.7239 4.31148 18.5966 4.31148 18.4397V18.0987Z" fill="#C0C0C0"/>
</g>
</g>
<g id="Group_11">
<path id="Vector_17" d="M13.5381 17.6041C13.5825 18.726 15.0637 18.7419 16.8486 18.6726C18.6323 18.6021 20.043 18.4736 19.9986 17.3507C19.9542 16.2288 18.4731 15.3752 16.6882 15.4457C14.9044 15.5162 13.4938 16.4823 13.5381 17.6041Z" fill="#C0C0C0"/>
<g id="Group_12">
<path id="Vector_18" d="M15.6875 18.4409C15.6875 18.5979 15.8149 18.7251 15.9719 18.7251C16.129 18.7251 16.2563 18.5979 16.2563 18.4409V18.1C16.2563 17.943 16.129 17.8158 15.9719 17.8158C15.8149 17.8158 15.6875 17.943 15.6875 18.1V18.4409Z" fill="#C0C0C0"/>
<path id="Vector_19" d="M17.0532 18.0988C17.0532 17.9419 16.9258 17.8147 16.7688 17.8147C16.6117 17.8147 16.4844 17.9419 16.4844 18.0988V18.4398C16.4844 18.5968 16.6117 18.724 16.7688 18.724C16.9258 18.724 17.0532 18.5968 17.0532 18.4398V18.0988Z" fill="#C0C0C0"/>
<path id="Vector_20" d="M17.8491 18.0988C17.8491 17.9419 17.7217 17.8147 17.5647 17.8147C17.4076 17.8147 17.2803 17.9419 17.2803 18.0988V18.4398C17.2803 18.5968 17.4076 18.724 17.5647 18.724C17.7217 18.724 17.8491 18.5968 17.8491 18.4398V18.0988Z" fill="#C0C0C0"/>
</g>
</g>
</g>
</g>
</g>
</svg>
