<svg width="20" height="19" viewBox="0 0 20 19" fill="none" xmlns="http://www.w3.org/2000/svg">
<path d="M18.2619 9.02934V16.9651C15.8763 17.3391 13.0972 17.5539 10.128 17.5539C7.15887 17.5539 4.37856 17.3391 1.99414 16.9651V9.02934C1.99414 4.54087 5.63562 0.902588 10.128 0.902588C14.6204 0.902588 18.2619 4.54087 18.2619 9.02934Z" fill="#525252"/>
<path d="M10.7286 9.53064H9.70018C9.57452 9.53064 9.47266 9.63242 9.47266 9.75796V11.1901C9.47266 11.3156 9.57452 11.4174 9.70018 11.4174H10.7286C10.8542 11.4174 10.9561 11.3156 10.9561 11.1901V9.75796C10.9561 9.63242 10.8542 9.53064 10.7286 9.53064Z" fill="#525252"/>
<path d="M12.7427 10.2933C12.7427 10.8093 11.6142 10.8775 10.2229 10.8775C8.83163 10.8775 7.70312 10.8093 7.70312 10.2933C7.70312 9.77725 8.83163 9.12598 10.2229 9.12598C11.6142 9.12598 12.7427 9.77725 12.7427 10.2933Z" fill="#525252"/>
<path d="M15.2592 10.0387C14.7837 10.0728 14.3105 10.1444 13.8452 10.2512C13.7382 10.2762 13.6757 10.3978 13.7041 10.5001C13.7337 10.6092 13.8463 10.6661 13.9533 10.6411C14.3855 10.541 14.8178 10.4751 15.2592 10.4422C15.3684 10.4342 15.4617 10.3546 15.4617 10.2398C15.4617 10.1364 15.3684 10.0296 15.2592 10.0375V10.0387Z" fill="#525252"/>
<path d="M15.3115 11.2003C14.8474 11.0889 14.3753 11.0139 13.8998 10.9753C13.7905 10.9662 13.6973 11.0742 13.6973 11.1776C13.6973 11.2947 13.7905 11.3708 13.8998 11.3799C14.34 11.4163 14.7723 11.4867 15.2046 11.5902C15.3104 11.6152 15.4242 11.5561 15.4537 11.4492C15.4833 11.3424 15.4196 11.2265 15.3127 11.2003H15.3115Z" fill="#525252"/>
<path d="M4.99742 10.4435C5.43881 10.4753 5.8711 10.5412 6.30339 10.6424C6.40918 10.6674 6.52294 10.6094 6.55252 10.5014C6.58096 10.3991 6.51839 10.2775 6.41146 10.2525C5.94618 10.1445 5.47293 10.0741 4.99742 10.04C4.88821 10.032 4.79492 10.1389 4.79492 10.2423C4.79492 10.3582 4.88821 10.4366 4.99742 10.4446V10.4435Z" fill="#525252"/>
<path d="M5.05165 11.5902C5.48281 11.4867 5.9151 11.4151 6.35649 11.3799C6.4657 11.3708 6.55898 11.2935 6.55898 11.1776C6.55898 11.0753 6.4657 10.9662 6.35649 10.9753C5.88097 11.0139 5.40886 11.0889 4.94472 11.2003C4.83892 11.2265 4.77521 11.3458 4.80365 11.4492C4.83323 11.5572 4.94586 11.6163 5.05279 11.5902H5.05165Z" fill="#525252"/>
<path d="M7.40231 9.37152C7.7108 9.37152 7.96088 9.12166 7.96088 8.81344C7.96088 8.50523 7.7108 8.25537 7.40231 8.25537C7.09383 8.25537 6.84375 8.50523 6.84375 8.81344C6.84375 9.12166 7.09383 9.37152 7.40231 9.37152Z" fill="#525252"/>
<path d="M12.8847 9.37152C13.1932 9.37152 13.4433 9.12166 13.4433 8.81344C13.4433 8.50523 13.1932 8.25537 12.8847 8.25537C12.5762 8.25537 12.3262 8.50523 12.3262 8.81344C12.3262 9.12166 12.5762 9.37152 12.8847 9.37152Z" fill="#525252"/>
<path d="M15.816 18.5211C15.816 18.6781 15.9433 18.8053 16.1004 18.8053C16.2574 18.8053 16.3848 18.6781 16.3848 18.5211V18.1802C16.3848 18.0232 16.2574 17.896 16.1004 17.896C15.9433 17.896 15.816 18.0232 15.816 18.1802V18.5211Z" fill="#525252"/>
<path d="M17.1801 18.179C17.1801 18.0221 17.0528 17.8949 16.8957 17.8949C16.7387 17.8949 16.6113 18.0221 16.6113 18.179V18.52C16.6113 18.677 16.7387 18.8042 16.8957 18.8042C17.0528 18.8042 17.1801 18.677 17.1801 18.52V18.179Z" fill="#525252"/>
<path d="M17.977 18.179C17.977 18.0221 17.8497 17.8949 17.6926 17.8949C17.5355 17.8949 17.4082 18.0221 17.4082 18.179V18.52C17.4082 18.677 17.5355 18.8042 17.6926 18.8042C17.8497 18.8042 17.977 18.677 17.977 18.52V18.179Z" fill="#525252"/>
<path d="M6.46148 17.604C6.41711 18.7259 4.93595 18.7418 3.15105 18.6724C1.36728 18.602 -0.0433481 18.4735 0.00101851 17.3506C0.0453851 16.2287 1.52655 15.3751 3.31145 15.4456C5.09522 15.5161 6.50585 16.4822 6.46148 17.604Z" fill="#525252"/>
<path d="M2.14995 18.4408C2.14995 18.5978 2.27728 18.725 2.43435 18.725C2.59142 18.725 2.71875 18.5978 2.71875 18.4408V18.0998C2.71875 17.9429 2.59142 17.8157 2.43435 17.8157C2.27728 17.8157 2.14995 17.9429 2.14995 18.0998V18.4408Z" fill="#525252"/>
<path d="M3.51607 18.0987C3.51607 17.9418 3.38874 17.8146 3.23167 17.8146C3.0746 17.8146 2.94727 17.9418 2.94727 18.0987V18.4397C2.94727 18.5966 3.0746 18.7239 3.23167 18.7239C3.38874 18.7239 3.51607 18.5966 3.51607 18.4397V18.0987Z" fill="#525252"/>
<path d="M4.31099 18.0987C4.31099 17.9418 4.18366 17.8146 4.02659 17.8146C3.86952 17.8146 3.74219 17.9418 3.74219 18.0987V18.4397C3.74219 18.5966 3.86952 18.7239 4.02659 18.7239C4.18366 18.7239 4.31099 18.5966 4.31099 18.4397V18.0987Z" fill="#525252"/>
<path d="M13.5381 17.6041C13.5825 18.726 15.0637 18.7419 16.8486 18.6726C18.6323 18.6021 20.043 18.4736 19.9986 17.3507C19.9542 16.2288 18.4731 15.3752 16.6882 15.4457C14.9044 15.5162 13.4938 16.4823 13.5381 17.6041Z" fill="#525252"/>
<path d="M15.6871 18.4409C15.6871 18.5979 15.8144 18.7251 15.9715 18.7251C16.1285 18.7251 16.2559 18.5979 16.2559 18.4409V18.1C16.2559 17.943 16.1285 17.8158 15.9715 17.8158C15.8144 17.8158 15.6871 17.943 15.6871 18.1V18.4409Z" fill="#525252"/>
<path d="M17.0532 18.0988C17.0532 17.9419 16.9258 17.8147 16.7688 17.8147C16.6117 17.8147 16.4844 17.9419 16.4844 18.0988V18.4398C16.4844 18.5968 16.6117 18.724 16.7688 18.724C16.9258 18.724 17.0532 18.5968 17.0532 18.4398V18.0988Z" fill="#525252"/>
<path d="M17.8501 18.0988C17.8501 17.9419 17.7227 17.8147 17.5657 17.8147C17.4086 17.8147 17.2812 17.9419 17.2812 18.0988V18.4398C17.2812 18.5968 17.4086 18.724 17.5657 18.724C17.7227 18.724 17.8501 18.5968 17.8501 18.4398V18.0988Z" fill="#525252"/>
</svg>
