<svg width="27" height="25" viewBox="0 0 27 25" fill="none" xmlns="http://www.w3.org/2000/svg">
<g id="Group 2361">
<g id="Group">
<path id="Vector" d="M24.658 11.3887V22.085C21.4426 22.589 17.6967 22.8786 13.6947 22.8786C9.69273 22.8786 5.94529 22.589 2.73145 22.085V11.3887C2.73145 5.33893 7.63961 0.435059 13.6947 0.435059C19.7498 0.435059 24.658 5.33893 24.658 11.3887Z" fill="#C0C0C0"/>
</g>
<g id="Group_2">
<path id="Vector_2" d="M14.5048 12.0642H13.1187C12.9493 12.0642 12.812 12.2014 12.812 12.3706V14.3009C12.812 14.4701 12.9493 14.6073 13.1187 14.6073H14.5048C14.6742 14.6073 14.8115 14.4701 14.8115 14.3009V12.3706C14.8115 12.2014 14.6742 12.0642 14.5048 12.0642Z" fill="#C0C0C0"/>
<path id="Vector_3" d="M17.2213 13.0921C17.2213 13.7877 15.7003 13.8796 13.825 13.8796C11.9498 13.8796 10.4287 13.7877 10.4287 13.0921C10.4287 12.3966 11.9498 11.5188 13.825 11.5188C15.7003 11.5188 17.2213 12.3966 17.2213 13.0921Z" fill="#C0C0C0"/>
<g id="Group_3">
<path id="Vector_4" d="M20.6107 12.7489C19.9697 12.7949 19.3319 12.8914 18.7047 13.0354C18.5606 13.0691 18.4763 13.233 18.5146 13.3709C18.5545 13.518 18.7063 13.5946 18.8504 13.5609C19.4331 13.4261 20.0157 13.3372 20.6107 13.2928C20.7579 13.2821 20.8836 13.1748 20.8836 13.0201C20.8836 12.8807 20.7579 12.7367 20.6107 12.7474V12.7489Z" fill="#C0C0C0"/>
<path id="Vector_5" d="M20.6812 14.315C20.0556 14.1649 19.4192 14.0638 18.7783 14.0117C18.6311 13.9995 18.5054 14.145 18.5054 14.2844C18.5054 14.4422 18.6311 14.5448 18.7783 14.5571C19.3717 14.6061 19.9544 14.7011 20.537 14.8405C20.6796 14.8742 20.833 14.7946 20.8728 14.6505C20.9127 14.5065 20.8268 14.3503 20.6827 14.315H20.6812Z" fill="#C0C0C0"/>
<path id="Vector_6" d="M6.78074 13.2947C7.37567 13.3376 7.95833 13.4264 8.541 13.5628C8.6836 13.5965 8.83693 13.5183 8.8768 13.3728C8.91513 13.2349 8.8308 13.071 8.68666 13.0373C8.05953 12.8917 7.42167 12.7968 6.78074 12.7508C6.63354 12.7401 6.50781 12.8841 6.50781 13.0235C6.50781 13.1798 6.63354 13.2855 6.78074 13.2962V13.2947Z" fill="#C0C0C0"/>
<path id="Vector_7" d="M6.85463 14.8405C7.43576 14.7011 8.01843 14.6046 8.61335 14.5571C8.76055 14.5448 8.88629 14.4407 8.88629 14.2844C8.88629 14.1465 8.76055 13.9994 8.61335 14.0117C7.97243 14.0638 7.3361 14.1649 6.7105 14.315C6.5679 14.3503 6.48204 14.5111 6.52037 14.6505C6.56024 14.7961 6.71203 14.8757 6.85617 14.8405H6.85463Z" fill="#C0C0C0"/>
</g>
<g id="Group_4">
<path id="Vector_8" d="M10.0219 11.8499C10.4377 11.8499 10.7748 11.5131 10.7748 11.0977C10.7748 10.6822 10.4377 10.3455 10.0219 10.3455C9.60611 10.3455 9.26904 10.6822 9.26904 11.0977C9.26904 11.5131 9.60611 11.8499 10.0219 11.8499Z" fill="#C0C0C0"/>
<path id="Vector_9" d="M17.4116 11.8499C17.8273 11.8499 18.1644 11.5131 18.1644 11.0977C18.1644 10.6822 17.8273 10.3455 17.4116 10.3455C16.9958 10.3455 16.6587 10.6822 16.6587 11.0977C16.6587 11.5131 16.9958 11.8499 17.4116 11.8499Z" fill="#C0C0C0"/>
</g>
</g>
<g id="Group_5">
<g id="Group_6">
<g id="Group_7">
<path id="Vector_10" d="M21.3632 24.1819C21.3632 24.3935 21.5348 24.5649 21.7466 24.5649C21.9583 24.5649 22.1299 24.3935 22.1299 24.1819V23.7224C22.1299 23.5108 21.9583 23.3394 21.7466 23.3394C21.5348 23.3394 21.3632 23.5108 21.3632 23.7224V24.1819Z" fill="#C0C0C0"/>
<path id="Vector_11" d="M23.2027 23.7209C23.2027 23.5094 23.0311 23.3379 22.8194 23.3379C22.6077 23.3379 22.436 23.5094 22.436 23.7209V24.1805C22.436 24.392 22.6077 24.5635 22.8194 24.5635C23.0311 24.5635 23.2027 24.392 23.2027 24.1805V23.7209Z" fill="#C0C0C0"/>
<path id="Vector_12" d="M24.2759 23.7209C24.2759 23.5094 24.1043 23.3379 23.8926 23.3379C23.6809 23.3379 23.5093 23.5094 23.5093 23.7209V24.1805C23.5093 24.392 23.6809 24.5635 23.8926 24.5635C24.1043 24.5635 24.2759 24.392 24.2759 24.1805V23.7209Z" fill="#C0C0C0"/>
</g>
</g>
<g id="Group_8">
<g id="Group_9">
<path id="Vector_13" d="M8.75257 22.9457C8.69277 24.4578 6.69638 24.4792 4.2906 24.3858C1.88635 24.2908 -0.0149698 24.1177 0.0448298 22.6041C0.104629 21.092 2.10102 19.9415 4.5068 20.0365C6.91105 20.1315 8.81237 21.4337 8.75257 22.9457Z" fill="#C0C0C0"/>
<g id="Group_10">
<path id="Vector_14" d="M2.94135 24.0738C2.94135 24.2853 3.11297 24.4568 3.32468 24.4568C3.53638 24.4568 3.70801 24.2853 3.70801 24.0738V23.6142C3.70801 23.4027 3.53638 23.2312 3.32468 23.2312C3.11297 23.2312 2.94135 23.4027 2.94135 23.6142V24.0738Z" fill="#C0C0C0"/>
<path id="Vector_15" d="M4.7818 23.6127C4.7818 23.4012 4.61018 23.2297 4.39847 23.2297C4.18676 23.2297 4.01514 23.4012 4.01514 23.6127V24.0723C4.01514 24.2838 4.18676 24.4553 4.39847 24.4553C4.61018 24.4553 4.7818 24.2838 4.7818 24.0723V23.6127Z" fill="#C0C0C0"/>
<path id="Vector_16" d="M5.85455 23.6127C5.85455 23.4012 5.68293 23.2297 5.47122 23.2297C5.25951 23.2297 5.08789 23.4012 5.08789 23.6127V24.0723C5.08789 24.2838 5.25951 24.4553 5.47122 24.4553C5.68293 24.4553 5.85455 24.2838 5.85455 24.0723V23.6127Z" fill="#C0C0C0"/>
</g>
</g>
<g id="Group_11">
<path id="Vector_17" d="M18.2909 22.9457C18.3507 24.4578 20.3471 24.4792 22.7529 24.3858C25.1571 24.2908 27.0585 24.1177 26.9987 22.6041C26.9389 21.092 24.9425 19.9415 22.5367 20.0365C20.1324 20.1315 18.2311 21.4337 18.2909 22.9457Z" fill="#C0C0C0"/>
<g id="Group_12">
<path id="Vector_18" d="M21.1879 24.0738C21.1879 24.2853 21.3596 24.4568 21.5713 24.4568C21.783 24.4568 21.9546 24.2853 21.9546 24.0738V23.6142C21.9546 23.4027 21.783 23.2312 21.5713 23.2312C21.3596 23.2312 21.1879 23.4027 21.1879 23.6142V24.0738Z" fill="#C0C0C0"/>
<path id="Vector_19" d="M23.0289 23.6122C23.0289 23.4007 22.8572 23.2292 22.6455 23.2292C22.4338 23.2292 22.2622 23.4007 22.2622 23.6122V24.0718C22.2622 24.2834 22.4338 24.4548 22.6455 24.4548C22.8572 24.4548 23.0289 24.2834 23.0289 24.0718V23.6122Z" fill="#C0C0C0"/>
<path id="Vector_20" d="M24.1016 23.6122C24.1016 23.4007 23.93 23.2292 23.7183 23.2292C23.5066 23.2292 23.335 23.4007 23.335 23.6122V24.0718C23.335 24.2834 23.5066 24.4548 23.7183 24.4548C23.93 24.4548 24.1016 24.2834 24.1016 24.0718V23.6122Z" fill="#C0C0C0"/>
</g>
</g>
</g>
</g>
</g>
</svg>
