<svg width="27" height="25" viewBox="0 0 27 25" fill="none" xmlns="http://www.w3.org/2000/svg">
<g id="Group 2361">
<g id="Group">
<path id="Vector" d="M24.657 11.3887V22.085C21.4416 22.589 17.6957 22.8786 13.6937 22.8786C9.69175 22.8786 5.94431 22.589 2.73047 22.085V11.3887C2.73047 5.33893 7.63864 0.435059 13.6937 0.435059C19.7488 0.435059 24.657 5.33893 24.657 11.3887Z" fill="#525252"/>
</g>
<g id="Group_2">
<path id="Vector_2" d="M14.5033 12.0642H13.1172C12.9478 12.0642 12.8105 12.2014 12.8105 12.3706V14.3009C12.8105 14.4701 12.9478 14.6073 13.1172 14.6073H14.5033C14.6727 14.6073 14.81 14.4701 14.81 14.3009V12.3706C14.81 12.2014 14.6727 12.0642 14.5033 12.0642Z" fill="#525252"/>
<path id="Vector_3" d="M17.2184 13.0924C17.2184 13.7879 15.6973 13.8798 13.8221 13.8798C11.9468 13.8798 10.4258 13.7879 10.4258 13.0924C10.4258 12.3969 11.9468 11.519 13.8221 11.519C15.6973 11.519 17.2184 12.3969 17.2184 13.0924Z" fill="#525252"/>
<g id="Group_3">
<path id="Vector_4" d="M20.6112 12.7492C19.9702 12.7951 19.3324 12.8916 18.7052 13.0356C18.5611 13.0694 18.4768 13.2333 18.5151 13.3712C18.555 13.5182 18.7068 13.5948 18.8509 13.5611C19.4336 13.4263 20.0162 13.3374 20.6112 13.293C20.7584 13.2823 20.8841 13.1751 20.8841 13.0203C20.8841 12.8809 20.7584 12.7369 20.6112 12.7476V12.7492Z" fill="#525252"/>
<path id="Vector_5" d="M20.6816 14.315C20.056 14.1649 19.4197 14.0638 18.7788 14.0117C18.6316 13.9995 18.5059 14.145 18.5059 14.2844C18.5059 14.4422 18.6316 14.5448 18.7788 14.5571C19.3722 14.6061 19.9548 14.7011 20.5375 14.8405C20.6801 14.8742 20.8334 14.7946 20.8733 14.6505C20.9132 14.5065 20.8273 14.3503 20.6832 14.315H20.6816Z" fill="#525252"/>
<path id="Vector_6" d="M6.77879 13.2947C7.37372 13.3376 7.95638 13.4264 8.53904 13.5628C8.68164 13.5965 8.83498 13.5183 8.87484 13.3728C8.91318 13.2349 8.82884 13.071 8.68471 13.0373C8.05758 12.8917 7.41972 12.7968 6.77879 12.7508C6.63159 12.7401 6.50586 12.8841 6.50586 13.0235C6.50586 13.1798 6.63159 13.2855 6.77879 13.2962V13.2947Z" fill="#525252"/>
<path id="Vector_7" d="M6.85122 14.8405C7.43234 14.7011 8.01501 14.6046 8.60994 14.5571C8.75714 14.5448 8.88287 14.4407 8.88287 14.2844C8.88287 14.1465 8.75714 13.9994 8.60994 14.0117C7.96901 14.0638 7.33268 14.1649 6.70708 14.315C6.56448 14.3503 6.47862 14.5111 6.51695 14.6505C6.55682 14.7961 6.70862 14.8757 6.85275 14.8405H6.85122Z" fill="#525252"/>
</g>
<g id="Group_4">
<path id="Vector_8" d="M10.0204 11.8499C10.4362 11.8499 10.7733 11.5131 10.7733 11.0977C10.7733 10.6822 10.4362 10.3455 10.0204 10.3455C9.60465 10.3455 9.26758 10.6822 9.26758 11.0977C9.26758 11.5131 9.60465 11.8499 10.0204 11.8499Z" fill="#525252"/>
<path id="Vector_9" d="M17.4091 11.8499C17.8249 11.8499 18.162 11.5131 18.162 11.0977C18.162 10.6822 17.8249 10.3455 17.4091 10.3455C16.9933 10.3455 16.6562 10.6822 16.6562 11.0977C16.6562 11.5131 16.9933 11.8499 17.4091 11.8499Z" fill="#525252"/>
</g>
</g>
<g id="Group_5">
<g id="Group_6">
<g id="Group_7">
<path id="Vector_10" d="M21.3583 24.1824C21.3583 24.394 21.53 24.5654 21.7417 24.5654C21.9534 24.5654 22.125 24.394 22.125 24.1824V23.7228C22.125 23.5113 21.9534 23.3398 21.7417 23.3398C21.53 23.3398 21.3583 23.5113 21.3583 23.7228V24.1824Z" fill="#525252"/>
<path id="Vector_11" d="M23.1983 23.7214C23.1983 23.5099 23.0267 23.3384 22.815 23.3384C22.6033 23.3384 22.4316 23.5099 22.4316 23.7214V24.181C22.4316 24.3925 22.6033 24.564 22.815 24.564C23.0267 24.564 23.1983 24.3925 23.1983 24.181V23.7214Z" fill="#525252"/>
<path id="Vector_12" d="M24.2725 23.7214C24.2725 23.5099 24.1009 23.3384 23.8892 23.3384C23.6775 23.3384 23.5059 23.5099 23.5059 23.7214V24.181C23.5059 24.3925 23.6775 24.564 23.8892 24.564C24.1009 24.564 24.2725 24.3925 24.2725 24.181V23.7214Z" fill="#525252"/>
</g>
</g>
<g id="Group_8">
<g id="Group_9">
<path id="Vector_13" d="M8.75208 22.9465C8.69228 24.4585 6.6959 24.48 4.29011 24.3865C1.88586 24.2915 -0.015458 24.1184 0.0443415 22.6048C0.104141 21.0928 2.10053 19.9422 4.50631 20.0372C6.91056 20.1322 8.81188 21.4344 8.75208 22.9465Z" fill="#525252"/>
<g id="Group_10">
<path id="Vector_14" d="M2.94232 24.0743C2.94232 24.2858 3.11395 24.4573 3.32565 24.4573C3.53736 24.4573 3.70898 24.2858 3.70898 24.0743V23.6147C3.70898 23.4032 3.53736 23.2317 3.32565 23.2317C3.11395 23.2317 2.94232 23.4032 2.94232 23.6147V24.0743Z" fill="#525252"/>
<path id="Vector_15" d="M4.78229 23.6132C4.78229 23.4017 4.61066 23.2302 4.39896 23.2302C4.18725 23.2302 4.01562 23.4017 4.01562 23.6132V24.0728C4.01562 24.2843 4.18725 24.4558 4.39896 24.4558C4.61066 24.4558 4.78229 24.2843 4.78229 24.0728V23.6132Z" fill="#525252"/>
<path id="Vector_16" d="M5.85455 23.6132C5.85455 23.4017 5.68293 23.2302 5.47122 23.2302C5.25951 23.2302 5.08789 23.4017 5.08789 23.6132V24.0728C5.08789 24.2843 5.25951 24.4558 5.47122 24.4558C5.68293 24.4558 5.85455 24.2843 5.85455 24.0728V23.6132Z" fill="#525252"/>
</g>
</g>
<g id="Group_11">
<path id="Vector_17" d="M18.2904 22.9465C18.3502 24.4585 20.3466 24.48 22.7524 24.3865C25.1567 24.2915 27.058 24.1184 26.9982 22.6048C26.9384 21.0928 24.942 19.9422 22.5362 20.0372C20.132 20.1322 18.2306 21.4344 18.2904 22.9465Z" fill="#525252"/>
<g id="Group_12">
<path id="Vector_18" d="M21.1865 24.0745C21.1865 24.286 21.3581 24.4575 21.5698 24.4575C21.7815 24.4575 21.9531 24.286 21.9531 24.0745V23.6149C21.9531 23.4034 21.7815 23.2319 21.5698 23.2319C21.3581 23.2319 21.1865 23.4034 21.1865 23.6149V24.0745Z" fill="#525252"/>
<path id="Vector_19" d="M23.0284 23.613C23.0284 23.4015 22.8568 23.23 22.645 23.23C22.4333 23.23 22.2617 23.4015 22.2617 23.613V24.0726C22.2617 24.2841 22.4333 24.4556 22.645 24.4556C22.8568 24.4556 23.0284 24.2841 23.0284 24.0726V23.613Z" fill="#525252"/>
<path id="Vector_20" d="M24.1026 23.613C24.1026 23.4015 23.931 23.23 23.7193 23.23C23.5076 23.23 23.3359 23.4015 23.3359 23.613V24.0726C23.3359 24.2841 23.5076 24.4556 23.7193 24.4556C23.931 24.4556 24.1026 24.2841 24.1026 24.0726V23.613Z" fill="#525252"/>
</g>
</g>
</g>
</g>
</g>
</svg>
