<svg width="20" height="19" viewBox="0 0 20 19" fill="none" xmlns="http://www.w3.org/2000/svg">
<g id="Group 2361">
<g id="Group">
<path id="Vector" d="M18.2619 8.93205V16.8679C15.8763 17.2418 13.0972 17.4566 10.128 17.4566C7.15887 17.4566 4.37856 17.2418 1.99414 16.8679V8.93205C1.99414 4.44358 5.63562 0.805298 10.128 0.805298C14.6204 0.805298 18.2619 4.44358 18.2619 8.93205Z" fill="#FF8D52"/>
</g>
<g id="Group_2">
<path id="Vector_2" d="M10.7295 9.43335H9.70115C9.5755 9.43335 9.47363 9.53513 9.47363 9.66067V11.0928C9.47363 11.2183 9.5755 11.3201 9.70115 11.3201H10.7295C10.8552 11.3201 10.9571 11.2183 10.9571 11.0928V9.66067C10.9571 9.53513 10.8552 9.43335 10.7295 9.43335Z" fill="#FF8D52"/>
<path id="Vector_3" d="M12.7447 10.196C12.7447 10.712 11.6162 10.7802 10.2249 10.7802C8.83358 10.7802 7.70508 10.712 7.70508 10.196C7.70508 9.67996 8.83358 9.02869 10.2249 9.02869C11.6162 9.02869 12.7447 9.67996 12.7447 10.196Z" fill="#FF8D52"/>
<g id="Group_3">
<path id="Vector_4" d="M15.2592 9.94137C14.7837 9.97547 14.3105 10.0471 13.8452 10.1539C13.7382 10.1789 13.6757 10.3005 13.7041 10.4028C13.7337 10.512 13.8463 10.5688 13.9533 10.5438C14.3855 10.4438 14.8178 10.3778 15.2592 10.3449C15.3684 10.3369 15.4617 10.2574 15.4617 10.1426C15.4617 10.0391 15.3684 9.93228 15.2592 9.94024V9.94137Z" fill="#FF8D52"/>
<path id="Vector_5" d="M15.3115 11.103C14.8474 10.9916 14.3753 10.9166 13.8998 10.878C13.7905 10.8689 13.6973 10.9769 13.6973 11.0803C13.6973 11.1974 13.7905 11.2735 13.8998 11.2826C14.34 11.319 14.7723 11.3895 15.2046 11.4929C15.3104 11.5179 15.4242 11.4588 15.4537 11.3519C15.4833 11.2451 15.4196 11.1292 15.3127 11.103H15.3115Z" fill="#FF8D52"/>
<path id="Vector_6" d="M4.99839 10.3462C5.43978 10.378 5.87207 10.4439 6.30436 10.5451C6.41016 10.5701 6.52392 10.5121 6.5535 10.4041C6.58194 10.3018 6.51937 10.1802 6.41244 10.1552C5.94715 10.0472 5.47391 9.97678 4.99839 9.94268C4.88918 9.93472 4.7959 10.0416 4.7959 10.145C4.7959 10.2609 4.88918 10.3394 4.99839 10.3473V10.3462Z" fill="#FF8D52"/>
<path id="Vector_7" d="M5.05263 11.4929C5.48378 11.3894 5.91607 11.3178 6.35746 11.2826C6.46667 11.2735 6.55996 11.1962 6.55996 11.0803C6.55996 10.978 6.46667 10.8689 6.35746 10.878C5.88194 10.9166 5.40984 10.9916 4.9457 11.103C4.8399 11.1292 4.77619 11.2485 4.80463 11.3519C4.83421 11.4599 4.94683 11.519 5.05377 11.4929H5.05263Z" fill="#FF8D52"/>
</g>
<g id="Group_4">
<path id="Vector_8" d="M7.40329 9.27423C7.71178 9.27423 7.96186 9.02437 7.96186 8.71615C7.96186 8.40794 7.71178 8.15808 7.40329 8.15808C7.0948 8.15808 6.84473 8.40794 6.84473 8.71615C6.84473 9.02437 7.0948 9.27423 7.40329 9.27423Z" fill="#FF8D52"/>
<path id="Vector_9" d="M12.8857 9.27423C13.1942 9.27423 13.4443 9.02437 13.4443 8.71615C13.4443 8.40794 13.1942 8.15808 12.8857 8.15808C12.5772 8.15808 12.3271 8.40794 12.3271 8.71615C12.3271 9.02437 12.5772 9.27423 12.8857 9.27423Z" fill="#FF8D52"/>
</g>
</g>
<g id="Group_5">
<g id="Group_6">
<g id="Group_7">
<path id="Vector_10" d="M15.8169 18.4239C15.8169 18.5808 15.9443 18.708 16.1013 18.708C16.2584 18.708 16.3857 18.5808 16.3857 18.4239V18.0829C16.3857 17.9259 16.2584 17.7987 16.1013 17.7987C15.9443 17.7987 15.8169 17.9259 15.8169 18.0829V18.4239Z" fill="#FF8D52"/>
<path id="Vector_11" d="M17.1821 18.0818C17.1821 17.9248 17.0548 17.7976 16.8977 17.7976C16.7406 17.7976 16.6133 17.9248 16.6133 18.0818V18.4227C16.6133 18.5797 16.7406 18.7069 16.8977 18.7069C17.0548 18.7069 17.1821 18.5797 17.1821 18.4227V18.0818Z" fill="#FF8D52"/>
<path id="Vector_12" d="M17.979 18.0818C17.979 17.9248 17.8516 17.7976 17.6946 17.7976C17.5375 17.7976 17.4102 17.9248 17.4102 18.0818V18.4227C17.4102 18.5797 17.5375 18.7069 17.6946 18.7069C17.8516 18.7069 17.979 18.5797 17.979 18.4227V18.0818Z" fill="#FF8D52"/>
</g>
</g>
<g id="Group_8">
<g id="Group_9">
<path id="Vector_13" d="M6.46148 17.5067C6.41711 18.6286 4.93595 18.6445 3.15105 18.5751C1.36728 18.5047 -0.0433481 18.3762 0.00101851 17.2533C0.0453851 16.1314 1.52655 15.2778 3.31145 15.3483C5.09522 15.4188 6.50585 16.3849 6.46148 17.5067Z" fill="#FF8D52"/>
<g id="Group_10">
<path id="Vector_14" d="M2.14897 18.3435C2.14897 18.5005 2.2763 18.6277 2.43337 18.6277C2.59044 18.6277 2.71777 18.5005 2.71777 18.3435V18.0026C2.71777 17.8456 2.59044 17.7184 2.43337 17.7184C2.2763 17.7184 2.14897 17.8456 2.14897 18.0026V18.3435Z" fill="#FF8D52"/>
<path id="Vector_15" d="M3.51509 18.0014C3.51509 17.8445 3.38776 17.7173 3.23069 17.7173C3.07362 17.7173 2.94629 17.8445 2.94629 18.0014V18.3424C2.94629 18.4994 3.07362 18.6266 3.23069 18.6266C3.38776 18.6266 3.51509 18.4994 3.51509 18.3424V18.0014Z" fill="#FF8D52"/>
<path id="Vector_16" d="M4.31099 18.0014C4.31099 17.8445 4.18366 17.7173 4.02659 17.7173C3.86952 17.7173 3.74219 17.8445 3.74219 18.0014V18.3424C3.74219 18.4994 3.86952 18.6266 4.02659 18.6266C4.18366 18.6266 4.31099 18.4994 4.31099 18.3424V18.0014Z" fill="#FF8D52"/>
</g>
</g>
<g id="Group_11">
<path id="Vector_17" d="M13.5381 17.5069C13.5825 18.6287 15.0637 18.6446 16.8486 18.5753C18.6323 18.5048 20.043 18.3764 19.9986 17.2534C19.9542 16.1316 18.4731 15.278 16.6882 15.3484C14.9044 15.4189 13.4938 16.385 13.5381 17.5069Z" fill="#FF8D52"/>
<g id="Group_12">
<path id="Vector_18" d="M15.688 18.3437C15.688 18.5006 15.8154 18.6278 15.9724 18.6278C16.1295 18.6278 16.2568 18.5006 16.2568 18.3437V18.0027C16.2568 17.8457 16.1295 17.7185 15.9724 17.7185C15.8154 17.7185 15.688 17.8457 15.688 18.0027V18.3437Z" fill="#FF8D52"/>
<path id="Vector_19" d="M17.0532 18.0016C17.0532 17.8446 16.9258 17.7174 16.7688 17.7174C16.6117 17.7174 16.4844 17.8446 16.4844 18.0016V18.3425C16.4844 18.4995 16.6117 18.6267 16.7688 18.6267C16.9258 18.6267 17.0532 18.4995 17.0532 18.3425V18.0016Z" fill="#FF8D52"/>
<path id="Vector_20" d="M17.8491 18.0016C17.8491 17.8446 17.7217 17.7174 17.5647 17.7174C17.4076 17.7174 17.2803 17.8446 17.2803 18.0016V18.3425C17.2803 18.4995 17.4076 18.6267 17.5647 18.6267C17.7217 18.6267 17.8491 18.4995 17.8491 18.3425V18.0016Z" fill="#FF8D52"/>
</g>
</g>
</g>
</g>
</g>
</svg>
