<svg width="20" height="18" viewBox="0 0 20 18" fill="none" xmlns="http://www.w3.org/2000/svg">
<g id="Group 2361">
<g id="Group">
<path id="Vector" d="M18.2619 8.12675V16.0626C15.8763 16.4365 13.0972 16.6513 10.128 16.6513C7.15887 16.6513 4.37856 16.4365 1.99414 16.0626V8.12675C1.99414 3.63829 5.63562 0 10.128 0C14.6204 0 18.2619 3.63829 18.2619 8.12675Z" fill="#3F73F7"/>
</g>
<g id="Group_2">
<path id="Vector_2" d="M10.7291 8.62805H9.70067C9.57501 8.62805 9.47314 8.72983 9.47314 8.85537V10.2875C9.47314 10.413 9.57501 10.5148 9.70067 10.5148H10.7291C10.8547 10.5148 10.9566 10.413 10.9566 10.2875V8.85537C10.9566 8.72983 10.8547 8.62805 10.7291 8.62805Z" fill="#3F73F7"/>
<path id="Vector_3" d="M12.7447 9.39069C12.7447 9.90671 11.6162 9.9749 10.2249 9.9749C8.83358 9.9749 7.70508 9.90671 7.70508 9.39069C7.70508 8.87467 8.83358 8.22339 10.2249 8.22339C11.6162 8.22339 12.7447 8.87467 12.7447 9.39069Z" fill="#3F73F7"/>
<g id="Group_3">
<path id="Vector_4" d="M15.2592 9.13608C14.7837 9.17017 14.3105 9.24178 13.8452 9.34862C13.7382 9.37363 13.6757 9.49525 13.7041 9.59754C13.7337 9.70666 13.8463 9.76348 13.9533 9.73848C14.3855 9.63846 14.8178 9.57253 15.2592 9.53957C15.3684 9.53162 15.4617 9.45205 15.4617 9.33726C15.4617 9.23382 15.3684 9.12698 15.2592 9.13494V9.13608Z" fill="#3F73F7"/>
<path id="Vector_5" d="M15.3115 10.2977C14.8474 10.1863 14.3753 10.1113 13.8998 10.0727C13.7905 10.0636 13.6973 10.1716 13.6973 10.275C13.6973 10.3921 13.7905 10.4682 13.8998 10.4773C14.34 10.5137 14.7723 10.5842 15.2046 10.6876C15.3104 10.7126 15.4242 10.6535 15.4537 10.5466C15.4833 10.4398 15.4196 10.3239 15.3127 10.2977H15.3115Z" fill="#3F73F7"/>
<path id="Vector_6" d="M4.99839 9.54088C5.43978 9.5727 5.87207 9.63863 6.30436 9.73978C6.41016 9.76479 6.52392 9.70682 6.5535 9.59884C6.58194 9.49655 6.51937 9.37493 6.41244 9.34993C5.94715 9.24195 5.47391 9.17148 4.99839 9.13738C4.88918 9.12943 4.7959 9.23627 4.7959 9.3397C4.7959 9.45563 4.88918 9.53406 4.99839 9.54201V9.54088Z" fill="#3F73F7"/>
<path id="Vector_7" d="M5.05312 10.6876C5.48427 10.5841 5.91656 10.5125 6.35795 10.4773C6.46716 10.4682 6.56044 10.3909 6.56044 10.275C6.56044 10.1727 6.46716 10.0636 6.35795 10.0727C5.88243 10.1113 5.41033 10.1863 4.94618 10.2977C4.84039 10.3239 4.77668 10.4432 4.80512 10.5466C4.8347 10.6546 4.94732 10.7137 5.05426 10.6876H5.05312Z" fill="#3F73F7"/>
</g>
<g id="Group_4">
<path id="Vector_8" d="M7.40329 8.46893C7.71178 8.46893 7.96186 8.21907 7.96186 7.91086C7.96186 7.60264 7.71178 7.35278 7.40329 7.35278C7.0948 7.35278 6.84473 7.60264 6.84473 7.91086C6.84473 8.21907 7.0948 8.46893 7.40329 8.46893Z" fill="#3F73F7"/>
<path id="Vector_9" d="M12.8857 8.46893C13.1942 8.46893 13.4443 8.21907 13.4443 7.91086C13.4443 7.60264 13.1942 7.35278 12.8857 7.35278C12.5772 7.35278 12.3271 7.60264 12.3271 7.91086C12.3271 8.21907 12.5772 8.46893 12.8857 8.46893Z" fill="#3F73F7"/>
</g>
</g>
<g id="Group_5">
<g id="Group_6">
<g id="Group_7">
<path id="Vector_10" d="M15.8174 17.6186C15.8174 17.7755 15.9448 17.9027 16.1018 17.9027C16.2589 17.9027 16.3862 17.7755 16.3862 17.6186V17.2776C16.3862 17.1206 16.2589 16.9934 16.1018 16.9934C15.9448 16.9934 15.8174 17.1206 15.8174 17.2776V17.6186Z" fill="#3F73F7"/>
<path id="Vector_11" d="M17.1821 17.2765C17.1821 17.1195 17.0548 16.9923 16.8977 16.9923C16.7406 16.9923 16.6133 17.1195 16.6133 17.2765V17.6174C16.6133 17.7744 16.7406 17.9016 16.8977 17.9016C17.0548 17.9016 17.1821 17.7744 17.1821 17.6174V17.2765Z" fill="#3F73F7"/>
<path id="Vector_12" d="M17.9785 17.2765C17.9785 17.1195 17.8511 16.9923 17.6941 16.9923C17.537 16.9923 17.4097 17.1195 17.4097 17.2765V17.6174C17.4097 17.7744 17.537 17.9016 17.6941 17.9016C17.8511 17.9016 17.9785 17.7744 17.9785 17.6174V17.2765Z" fill="#3F73F7"/>
</g>
</g>
<g id="Group_8">
<g id="Group_9">
<path id="Vector_13" d="M6.46148 16.7014C6.41711 17.8233 4.93595 17.8392 3.15105 17.7698C1.36728 17.6994 -0.0433481 17.5709 0.00101851 16.448C0.0453851 15.3261 1.52655 14.4725 3.31145 14.543C5.09522 14.6135 6.50585 15.5796 6.46148 16.7014Z" fill="#3F73F7"/>
<g id="Group_10">
<path id="Vector_14" d="M2.14995 17.5382C2.14995 17.6952 2.27728 17.8224 2.43435 17.8224C2.59142 17.8224 2.71875 17.6952 2.71875 17.5382V17.1973C2.71875 17.0403 2.59142 16.9131 2.43435 16.9131C2.27728 16.9131 2.14995 17.0403 2.14995 17.1973V17.5382Z" fill="#3F73F7"/>
<path id="Vector_15" d="M3.51558 17.1961C3.51558 17.0392 3.38825 16.912 3.23118 16.912C3.07411 16.912 2.94678 17.0392 2.94678 17.1961V17.5371C2.94678 17.6941 3.07411 17.8213 3.23118 17.8213C3.38825 17.8213 3.51558 17.6941 3.51558 17.5371V17.1961Z" fill="#3F73F7"/>
<path id="Vector_16" d="M4.31148 17.1961C4.31148 17.0392 4.18415 16.912 4.02708 16.912C3.87001 16.912 3.74268 17.0392 3.74268 17.1961V17.5371C3.74268 17.6941 3.87001 17.8213 4.02708 17.8213C4.18415 17.8213 4.31148 17.6941 4.31148 17.5371V17.1961Z" fill="#3F73F7"/>
</g>
</g>
<g id="Group_11">
<path id="Vector_17" d="M13.5381 16.7016C13.5825 17.8234 15.0637 17.8393 16.8486 17.77C18.6323 17.6995 20.043 17.5711 19.9986 16.4481C19.9542 15.3263 18.4731 14.4727 16.6882 14.5431C14.9044 14.6136 13.4938 15.5797 13.5381 16.7016Z" fill="#3F73F7"/>
<g id="Group_12">
<path id="Vector_18" d="M15.6875 17.5384C15.6875 17.6953 15.8149 17.8225 15.9719 17.8225C16.129 17.8225 16.2563 17.6953 16.2563 17.5384V17.1974C16.2563 17.0404 16.129 16.9132 15.9719 16.9132C15.8149 16.9132 15.6875 17.0404 15.6875 17.1974V17.5384Z" fill="#3F73F7"/>
<path id="Vector_19" d="M17.0532 17.1963C17.0532 17.0393 16.9258 16.9121 16.7688 16.9121C16.6117 16.9121 16.4844 17.0393 16.4844 17.1963V17.5372C16.4844 17.6942 16.6117 17.8214 16.7688 17.8214C16.9258 17.8214 17.0532 17.6942 17.0532 17.5372V17.1963Z" fill="#3F73F7"/>
<path id="Vector_20" d="M17.8491 17.1963C17.8491 17.0393 17.7217 16.9121 17.5647 16.9121C17.4076 16.9121 17.2803 17.0393 17.2803 17.1963V17.5372C17.2803 17.6942 17.4076 17.8214 17.5647 17.8214C17.7217 17.8214 17.8491 17.6942 17.8491 17.5372V17.1963Z" fill="#3F73F7"/>
</g>
</g>
</g>
</g>
</g>
</svg>
