<svg width="27" height="25" viewBox="0 0 27 25" fill="none" xmlns="http://www.w3.org/2000/svg">
<g id="Group 2361">
<g id="Group">
<path id="Vector" d="M24.6599 11.3887V22.085C21.4445 22.589 17.6986 22.8786 13.6967 22.8786C9.69468 22.8786 5.94724 22.589 2.7334 22.085V11.3887C2.7334 5.33893 7.64156 0.435059 13.6967 0.435059C19.7517 0.435059 24.6599 5.33893 24.6599 11.3887Z" fill="#FF6D2D"/>
</g>
<g id="Group_2">
<path id="Vector_2" d="M14.5072 12.0642H13.1211C12.9518 12.0642 12.8145 12.2014 12.8145 12.3706V14.3009C12.8145 14.4701 12.9518 14.6073 13.1211 14.6073H14.5072C14.6766 14.6073 14.8139 14.4701 14.8139 14.3009V12.3706C14.8139 12.2014 14.6766 12.0642 14.5072 12.0642Z" fill="#FF6D2D"/>
<path id="Vector_3" d="M17.2233 13.0921C17.2233 13.7877 15.7022 13.8796 13.827 13.8796C11.9517 13.8796 10.4307 13.7877 10.4307 13.0921C10.4307 12.3966 11.9517 11.5188 13.827 11.5188C15.7022 11.5188 17.2233 12.3966 17.2233 13.0921Z" fill="#FF6D2D"/>
<g id="Group_3">
<path id="Vector_4" d="M20.6131 12.7489C19.9722 12.7949 19.3343 12.8914 18.7072 13.0354C18.5631 13.0691 18.4787 13.233 18.5171 13.3709C18.5569 13.518 18.7087 13.5946 18.8529 13.5609C19.4355 13.4261 20.0182 13.3372 20.6131 13.2928C20.7603 13.2821 20.886 13.1748 20.886 13.0201C20.886 12.8807 20.7603 12.7367 20.6131 12.7474V12.7489Z" fill="#FF6D2D"/>
<path id="Vector_5" d="M20.6836 14.315C20.058 14.1649 19.4217 14.0638 18.7807 14.0117C18.6335 13.9995 18.5078 14.145 18.5078 14.2844C18.5078 14.4422 18.6335 14.5448 18.7807 14.5571C19.3741 14.6061 19.9568 14.7011 20.5395 14.8405C20.6821 14.8742 20.8354 14.7946 20.8753 14.6505C20.9151 14.5065 20.8293 14.3503 20.6851 14.315H20.6836Z" fill="#FF6D2D"/>
<path id="Vector_6" d="M6.7827 13.2947C7.37763 13.3376 7.96029 13.4264 8.54295 13.5628C8.68555 13.5965 8.83888 13.5183 8.87875 13.3728C8.91708 13.2349 8.83275 13.071 8.68862 13.0373C8.06149 12.8917 7.42363 12.7968 6.7827 12.7508C6.6355 12.7401 6.50977 12.8841 6.50977 13.0235C6.50977 13.1798 6.6355 13.2855 6.7827 13.2962V13.2947Z" fill="#FF6D2D"/>
<path id="Vector_7" d="M6.8561 14.8405C7.43723 14.7011 8.01989 14.6046 8.61482 14.5571C8.76202 14.5448 8.88775 14.4407 8.88775 14.2844C8.88775 14.1465 8.76202 13.9994 8.61482 14.0117C7.97389 14.0638 7.33756 14.1649 6.71197 14.315C6.56937 14.3503 6.4835 14.5111 6.52183 14.6505C6.5617 14.7961 6.7135 14.8757 6.85763 14.8405H6.8561Z" fill="#FF6D2D"/>
</g>
<g id="Group_4">
<path id="Vector_8" d="M10.0234 11.8499C10.4392 11.8499 10.7762 11.5131 10.7762 11.0977C10.7762 10.6822 10.4392 10.3455 10.0234 10.3455C9.60758 10.3455 9.27051 10.6822 9.27051 11.0977C9.27051 11.5131 9.60758 11.8499 10.0234 11.8499Z" fill="#FF6D2D"/>
<path id="Vector_9" d="M17.413 11.8499C17.8288 11.8499 18.1659 11.5131 18.1659 11.0977C18.1659 10.6822 17.8288 10.3455 17.413 10.3455C16.9972 10.3455 16.6602 10.6822 16.6602 11.0977C16.6602 11.5131 16.9972 11.8499 17.413 11.8499Z" fill="#FF6D2D"/>
</g>
</g>
<g id="Group_5">
<g id="Group_6">
<g id="Group_7">
<path id="Vector_10" d="M21.3632 24.1822C21.3632 24.3937 21.5348 24.5652 21.7466 24.5652C21.9583 24.5652 22.1299 24.3937 22.1299 24.1822V23.7226C22.1299 23.5111 21.9583 23.3396 21.7466 23.3396C21.5348 23.3396 21.3632 23.5111 21.3632 23.7226V24.1822Z" fill="#FF6D2D"/>
<path id="Vector_11" d="M23.2032 23.7211C23.2032 23.5096 23.0316 23.3381 22.8199 23.3381C22.6081 23.3381 22.4365 23.5096 22.4365 23.7211V24.1807C22.4365 24.3922 22.6081 24.5637 22.8199 24.5637C23.0316 24.5637 23.2032 24.3922 23.2032 24.1807V23.7211Z" fill="#FF6D2D"/>
<path id="Vector_12" d="M24.2774 23.7211C24.2774 23.5096 24.1058 23.3381 23.8941 23.3381C23.6824 23.3381 23.5107 23.5096 23.5107 23.7211V24.1807C23.5107 24.3922 23.6824 24.5637 23.8941 24.5637C24.1058 24.5637 24.2774 24.3922 24.2774 24.1807V23.7211Z" fill="#FF6D2D"/>
</g>
</g>
<g id="Group_8">
<g id="Group_9">
<path id="Vector_13" d="M8.75306 22.9462C8.69326 24.4583 6.69687 24.4797 4.29109 24.3863C1.88684 24.2913 -0.0144815 24.1182 0.0453181 22.6046C0.105118 21.0925 2.1015 19.942 4.50729 20.037C6.91154 20.132 8.81286 21.4341 8.75306 22.9462Z" fill="#FF6D2D"/>
<g id="Group_10">
<path id="Vector_14" d="M2.94037 24.074C2.94037 24.2856 3.11199 24.457 3.3237 24.457C3.53541 24.457 3.70703 24.2856 3.70703 24.074V23.6144C3.70703 23.4029 3.53541 23.2314 3.3237 23.2314C3.11199 23.2314 2.94037 23.4029 2.94037 23.6144V24.074Z" fill="#FF6D2D"/>
<path id="Vector_15" d="M4.78131 23.613C4.78131 23.4015 4.60969 23.23 4.39798 23.23C4.18627 23.23 4.01465 23.4015 4.01465 23.613V24.0726C4.01465 24.2841 4.18627 24.4556 4.39798 24.4556C4.60969 24.4556 4.78131 24.2841 4.78131 24.0726V23.613Z" fill="#FF6D2D"/>
<path id="Vector_16" d="M5.85455 23.613C5.85455 23.4015 5.68293 23.23 5.47122 23.23C5.25951 23.23 5.08789 23.4015 5.08789 23.613V24.0726C5.08789 24.2841 5.25951 24.4556 5.47122 24.4556C5.68293 24.4556 5.85455 24.2841 5.85455 24.0726V23.613Z" fill="#FF6D2D"/>
</g>
</g>
<g id="Group_11">
<path id="Vector_17" d="M18.2914 22.9462C18.3512 24.4583 20.3476 24.4797 22.7534 24.3863C25.1576 24.2913 27.0589 24.1182 26.9992 22.6046C26.9394 21.0925 24.943 19.942 22.5372 20.037C20.1329 20.132 18.2316 21.4341 18.2914 22.9462Z" fill="#FF6D2D"/>
<g id="Group_12">
<path id="Vector_18" d="M21.1894 24.074C21.1894 24.2856 21.361 24.457 21.5727 24.457C21.7844 24.457 21.9561 24.2856 21.9561 24.074V23.6144C21.9561 23.4029 21.7844 23.2314 21.5727 23.2314C21.361 23.2314 21.1894 23.4029 21.1894 23.6144V24.074Z" fill="#FF6D2D"/>
<path id="Vector_19" d="M23.0294 23.6127C23.0294 23.4012 22.8577 23.2297 22.646 23.2297C22.4343 23.2297 22.2627 23.4012 22.2627 23.6127V24.0723C22.2627 24.2838 22.4343 24.4553 22.646 24.4553C22.8577 24.4553 23.0294 24.2838 23.0294 24.0723V23.6127Z" fill="#FF6D2D"/>
<path id="Vector_20" d="M24.1026 23.6127C24.1026 23.4012 23.931 23.2297 23.7193 23.2297C23.5076 23.2297 23.3359 23.4012 23.3359 23.6127V24.0723C23.3359 24.2838 23.5076 24.4553 23.7193 24.4553C23.931 24.4553 24.1026 24.2838 24.1026 24.0723V23.6127Z" fill="#FF6D2D"/>
</g>
</g>
</g>
</g>
</g>
</svg>
