<svg width="185" height="153" viewBox="0 0 185 153" fill="none" xmlns="http://www.w3.org/2000/svg">
<g clip-path="url(#clip0_2340_131627)">
<path d="M0 120.14C0 129.166 18.3098 137.051 45.594 141.324V98.9492C18.3098 103.229 0 111.114 0 120.14Z" fill="#114BBD"/>
<path d="M185 120.14C185 111.114 166.69 103.229 139.406 98.9556V141.331C166.69 137.057 185 129.165 185 120.146V120.14Z" fill="#114BBD"/>
<path d="M139.406 95.5603V141.324C125.649 143.48 109.622 144.719 92.4998 144.719C75.3774 144.719 59.3441 143.48 45.5938 141.324V95.5603C45.5938 69.6764 66.5932 48.6953 92.4998 48.6953C118.406 48.6953 139.406 69.6764 139.406 95.5603Z" fill="#1B1B1B"/>
<path d="M95.9652 98.4502H90.0347C89.3101 98.4502 88.7227 99.0371 88.7227 99.7611V108.02C88.7227 108.744 89.3101 109.331 90.0347 109.331H95.9652C96.6899 109.331 97.2773 108.744 97.2773 108.02V99.7611C97.2773 99.0371 96.6899 98.4502 95.9652 98.4502Z" fill="white"/>
<path d="M107.582 102.849C107.582 105.824 101.074 106.218 93.0506 106.218C85.0273 106.218 78.5195 105.824 78.5195 102.849C78.5195 99.8729 85.0273 96.1172 93.0506 96.1172C101.074 96.1172 107.582 99.8729 107.582 102.849Z" fill="#FF6D2D"/>
<path d="M122.086 101.38C119.343 101.577 116.614 101.99 113.931 102.606C113.314 102.75 112.954 103.451 113.118 104.041C113.288 104.67 113.938 104.998 114.554 104.854C117.047 104.277 119.54 103.897 122.086 103.707C122.715 103.661 123.253 103.202 123.253 102.54C123.253 101.944 122.715 101.328 122.086 101.374V101.38Z" fill="white"/>
<path d="M122.387 108.079C119.711 107.437 116.988 107.004 114.246 106.781C113.616 106.729 113.078 107.352 113.078 107.948C113.078 108.623 113.616 109.062 114.246 109.115C116.785 109.325 119.278 109.731 121.77 110.327C122.381 110.472 123.037 110.131 123.207 109.515C123.378 108.899 123.01 108.23 122.394 108.079H122.387Z" fill="white"/>
<path d="M62.9138 103.714C65.4592 103.898 67.9521 104.278 70.4451 104.861C71.0552 105.005 71.7112 104.671 71.8818 104.048C72.0458 103.458 71.6849 102.757 71.0683 102.613C68.3851 101.99 65.656 101.584 62.9138 101.387C62.2841 101.341 61.7461 101.957 61.7461 102.554C61.7461 103.222 62.2841 103.675 62.9138 103.721V103.714Z" fill="white"/>
<path d="M63.227 110.327C65.7134 109.731 68.2063 109.318 70.7517 109.115C71.3815 109.062 71.9194 108.617 71.9194 107.948C71.9194 107.358 71.3815 106.729 70.7517 106.781C68.0095 107.004 65.287 107.437 62.6104 108.079C62.0003 108.23 61.6329 108.918 61.7969 109.515C61.9675 110.137 62.6169 110.478 63.2336 110.327H63.227Z" fill="white"/>
<path d="M76.7797 97.5327C78.5586 97.5327 80.0008 96.0919 80.0008 94.3145C80.0008 92.5371 78.5586 91.0962 76.7797 91.0962C75.0007 91.0962 73.5586 92.5371 73.5586 94.3145C73.5586 96.0919 75.0007 97.5327 76.7797 97.5327Z" fill="white"/>
<path d="M108.397 97.5327C110.176 97.5327 111.619 96.0919 111.619 94.3145C111.619 92.5371 110.176 91.0962 108.397 91.0962C106.618 91.0962 105.176 92.5371 105.176 94.3145C105.176 96.0919 106.618 97.5327 108.397 97.5327Z" fill="white"/>
<path d="M125.301 150.297C125.301 151.202 126.035 151.936 126.941 151.936C127.847 151.936 128.581 151.202 128.581 150.297V148.331C128.581 147.426 127.847 146.692 126.941 146.692C126.035 146.692 125.301 147.426 125.301 148.331V150.297Z" fill="#FF6D2D"/>
<path d="M133.175 148.324C133.175 147.419 132.44 146.686 131.535 146.686C130.629 146.686 129.895 147.419 129.895 148.324V150.291C129.895 151.196 130.629 151.929 131.535 151.929C132.44 151.929 133.175 151.196 133.175 150.291V148.324Z" fill="#FF6D2D"/>
<path d="M137.764 148.324C137.764 147.419 137.03 146.686 136.124 146.686C135.218 146.686 134.484 147.419 134.484 148.324V150.291C134.484 151.196 135.218 151.929 136.124 151.929C137.03 151.929 137.764 151.196 137.764 150.291V148.324Z" fill="#FF6D2D"/>
<path d="M71.3516 145.009C71.0957 151.478 62.5542 151.57 52.2611 151.17C41.9746 150.763 33.8399 150.023 34.0957 143.547C34.3516 137.078 42.8931 132.155 53.1861 132.562C63.4727 132.968 71.6074 138.539 71.3516 145.009Z" fill="#1B1B1B"/>
<path d="M46.4883 149.833C46.4883 150.738 47.2226 151.471 48.1284 151.471C49.0342 151.471 49.7685 150.738 49.7685 149.833V147.866C49.7685 146.961 49.0342 146.228 48.1284 146.228C47.2226 146.228 46.4883 146.961 46.4883 147.866V149.833Z" fill="#FF6D2D"/>
<path d="M54.3621 147.86C54.3621 146.955 53.6278 146.221 52.722 146.221C51.8163 146.221 51.082 146.955 51.082 147.86V149.826C51.082 150.731 51.8163 151.465 52.722 151.465C53.6278 151.465 54.3621 150.731 54.3621 149.826V147.86Z" fill="#FF6D2D"/>
<path d="M58.952 147.86C58.952 146.955 58.2177 146.221 57.3119 146.221C56.4061 146.221 55.6719 146.955 55.6719 147.86V149.826C55.6719 150.731 56.4061 151.465 57.3119 151.465C58.2177 151.465 58.952 150.731 58.952 149.826V147.86Z" fill="#FF6D2D"/>
<path d="M112.162 145.009C112.418 151.478 120.959 151.57 131.253 151.17C141.539 150.763 149.674 150.023 149.418 143.547C149.162 137.078 140.621 132.155 130.328 132.562C120.041 132.968 111.906 138.539 112.162 145.009Z" fill="#1B1B1B"/>
<path d="M124.555 149.833C124.555 150.738 125.289 151.471 126.195 151.471C127.101 151.471 127.835 150.738 127.835 149.833V147.866C127.835 146.961 127.101 146.228 126.195 146.228C125.289 146.228 124.555 146.961 124.555 147.866V149.833Z" fill="#FF6D2D"/>
<path d="M132.429 147.86C132.429 146.955 131.694 146.221 130.789 146.221C129.883 146.221 129.148 146.955 129.148 147.86V149.826C129.148 150.731 129.883 151.465 130.789 151.465C131.694 151.465 132.429 150.731 132.429 149.826V147.86Z" fill="#FF6D2D"/>
<path d="M137.018 147.86C137.018 146.955 136.284 146.221 135.378 146.221C134.472 146.221 133.738 146.955 133.738 147.86V149.826C133.738 150.731 134.472 151.465 135.378 151.465C136.284 151.465 137.018 150.731 137.018 149.826V147.86Z" fill="#FF6D2D"/>
<path d="M122.015 47.7119H62.9733C57.7197 47.7119 53.4609 51.967 53.4609 57.216C53.4609 62.465 57.7197 66.7201 62.9733 66.7201H122.015C127.269 66.7201 131.528 62.465 131.528 57.216C131.528 51.967 127.269 47.7119 122.015 47.7119Z" fill="#FF6D2D"/>
<path d="M86.1697 4.37356L67.7025 49.1148C66.0427 53.1328 69.0014 57.544 73.3509 57.544H110.278C114.628 57.544 117.586 53.1328 115.927 49.1148L97.4665 4.37356C95.3869 -0.660327 88.2493 -0.660327 86.1697 4.37356Z" fill="#FF6D2D"/>
<mask id="mask0_2340_131627" style="mask-type:luminance" maskUnits="userSpaceOnUse" x="67" y="0" width="50" height="58">
<path d="M86.1697 4.37356L67.7025 49.1148C66.0427 53.1328 69.0014 57.544 73.3509 57.544H110.278C114.628 57.544 117.586 53.1328 115.927 49.1148L97.4665 4.37356C95.3869 -0.660327 88.2493 -0.660327 86.1697 4.37356Z" fill="white"/>
</mask>
<g mask="url(#mask0_2340_131627)">
<path d="M112.426 0.866211L58.4531 32.0003L64.6853 42.7854L118.658 11.6514L112.426 0.866211Z" fill="white"/>
<path d="M121.941 23.478L67.9688 54.612L74.201 65.3972L128.174 34.2631L121.941 23.478Z" fill="white"/>
</g>
</g>
<defs>
<clipPath id="clip0_2340_131627">
<rect width="185" height="153" fill="white"/>
</clipPath>
</defs>
</svg>
