<svg width="21" height="20" viewBox="0 0 21 20" fill="none" xmlns="http://www.w3.org/2000/svg">
<g id="Group">
<path id="Vector" d="M20.3002 10.2271C20.3002 9.51804 20.2366 8.83624 20.1184 8.18164H10.7002V12.0498H16.082C15.8502 13.2998 15.1457 14.3589 14.0866 15.068V17.5771H17.3184C19.2093 15.8362 20.3002 13.2725 20.3002 10.2271Z" fill="#4285F4"/>
<path id="Vector_2" d="M10.7001 19.9999C13.4001 19.9999 15.6637 19.1044 17.3182 17.5772L14.0864 15.0681C13.191 15.6681 12.0455 16.0226 10.7001 16.0226C8.09547 16.0226 5.89097 14.2635 5.10457 11.8999H1.76367V14.4908C3.40917 17.759 6.79097 19.9999 10.7001 19.9999Z" fill="#34A853"/>
<path id="Vector_3" d="M5.10469 11.9002C4.90469 11.3002 4.7911 10.6593 4.7911 10.0002C4.7911 9.34108 4.90469 8.70018 5.10469 8.10018V5.50928H1.76379C1.08659 6.85928 0.700195 8.38658 0.700195 10.0002C0.700195 11.6138 1.08659 13.1411 1.76379 14.4911L5.10469 11.9002Z" fill="#FBBC04"/>
<path id="Vector_4" d="M10.7001 3.9773C12.1682 3.9773 13.4864 4.4818 14.5228 5.4727L17.391 2.6045C15.6592 0.9909 13.3955 0 10.7001 0C6.79097 0 3.40917 2.2409 1.76367 5.5091L5.10457 8.1C5.89097 5.7364 8.09547 3.9773 10.7001 3.9773Z" fill="#E94235"/>
</g>
</svg>
