<svg width="20" height="24" viewBox="0 0 20 24" fill="none" xmlns="http://www.w3.org/2000/svg">
<g id="Group 2332">
<path id="Vector" d="M13.6577 12.2449C14.2904 11.6502 15.1131 11.1805 15.9412 10.928C16.1693 10.8574 16.4001 10.8004 16.6336 10.7542C16.9051 10.6999 16.9377 10.6972 17.2119 10.6755C17.4481 10.6565 17.6871 10.6511 17.926 10.6592C18.0455 10.6619 18.1649 10.6701 18.2817 10.6809C18.3414 10.6864 18.4012 10.6918 18.4582 10.6999C18.6211 10.7189 18.2681 10.6701 18.5505 10.7135C18.9849 10.7841 19.4275 10.6022 19.5524 10.1433C19.6583 9.75504 19.4194 9.212 18.9822 9.14141C16.6363 8.76671 14.2442 9.4618 12.5038 11.0909C12.1834 11.3923 12.1997 11.9381 12.5038 12.2422C12.8241 12.5625 13.3346 12.5435 13.655 12.2422L13.6577 12.2449Z" fill="#FF6D2D"/>
<path id="Vector_2" d="M11.3801 10.048C12.7675 7.24052 12.9359 3.98229 11.5321 1.14763C11.3366 0.753924 10.7773 0.645316 10.4189 0.854386C10.017 1.09061 9.93016 1.57391 10.1256 1.96762C11.2525 4.24838 11.0868 6.97172 9.9736 9.22261C9.77811 9.61631 9.86771 10.105 10.2668 10.3358C10.6252 10.5449 11.1846 10.439 11.3801 10.0426V10.048Z" fill="#FF6D2D"/>
<path id="Vector_3" d="M14.041 8.20407C15.0891 8.20407 15.0918 6.57495 14.041 6.57495C12.9902 6.57495 12.9902 8.20407 14.041 8.20407Z" fill="#FF6D2D"/>
<path id="Vector_4" d="M15.2383 14.2673C16.2863 14.2673 16.2891 12.6382 15.2383 12.6382C14.1875 12.6382 14.1875 14.2673 15.2383 14.2673Z" fill="#FF6D2D"/>
<path id="Vector_5" d="M14.7337 17.675L14.4459 17.7999L11.1687 19.1683L9.18386 19.9937L5.9012 21.3676L1.58675 23.1705C0.793918 23.5072 -0.00434923 22.7144 0.326904 21.9188L1.7198 18.5302L2.87376 15.7254L3.57428 14.0257L4.72823 11.2209L5.74643 8.74197C6.0098 8.1039 6.82708 7.93827 7.31581 8.42429L15.0433 16.1056C15.5266 16.5834 15.3718 17.4089 14.7337 17.675Z" fill="#FFBF84"/>
<path id="Vector_6" d="M14.4431 17.7974L11.1659 19.1658L3.57422 14.026L4.72818 11.2239L14.4431 17.7974Z" fill="#FF6D2D"/>
<path id="Vector_7" d="M9.18379 19.9909L5.90112 21.3648L1.71973 18.5301L2.87368 15.7253L9.18379 19.9909Z" fill="#FF6D2D"/>
</g>
</svg>
