<svg width="23" height="20" viewBox="0 0 23 20" fill="none" xmlns="http://www.w3.org/2000/svg">
<g clip-path="url(#clip0_1082_3440)">
<path d="M11.1792 0C5.00632 0 0 3.95967 0 8.84407C0 13.7285 5.00632 17.6881 11.1792 17.6881C12.2387 17.6881 13.2595 17.5701 14.2316 17.3537C13.8719 17.9734 13.3372 18.4456 12.5207 18.6916C12.2193 18.785 11.8596 18.8687 11.8207 19.2523C11.7381 20.0394 12.9678 20.0246 13.4587 19.9902C15.3057 19.8475 16.9632 18.5588 18.2706 17.3291C22.2174 13.6055 24.1275 7.12248 19.5927 3.02509C17.3131 0.959174 14.1975 0 11.1792 0Z" fill="#FF6D2D"/>
<path d="M7.29046 10.3098C7.82734 10.3098 8.26256 9.86937 8.26256 9.32605C8.26256 8.78273 7.82734 8.34229 7.29046 8.34229C6.75358 8.34229 6.31836 8.78273 6.31836 9.32605C6.31836 9.86937 6.75358 10.3098 7.29046 10.3098Z" fill="#FFAB70"/>
<path d="M10.6928 10.3098C11.2297 10.3098 11.6649 9.86937 11.6649 9.32605C11.6649 8.78273 11.2297 8.34229 10.6928 8.34229C10.1559 8.34229 9.7207 8.78273 9.7207 9.32605C9.7207 9.86937 10.1559 10.3098 10.6928 10.3098Z" fill="#FFAB70"/>
<path d="M14.0951 10.3098C14.632 10.3098 15.0672 9.86937 15.0672 9.32605C15.0672 8.78273 14.632 8.34229 14.0951 8.34229C13.5583 8.34229 13.123 8.78273 13.123 9.32605C13.123 9.86937 13.5583 10.3098 14.0951 10.3098Z" fill="#FFAB70"/>
</g>
<defs>
<clipPath id="clip0_1082_3440">
<rect width="22.2222" height="20" fill="white"/>
</clipPath>
</defs>
</svg>
