<svg width="20" height="24" viewBox="0 0 20 24" fill="none" xmlns="http://www.w3.org/2000/svg">
<g id="Group 2330">
<path id="Vector" d="M18.0743 11.1248C17.7049 10.7246 17.1131 11.1522 17.2123 11.6242C17.3628 12.3322 17.1166 13.0984 16.5659 13.5806C16.3025 13.8098 15.8989 14.0253 15.5398 13.909C15.1875 13.7927 15.0096 13.3823 14.9583 13.0471C14.8318 12.2399 15.1943 11.3848 15.273 10.581C15.3345 9.95162 15.314 9.31543 15.2354 8.6895C14.9104 6.08317 13.6483 3.44947 11.6542 1.69482C10.6144 0.774736 9.37967 0.135125 7.98073 0.00172966C7.66264 -0.0290538 7.37532 0.357449 7.48478 0.651602C7.84392 1.62299 8.31935 2.60122 8.44932 3.64102C8.51089 4.14381 8.47327 4.66713 8.2612 5.13572C8.02862 5.64194 7.61133 6.05923 7.26929 6.49361C6.02085 8.07725 4.83398 9.91742 5.23416 11.9833C4.72111 12.1304 4.20463 11.4361 3.95152 11.0325C3.72236 10.6699 3.53766 10.2834 3.40426 9.87979C3.34269 9.68825 3.28113 9.48987 3.25718 9.29149C3.2435 9.1923 3.24692 9.01101 3.24692 9.00075C3.34953 8.47059 2.56969 8.04647 2.3029 8.60399C0.999732 11.3471 -0.0982104 14.381 0.35328 17.4594C0.753465 20.1717 2.49444 22.2718 5.04262 23.2637C7.35138 24.1633 10.139 24.2078 12.523 23.5647C14.8899 22.9251 16.9969 21.4133 18.1974 19.2653C19.545 16.8608 20.0889 13.3275 18.0743 11.1248Z" fill="#FF6D2D"/>
<path id="Vector_2" d="M11.886 21.9434C10.7881 22.4257 9.44388 22.4668 8.30832 22.2308C6.174 21.7861 4.54932 20.052 4.5459 17.8287C4.5459 17.1276 4.62799 15.9065 5.1342 15.3421C5.34627 15.1061 5.68146 15.3626 5.63016 15.6294C5.56859 15.9509 5.63016 16.2861 5.8217 16.5563C6.01324 16.8231 6.44763 17.1276 6.7452 16.8402C7.18301 16.4195 6.80335 15.585 6.7452 15.0787C6.64601 14.1587 6.83071 13.201 7.17275 12.3459C7.81236 10.7485 9.10527 9.13412 10.9352 8.946C11.1199 8.9289 11.2841 9.15122 11.2225 9.31882C10.7163 10.687 10.5897 11.5763 11.4756 12.8281C12.1323 13.7516 13.0592 14.5041 13.5723 15.5268C14.27 16.9155 14.3111 18.7933 13.6852 20.2127C13.3158 21.0473 12.6625 21.6048 11.886 21.9469V21.9434Z" fill="#FFBF84"/>
</g>
</svg>
