<svg width="24" height="24" viewBox="0 0 24 24" fill="none" xmlns="http://www.w3.org/2000/svg">
<g id="Emoji">
<path id="Vector" d="M20.4584 4.54162C19.9685 4.05173 19.3895 3.66461 18.7523 3.40082C18.1151 3.13703 17.4299 3 16.7379 3C16.0459 3 15.3607 3.13703 14.7235 3.40082C14.0863 3.66461 13.5039 4.05173 13.0175 4.54162L12.0034 5.55567L10.9894 4.54162C9.99931 3.55498 8.65981 3 7.26208 3C5.86434 3 4.52826 3.55498 3.54162 4.54162C2.55498 5.52826 2 6.86776 2 8.2655C2 9.66324 2.55498 10.9993 3.54162 11.986L12 20.4443L20.4584 11.986C20.9483 11.4961 21.3354 10.9171 21.5992 10.2799C21.863 9.64269 22 8.95752 22 8.2655C22 7.57348 21.863 6.88832 21.5992 6.25111C21.3354 5.61391 20.9483 5.03152 20.4584 4.54505V4.54162Z" fill="#FF6D2D"/>
</g>
</svg>
