<svg width="19" height="22" viewBox="0 0 19 22" fill="none" xmlns="http://www.w3.org/2000/svg">
<path d="M5.72037 21.5C8.87965 21.5 11.4407 19.7613 11.4407 17.6165C11.4407 15.4716 8.87965 13.7329 5.72037 13.7329C2.5611 13.7329 0 15.4716 0 17.6165C0 19.7613 2.5611 21.5 5.72037 21.5Z" fill="#FF6D2D"/>
<path d="M17.7108 6.23072C17.1644 5.30459 16.4266 4.48343 15.6486 3.74253C15.0466 3.16833 14.3737 2.68366 13.7593 2.12181C13.4136 1.80692 13.074 1.48278 12.7097 1.18642C12.33 0.877711 11.8577 0.47639 11.3298 0.501087C10.8112 0.525783 10.4284 0.905495 10.4037 1.42721C10.311 3.26403 10.2215 5.10085 10.1289 6.93457C9.98381 9.86422 9.83872 12.7908 9.69363 15.7204C9.65967 16.3965 9.62571 17.0695 9.59175 17.7456C9.56706 18.2457 10.0363 18.6717 10.5179 18.6717C11.0396 18.6717 11.4193 18.2457 11.444 17.7456C11.5366 15.9087 11.6261 14.0719 11.7188 12.2382C11.8638 9.30854 12.0089 6.38199 12.154 3.45234C12.1602 3.35973 12.1633 3.26712 12.1695 3.17142C12.222 3.22081 12.2775 3.2702 12.33 3.3196C12.8455 3.79501 13.4167 4.21176 13.9384 4.681C14.2625 4.97119 14.5774 5.27372 14.8768 5.58552C15.0281 5.74605 15.1794 5.90657 15.3214 6.07328C15.3862 6.15045 15.4541 6.22763 15.5159 6.30481C15.6332 6.44681 15.6085 6.41594 15.6795 6.51164C15.9357 6.86048 16.1611 7.22476 16.3525 7.61373C16.3679 7.64769 16.3864 7.68474 16.4019 7.71869C16.4019 7.71869 16.4019 7.72178 16.4019 7.72487C16.4327 7.80822 16.4636 7.89157 16.4914 7.97492C16.5223 8.07062 16.55 8.16941 16.5717 8.2682C16.5809 8.30524 16.6025 8.43799 16.6118 8.47812C16.6118 8.49664 16.6118 8.51516 16.6118 8.52134C16.6118 8.58925 16.618 8.66026 16.618 8.72817C16.618 8.7683 16.6087 8.87944 16.6087 8.90722C16.5933 8.99675 16.5747 9.08936 16.547 9.1758C16.5346 9.21593 16.5192 9.25606 16.5068 9.2962C16.5068 9.30546 16.5037 9.30854 16.5007 9.31472C16.2969 9.73765 16.0715 10.0001 15.6517 10.3118C15.2504 10.6082 15.0466 11.1145 15.3183 11.5776C15.5498 11.9758 16.1796 12.2073 16.584 11.911C17.5287 11.2164 18.2757 10.3335 18.4332 9.13567C18.5659 8.11075 18.2232 7.0951 17.7046 6.22146L17.7108 6.23072ZM11.0489 2.27307C11.0489 2.27307 11.0674 2.2916 11.089 2.30395C11.0674 2.29468 11.0519 2.28542 11.0489 2.27307Z" fill="#FF6D2D"/>
</svg>
