<svg width="24" height="24" viewBox="0 0 24 24" fill="none" xmlns="http://www.w3.org/2000/svg">
<g id="Group 2331">
<path id="Vector" d="M18.18 10.6545C13.2823 12.2826 11.5326 14.0289 9.90448 18.93C9.71195 19.5076 8.8979 19.5076 8.70875 18.93C7.08066 14.0323 5.33435 12.2826 0.4332 10.6545C-0.1444 10.4619 -0.1444 9.6479 0.4332 9.45875C5.33435 7.83066 7.08404 6.08097 8.70875 1.1832C8.90128 0.6056 9.71532 0.6056 9.90448 1.1832C11.5326 6.08097 13.2789 7.83066 18.18 9.45875C18.7576 9.65128 18.7576 10.4653 18.18 10.6545Z" fill="#FF6D2D"/>
<path id="Vector_2" d="M23.757 18.8457C20.9974 19.7611 20.0111 20.7474 19.0957 23.507C18.9876 23.8313 18.5282 23.8313 18.4202 23.507C17.5048 20.7474 16.5185 19.7611 13.7588 18.8457C13.4346 18.7376 13.4346 18.2782 13.7588 18.1702C16.5185 17.2548 17.5048 16.2685 18.4202 13.5088C18.5282 13.1846 18.9876 13.1846 19.0957 13.5088C20.0111 16.2685 20.9974 17.2548 23.757 18.1702C24.0813 18.2782 24.0813 18.7376 23.757 18.8457Z" fill="#FF6D2D"/>
</g>
</svg>
