<svg width="19" height="18" viewBox="0 0 19 18" fill="none" xmlns="http://www.w3.org/2000/svg">
<g id="Trash 2">
<path id="Icon" d="M2.75 4.5H4.25M4.25 4.5H16.25M4.25 4.5V15C4.25 15.3978 4.40804 15.7794 4.68934 16.0607C4.97064 16.342 5.35218 16.5 5.75 16.5H13.25C13.6478 16.5 14.0294 16.342 14.3107 16.0607C14.592 15.7794 14.75 15.3978 14.75 15V4.5M6.5 4.5V3C6.5 2.60218 6.65804 2.22064 6.93934 1.93934C7.22064 1.65804 7.60218 1.5 8 1.5H11C11.3978 1.5 11.7794 1.65804 12.0607 1.93934C12.342 2.22064 12.5 2.60218 12.5 3V4.5M8 8.25V12.75M11 8.25V12.75" stroke="white" stroke-width="2" stroke-linecap="round" stroke-linejoin="round"/>
</g>
</svg>
